<svg width="280" height="172" viewBox="0 0 280 172" fill="none" xmlns="http://www.w3.org/2000/svg">
<g clip-path="url(#clip0_2429_1245)">
<path d="M246.301 99.7847C246.299 104.727 244.412 109.483 241.025 113.081C237.637 116.68 233.004 118.851 228.071 119.151H227.908C227.574 119.151 227.239 119.172 226.901 119.172C226.562 119.172 226.34 119.172 226.064 119.172H225.889C222.099 118.975 218.45 117.671 215.394 115.422C212.338 113.172 210.008 110.076 208.694 106.516C207.379 102.956 207.137 99.0891 207.998 95.3931C208.859 91.6972 210.784 88.3347 213.536 85.7219C216.288 83.1091 219.746 81.3606 223.482 80.6928C227.217 80.0249 231.067 80.4671 234.554 81.9646C238.04 83.4621 241.012 85.9491 243.1 89.1179C245.187 92.2867 246.3 95.9982 246.301 99.793V99.7847Z" fill="#EFEFEF"/>
<path d="M226.996 93.7849L228.522 160.397H225.273L226.804 93.7849H226.996Z" fill="#DBD7D7"/>
<path d="M212.346 101.578L227.598 116.032L226.465 116.02L241.404 102.456L241.496 102.553L227.581 117.165L227.009 117.767L226.453 117.149L212.346 101.578Z" fill="#DBD7D7"/>
<path d="M220.508 97.7945L227.398 103.853H226.566L233.264 97.9366L233.318 97.9868L227.398 104.685L226.98 105.157L226.566 104.685L220.508 97.7945Z" fill="#DBD7D7"/>
<path d="M72.2111 81.5763H31.793V159.624H72.2111V81.5763Z" fill="#EFEFEF"/>
<path d="M69.1422 88.2659H36.25V100.253H69.1422V88.2659Z" fill="#FEFEFE"/>
<path d="M69.1422 108.055H36.25V120.042H69.1422V108.055Z" fill="#FEFEFE"/>
<path d="M33.1135 82.9685C32.9472 82.9685 32.7876 82.9025 32.67 82.7848C32.5524 82.6672 32.4863 82.5077 32.4863 82.3414V77.1151C32.4863 76.9488 32.5524 76.7892 32.67 76.6716C32.7876 76.554 32.9472 76.4879 33.1135 76.4879H72.2062C72.3725 76.4879 72.532 76.554 72.6497 76.6716C72.7673 76.7892 72.8334 76.9488 72.8334 77.1151C72.8334 77.2814 72.7673 77.4409 72.6497 77.5585C72.532 77.6762 72.3725 77.7422 72.2062 77.7422H33.7406V82.3414C33.7406 82.5077 33.6746 82.6672 33.557 82.7848C33.4393 82.9025 33.2798 82.9685 33.1135 82.9685Z" fill="#EFEFEF"/>
<path d="M36.3205 83.5246C36.1542 83.5246 35.9947 83.4585 35.877 83.3409C35.7594 83.2233 35.6934 83.0638 35.6934 82.8975V77.1151C35.6934 76.9488 35.7594 76.7892 35.877 76.6716C35.9947 76.554 36.1542 76.4879 36.3205 76.4879C36.4868 76.4879 36.6464 76.554 36.764 76.6716C36.8816 76.7892 36.9477 76.9488 36.9477 77.1151V82.8975C36.9477 83.0638 36.8816 83.2233 36.764 83.3409C36.6464 83.4585 36.4868 83.5246 36.3205 83.5246Z" fill="#EFEFEF"/>
<path d="M40.1545 83.3866C39.9882 83.3866 39.8287 83.3206 39.711 83.203C39.5934 83.0853 39.5273 82.9258 39.5273 82.7595V77.3952C39.5273 77.2289 39.5934 77.0694 39.711 76.9518C39.8287 76.8341 39.9882 76.7681 40.1545 76.7681C40.3208 76.7681 40.4804 76.8341 40.598 76.9518C40.7156 77.0694 40.7817 77.2289 40.7817 77.3952V82.7595C40.7817 82.9258 40.7156 83.0853 40.598 83.203C40.4804 83.3206 40.3208 83.3866 40.1545 83.3866Z" fill="#EFEFEF"/>
<path d="M44.1272 83.5957C43.9608 83.5957 43.8013 83.5296 43.6837 83.412C43.5661 83.2944 43.5 83.1349 43.5 82.9685V77.3952C43.5 77.2289 43.5661 77.0694 43.6837 76.9518C43.8013 76.8341 43.9608 76.7681 44.1272 76.7681C44.2935 76.7681 44.453 76.8341 44.5706 76.9518C44.6882 77.0694 44.7543 77.2289 44.7543 77.3952V82.9685C44.7543 83.1349 44.6882 83.2944 44.5706 83.412C44.453 83.5296 44.2935 83.5957 44.1272 83.5957Z" fill="#EFEFEF"/>
<path d="M48.6545 83.5246C48.4882 83.5246 48.3287 83.4585 48.211 83.3409C48.0934 83.2233 48.0273 83.0638 48.0273 82.8975V77.3241C48.0273 77.1578 48.0934 76.9983 48.211 76.8807C48.3287 76.7631 48.4882 76.697 48.6545 76.697C48.8208 76.697 48.9803 76.7631 49.098 76.8807C49.2156 76.9983 49.2817 77.1578 49.2817 77.3241V82.8975C49.2817 83.0638 49.2156 83.2233 49.098 83.3409C48.9803 83.4585 48.8208 83.5246 48.6545 83.5246Z" fill="#EFEFEF"/>
<path d="M52.3459 83.1065C52.1796 83.1065 52.0201 83.0404 51.9024 82.9228C51.7848 82.8052 51.7188 82.6457 51.7188 82.4794V77.6043C51.7188 77.4379 51.7848 77.2784 51.9024 77.1608C52.0201 77.0432 52.1796 76.9771 52.3459 76.9771C52.5122 76.9771 52.6718 77.0432 52.7894 77.1608C52.907 77.2784 52.9731 77.4379 52.9731 77.6043V82.4794C52.9731 82.5617 52.9568 82.6433 52.9253 82.7194C52.8938 82.7955 52.8476 82.8646 52.7894 82.9228C52.7311 82.9811 52.662 83.0273 52.5859 83.0588C52.5098 83.0903 52.4283 83.1065 52.3459 83.1065Z" fill="#EFEFEF"/>
<path d="M55.9709 83.3866C55.8046 83.3866 55.6451 83.3206 55.5274 83.2029C55.4098 83.0853 55.3438 82.9258 55.3438 82.7595V77.4621C55.3438 77.2958 55.4098 77.1363 55.5274 77.0186C55.6451 76.901 55.8046 76.835 55.9709 76.835C56.1372 76.835 56.2968 76.901 56.4144 77.0186C56.532 77.1363 56.5981 77.2958 56.5981 77.4621V82.7595C56.5981 82.9258 56.532 83.0853 56.4144 83.2029C56.2968 83.3206 56.1372 83.3866 55.9709 83.3866Z" fill="#EFEFEF"/>
<path d="M60.7092 83.2487C60.5429 83.2487 60.3833 83.1826 60.2657 83.065C60.1481 82.9474 60.082 82.7878 60.082 82.6215V77.3241C60.082 77.1578 60.1481 76.9983 60.2657 76.8807C60.3833 76.7631 60.5429 76.697 60.7092 76.697C60.8755 76.697 61.035 76.7631 61.1527 76.8807C61.2703 76.9983 61.3363 77.1578 61.3363 77.3241V82.6215C61.3363 82.7878 61.2703 82.9474 61.1527 83.065C61.035 83.1826 60.8755 83.2487 60.7092 83.2487Z" fill="#EFEFEF"/>
<path d="M64.2619 83.1065C64.0956 83.1065 63.9361 83.0404 63.8185 82.9228C63.7008 82.8052 63.6348 82.6457 63.6348 82.4794V77.7422C63.6348 77.5759 63.7008 77.4164 63.8185 77.2988C63.9361 77.1812 64.0956 77.1151 64.2619 77.1151C64.4283 77.1151 64.5878 77.1812 64.7054 77.2988C64.823 77.4164 64.8891 77.5759 64.8891 77.7422V82.4794C64.8891 82.6457 64.823 82.8052 64.7054 82.9228C64.5878 83.0404 64.4283 83.1065 64.2619 83.1065Z" fill="#EFEFEF"/>
<path d="M68.7229 82.9685C68.5565 82.9685 68.397 82.9025 68.2794 82.7848C68.1618 82.6672 68.0957 82.5077 68.0957 82.3414V77.6043C68.0957 77.4379 68.1618 77.2784 68.2794 77.1608C68.397 77.0432 68.5565 76.9771 68.7229 76.9771C68.8892 76.9771 69.0487 77.0432 69.1663 77.1608C69.2839 77.2784 69.35 77.4379 69.35 77.6043V82.3414C69.35 82.5077 69.2839 82.6672 69.1663 82.7848C69.0487 82.9025 68.8892 82.9685 68.7229 82.9685Z" fill="#EFEFEF"/>
<path d="M112.348 57.3262H71.9297V159.624H112.348V57.3262Z" fill="#EFEFEF"/>
<path d="M84.7539 61.5073H74.8574V71.4038H84.7539V61.5073Z" fill="#FEFEFE"/>
<path d="M96.8965 61.5073H87V71.4038H96.8965V61.5073Z" fill="#FEFEFE"/>
<path d="M108.729 61.5073H98.832V71.4038H108.729V61.5073Z" fill="#FEFEFE"/>
<path d="M84.7539 73.4943H74.8574V83.3908H84.7539V73.4943Z" fill="#FEFEFE"/>
<path d="M96.8965 73.4943H87V83.3908H96.8965V73.4943Z" fill="#FEFEFE"/>
<path d="M108.729 73.4943H98.832V83.3908H108.729V73.4943Z" fill="#FEFEFE"/>
<path d="M84.7539 85.3392H74.8574V95.2357H84.7539V85.3392Z" fill="#FEFEFE"/>
<path d="M96.8965 85.3392H87V95.2357H96.8965V85.3392Z" fill="#FEFEFE"/>
<path d="M108.729 85.3392H98.832V95.2357H108.729V85.3392Z" fill="#FEFEFE"/>
<path d="M84.7539 97.3262H74.8574V107.223H84.7539V97.3262Z" fill="#FEFEFE"/>
<path d="M96.8965 97.3262H87V107.223H96.8965V97.3262Z" fill="#FEFEFE"/>
<path d="M108.729 97.3262H98.832V107.223H108.729V97.3262Z" fill="#FEFEFE"/>
<path d="M84.7539 109.309H74.8574V119.206H84.7539V109.309Z" fill="#FEFEFE"/>
<path d="M96.8965 109.309H87V119.206H96.8965V109.309Z" fill="#FEFEFE"/>
<path d="M108.729 109.309H98.832V119.206H108.729V109.309Z" fill="#FEFEFE"/>
<path d="M84.7539 121.158H74.8574V131.055H84.7539V121.158Z" fill="#FEFEFE"/>
<path d="M96.8965 121.158H87V131.055H96.8965V121.158Z" fill="#FEFEFE"/>
<path d="M108.729 121.158H98.832V131.055H108.729V121.158Z" fill="#FEFEFE"/>
<path d="M203.412 43.2487H157.434V159.62H203.412V43.2487Z" fill="#EFEFEF"/>
<path d="M172.017 48.0067H160.762V59.262H172.017V48.0067Z" fill="#FEFEFE"/>
<path d="M185.83 48.0067H174.574V59.262H185.83V48.0067Z" fill="#FEFEFE"/>
<path d="M199.292 48.0067H188.037V59.262H199.292V48.0067Z" fill="#FEFEFE"/>
<path d="M172.017 61.6411H160.762V72.8964H172.017V61.6411Z" fill="#FEFEFE"/>
<path d="M185.83 61.6411H174.574V72.8964H185.83V61.6411Z" fill="#FEFEFE"/>
<path d="M199.292 61.6411H188.037V72.8964H199.292V61.6411Z" fill="#FEFEFE"/>
<path d="M172.017 75.1165H160.762V86.3719H172.017V75.1165Z" fill="#FEFEFE"/>
<path d="M185.83 75.1165H174.574V86.3719H185.83V75.1165Z" fill="#FEFEFE"/>
<path d="M199.292 75.1165H188.037V86.3719H199.292V75.1165Z" fill="#FEFEFE"/>
<path d="M172.017 88.7551H160.762V100.01H172.017V88.7551Z" fill="#FEFEFE"/>
<path d="M185.83 88.7551H174.574V100.01H185.83V88.7551Z" fill="#FEFEFE"/>
<path d="M199.292 88.7551H188.037V100.01H199.292V88.7551Z" fill="#FEFEFE"/>
<path d="M172.017 102.389H160.762V113.645H172.017V102.389Z" fill="#FEFEFE"/>
<path d="M185.83 102.389H174.574V113.645H185.83V102.389Z" fill="#FEFEFE"/>
<path d="M199.292 102.389H188.037V113.645H199.292V102.389Z" fill="#FEFEFE"/>
<path d="M172.017 115.865H160.762V127.12H172.017V115.865Z" fill="#FEFEFE"/>
<path d="M185.83 115.865H174.574V127.12H185.83V115.865Z" fill="#FEFEFE"/>
<path d="M199.292 115.865H188.037V127.12H199.292V115.865Z" fill="#FEFEFE"/>
<path d="M250.897 157.88V171.096H51.043V153.21H249.592C250.227 154.704 250.666 156.274 250.897 157.88Z" fill="#F9154A"/>
<path d="M113.595 153.937C113.601 160.03 111.818 165.991 108.469 171.08H56.1807C52.831 165.991 51.0487 160.03 51.0547 153.937C51.0547 153.691 51.0547 153.448 51.0547 153.21C51.2436 145.044 54.6202 137.276 60.4623 131.568C66.3044 125.859 74.1482 122.663 82.3163 122.663C90.4844 122.663 98.3283 125.859 104.17 131.568C110.013 137.276 113.389 145.044 113.578 153.21C113.59 153.448 113.595 153.691 113.595 153.937Z" fill="#F9154A"/>
<path d="M178.008 148.473C178.024 156.514 175.672 164.382 171.248 171.096H102.319C97.8984 164.38 95.5488 156.513 95.5626 148.473C95.5626 148.151 95.5626 147.829 95.5626 147.515C95.8279 136.761 100.286 126.537 107.986 119.024C115.686 111.512 126.018 107.307 136.775 107.307C147.533 107.307 157.864 111.512 165.564 119.024C173.264 126.537 177.722 136.761 177.988 147.515C178.004 147.829 178.008 148.151 178.008 148.473Z" fill="#F9154A"/>
<path d="M226.295 156.927C226.303 161.963 224.832 166.89 222.063 171.096H178.882C176.114 166.89 174.642 161.963 174.65 156.927C174.65 156.722 174.65 156.509 174.65 156.325C174.822 149.591 177.617 143.191 182.44 138.489C187.263 133.787 193.733 131.156 200.468 131.156C207.204 131.156 213.673 133.787 218.496 138.489C223.32 143.191 226.115 149.591 226.286 156.325C226.29 156.521 226.295 156.722 226.295 156.927Z" fill="#F9154A"/>
<path d="M251.091 160.636C251.092 161.553 251.026 162.47 250.895 163.378C250.5 166.135 249.501 168.771 247.968 171.096H216.092C214.049 167.994 212.963 164.359 212.969 160.644C212.969 160.493 212.969 160.347 212.969 160.201C213.068 155.84 214.659 151.645 217.477 148.315C220.295 144.986 224.17 142.724 228.455 141.906C232.739 141.088 237.175 141.764 241.021 143.821C244.867 145.878 247.892 149.192 249.591 153.21C250.226 154.704 250.664 156.274 250.895 157.88C251.006 158.646 251.07 159.418 251.087 160.192C251.091 160.339 251.091 160.485 251.091 160.636Z" fill="#F9154A"/>
<path d="M99.6969 164.499V171.092H0V162.174H99.0446C99.1946 162.528 99.3231 162.891 99.4293 163.261C99.51 163.536 99.5756 163.815 99.6258 164.097C99.6634 164.231 99.6634 164.365 99.6969 164.499Z" fill="#F9154A"/>
<path d="M31.199 162.538C31.199 162.78 31.199 163.023 31.199 163.261C31.199 163.5 31.1698 163.821 31.1405 164.097C31.0684 164.852 30.9398 165.599 30.7558 166.334C30.614 166.901 30.4409 167.459 30.2374 168.007C29.8318 169.093 29.3044 170.129 28.6653 171.096H2.55891C1.92293 170.128 1.39704 169.092 0.991021 168.007C0.78561 167.46 0.612495 166.901 0.472572 166.334C0.287201 165.599 0.157226 164.852 0.0837367 164.097C0.0544695 163.821 0.0335629 163.541 0.0252009 163.261C0.0168388 162.981 0.0252009 162.78 0.0252009 162.538C0.0252009 162.417 0.0252009 162.291 0.0252009 162.174C0.0416141 161.433 0.111479 160.694 0.234253 159.962C0.255158 159.824 0.280244 159.682 0.309512 159.544C1.00442 155.995 2.91132 152.797 5.70393 150.498C8.49653 148.199 12.0012 146.942 15.6184 146.942C19.2355 146.942 22.7402 148.199 25.5328 150.498C28.3254 152.797 30.2324 155.995 30.9273 159.544C30.9565 159.682 30.9816 159.824 31.0025 159.962C31.1253 160.694 31.1952 161.433 31.2116 162.174C31.199 162.291 31.199 162.408 31.199 162.538Z" fill="#F9154A"/>
<path d="M63.334 159.812C63.3422 163.824 62.1702 167.75 59.9641 171.101H25.575C23.3689 167.75 22.197 163.824 22.2051 159.812C22.2051 159.653 22.2051 159.49 22.2051 159.331C22.3376 153.966 24.562 148.865 28.4033 145.118C32.2447 141.37 37.3987 139.272 42.7654 139.272C48.132 139.272 53.2861 141.37 57.1274 145.118C60.9688 148.865 63.1931 153.966 63.3256 159.331C63.3298 159.482 63.334 159.653 63.334 159.812Z" fill="#F9154A"/>
<path d="M87.426 164.026C87.4308 166.54 86.6949 168.999 85.3104 171.096H63.7696C62.3883 168.998 61.6541 166.539 61.6582 164.026C61.6582 163.926 61.6582 163.826 61.6582 163.729C61.719 160.354 63.1027 157.137 65.5115 154.771C67.9203 152.405 71.1616 151.08 74.5379 151.08C77.9142 151.08 81.1555 152.405 83.5643 154.771C85.9731 157.137 87.3568 160.354 87.4176 163.729C87.4218 163.826 87.426 163.926 87.426 164.026Z" fill="#F9154A"/>
<path d="M99.7922 165.879C99.7919 166.336 99.7598 166.793 99.696 167.246C99.4975 168.621 98.9978 169.936 98.2326 171.096H82.3447C81.324 169.548 80.7817 167.733 80.7852 165.879C80.7852 165.803 80.7852 165.728 80.7852 165.657C80.8585 163.184 81.8924 160.837 83.6674 159.114C85.4424 157.391 87.819 156.427 90.2929 156.427C92.7667 156.427 95.1433 157.391 96.9183 159.114C98.6933 160.837 99.7272 163.184 99.8005 165.657L99.7922 165.879Z" fill="#F9154A"/>
<path d="M279.999 162.174V171.096H180.307V164.499C180.328 164.361 180.348 164.227 180.378 164.081C180.428 163.796 180.495 163.516 180.57 163.244C180.678 162.875 180.808 162.512 180.959 162.157L279.999 162.174Z" fill="#F9154A"/>
<path d="M280.001 162.538C280.001 162.78 280.001 163.023 279.98 163.261C279.959 163.5 279.951 163.821 279.921 164.097C279.848 164.852 279.718 165.599 279.532 166.334C279.392 166.901 279.219 167.46 279.014 168.007C278.608 169.093 278.081 170.129 277.442 171.096H251.361C251.196 170.851 251.041 170.6 250.896 170.344C250.461 169.598 250.09 168.816 249.788 168.007C249.759 167.931 249.734 167.856 249.709 167.781C249.544 167.306 249.404 166.824 249.291 166.334C249.106 165.599 248.976 164.852 248.902 164.097C248.873 163.821 248.852 163.541 248.844 163.261C248.835 162.981 248.844 162.78 248.844 162.538C248.844 162.417 248.844 162.291 248.844 162.174C248.86 161.433 248.93 160.694 249.053 159.962C249.053 159.824 249.099 159.682 249.128 159.544C249.392 158.177 249.841 156.852 250.462 155.606C251.914 152.691 254.241 150.304 257.118 148.779C259.995 147.254 263.278 146.668 266.505 147.102C269.732 147.536 272.742 148.97 275.114 151.201C277.485 153.432 279.099 156.35 279.729 159.544C279.758 159.682 279.783 159.824 279.804 159.962C279.927 160.694 279.997 161.433 280.013 162.174C280.001 162.291 280.001 162.408 280.001 162.538Z" fill="#F9154A"/>
<path d="M216.67 159.812C216.662 163.824 217.834 167.75 220.04 171.101H254.425C256.632 167.75 257.806 163.824 257.799 159.812C257.799 159.653 257.799 159.49 257.799 159.331C257.69 153.95 255.477 148.827 251.633 145.06C247.79 141.293 242.622 139.183 237.241 139.183C231.859 139.183 226.692 141.293 222.848 145.06C219.005 148.827 216.791 153.95 216.683 159.331C216.67 159.482 216.67 159.653 216.67 159.812Z" fill="#F9154A"/>
<path d="M192.578 164.026C192.568 166.537 193.295 168.995 194.669 171.096H216.23C217.613 168.998 218.348 166.539 218.342 164.026V163.729C218.281 160.354 216.897 157.137 214.488 154.771C212.08 152.405 208.838 151.08 205.462 151.08C202.086 151.08 198.845 152.405 196.436 154.771C194.027 157.137 192.643 160.354 192.582 163.729C192.582 163.826 192.578 163.926 192.578 164.026Z" fill="#F9154A"/>
<path d="M180.212 165.879C180.21 166.336 180.242 166.793 180.308 167.246C180.503 168.622 181.001 169.937 181.767 171.096H197.655C198.676 169.548 199.218 167.733 199.215 165.879V165.657C199.162 163.483 198.367 161.393 196.961 159.735C195.555 158.076 193.623 156.949 191.487 156.542C189.351 156.135 187.14 156.472 185.222 157.497C183.305 158.521 181.796 160.172 180.948 162.174C180.629 162.919 180.41 163.702 180.295 164.503C180.24 164.885 180.208 165.271 180.199 165.657L180.212 165.879Z" fill="#F9154A"/>
<path d="M280 166.334H0V168.007H280V166.334Z" fill="#FF89A4"/>
<path opacity="0.5" d="M280 163.261H0V164.097H280V163.261Z" fill="#FF89A4"/>
<path d="M113.042 84.5615C113.042 90.7046 110.697 96.616 106.487 101.089C102.276 105.562 96.5173 108.26 90.3854 108.632H90.1847C89.7666 108.632 89.3485 108.661 88.9304 108.661C88.5834 108.661 88.2364 108.661 87.8935 108.64H87.6761C82.967 108.395 78.4331 106.774 74.6356 103.978C70.8381 101.183 67.9437 97.3352 66.3106 92.9115C64.6775 88.4878 64.3773 83.6823 65.4472 79.0898C66.5172 74.4973 68.9102 70.3192 72.3303 67.0728C75.7504 63.8264 80.0473 61.654 84.6893 60.8246C89.3313 59.9952 94.1146 60.5451 98.4473 62.4063C102.78 64.2674 106.472 67.3582 109.066 71.2961C111.66 75.2339 113.043 79.846 113.042 84.5615Z" fill="#2D3AAD"/>
<path d="M90.941 159.996C90.941 159.958 90.941 159.925 90.941 159.887L89.0428 77.1025C89.0417 77.0718 89.029 77.0426 89.0073 77.0209C88.9856 76.9992 88.9564 76.9865 88.9257 76.9855C88.91 76.9849 88.8943 76.9875 88.8796 76.9932C88.8649 76.9988 88.8515 77.0073 88.8402 77.0182C88.8289 77.0292 88.8199 77.0423 88.8137 77.0568C88.8076 77.0712 88.8044 77.0868 88.8044 77.1025L86.9062 159.887V159.996H90.941Z" fill="#1B193B"/>
<path d="M70.8477 86.79L89.8003 104.768H88.3955L106.955 87.9105C106.972 87.8958 106.993 87.8877 107.016 87.8877C107.038 87.8877 107.06 87.8958 107.076 87.9105C107.092 87.9262 107.1 87.9472 107.1 87.9691C107.1 87.991 107.092 88.012 107.076 88.0276L89.7878 106.186C89.7013 106.277 89.5977 106.351 89.4828 106.402C89.368 106.454 89.2441 106.482 89.1182 106.486C88.9924 106.489 88.8671 106.468 88.7496 106.423C88.632 106.378 88.5245 106.31 88.4331 106.223L88.3829 106.169L70.8477 86.79Z" fill="#1B193B"/>
<path d="M80.9863 82.0863L89.5533 89.6122H88.5206L96.8408 82.2578C96.8447 82.2526 96.8498 82.2483 96.8556 82.2454C96.8614 82.2425 96.8678 82.241 96.8743 82.241C96.8808 82.241 96.8872 82.2425 96.893 82.2454C96.8988 82.2483 96.9038 82.2526 96.9077 82.2578C96.9157 82.2663 96.9201 82.2775 96.9201 82.2891C96.9201 82.3008 96.9157 82.312 96.9077 82.3205L89.5533 90.6407C89.4938 90.7087 89.4215 90.7643 89.3405 90.8043C89.2595 90.8443 89.1714 90.8678 89.0813 90.8737C88.9912 90.8795 88.9008 90.8675 88.8153 90.8382C88.7298 90.809 88.651 90.7632 88.5833 90.7035L88.5206 90.6407L80.9863 82.0863Z" fill="#1B193B"/>
<path d="M68.5098 79.8913C68.6585 78.6378 68.9618 77.4076 69.4129 76.2287C69.8534 75.0374 70.4064 73.8908 71.0644 72.8044C72.3985 70.6028 74.1616 68.6919 76.2489 67.1851C76.5123 67.0012 76.7673 66.8046 77.0391 66.6332L77.8753 66.1231C78.1512 65.9601 78.4397 65.8179 78.7115 65.6632C78.9833 65.5085 79.2843 65.3747 79.577 65.2451C80.7365 64.7082 81.9466 64.288 83.1894 63.9908C85.6536 63.4114 88.1974 63.2489 90.7153 63.51V63.6563C88.2645 63.8355 85.8421 64.2928 83.4946 65.0193C81.1949 65.7501 79.032 66.8563 77.0934 68.2931C76.1386 69.0172 75.2399 69.8125 74.405 70.6721C73.5704 71.5439 72.7978 72.4729 72.0929 73.4525C70.6449 75.4475 69.4419 77.6092 68.5098 79.8913Z" fill="#62C7D3"/>
<path d="M88.9308 46.0082L81.823 36.6426C84.0506 32.0757 84.5091 26.846 83.1101 21.9612C81.7112 17.0763 78.5539 12.8821 74.2465 10.1867C69.9392 7.49128 64.7866 6.48544 59.7818 7.36298C54.7769 8.24053 50.274 10.9394 47.1406 14.9394C44.0072 18.9395 42.4651 23.9577 42.8116 29.0271C43.158 34.0964 45.3684 38.8582 49.0168 42.3948C52.6652 45.9314 57.4935 47.9926 62.5712 48.1811C67.6489 48.3697 72.6167 46.6722 76.5173 43.4159L88.9308 46.0082Z" fill="#FC542D"/>
<path d="M63.1874 15.2357L53.755 26.5245H51.2129L54.2149 22.9372L56.6859 19.9812L63.1874 12.217L69.6889 19.9812L72.1557 22.933L75.1619 26.5245H72.6156L63.1874 15.2357ZM72.1557 27.1308L63.1874 16.4273L54.2149 27.1475V37.9137H60.4864V29.9697H65.8423V37.9137H72.1348L72.1557 27.1308Z" fill="#FEFEFE"/>
<path d="M153.599 156.296L213.27 48.8429C213.328 48.7585 213.415 48.6982 213.514 48.6734C213.614 48.6486 213.718 48.6611 213.809 48.7085C213.9 48.7559 213.97 48.8349 214.006 48.9306C214.043 49.0263 214.043 49.1319 214.006 49.2276L159.151 159.218C158.776 159.956 158.124 160.515 157.338 160.774C156.552 161.033 155.696 160.971 154.956 160.601C154.215 160.232 153.651 159.584 153.386 158.801C153.121 158.017 153.176 157.16 153.54 156.417C153.557 156.375 153.577 156.335 153.599 156.296Z" fill="#1B193B"/>
<path d="M236.997 72.1811C249.74 59.4387 249.74 38.7793 236.997 26.0369C224.255 13.2946 203.596 13.2946 190.853 26.0369C178.111 38.7793 178.111 59.4387 190.853 72.181C203.596 84.9234 224.255 84.9234 236.997 72.1811Z" fill="#62C7D3"/>
<path d="M213.965 78.5074C213.409 78.5074 212.853 78.5074 212.293 78.4572C204.639 78.0077 197.469 74.5638 192.333 68.8702C187.198 63.1766 184.509 55.6906 184.849 48.0306C185.189 40.3706 188.529 33.152 194.149 27.9354C199.768 22.7188 207.215 19.9233 214.879 20.1532C222.543 20.3831 229.809 23.62 235.106 29.1641C240.402 34.7082 243.304 42.114 243.184 49.7806C243.064 57.4472 239.932 64.7586 234.464 70.1341C228.996 75.5097 221.633 78.5175 213.965 78.5074ZM213.894 22.2139C206.827 22.222 200.047 25.0112 195.02 29.9785C189.993 34.9458 187.123 41.692 187.031 48.7585C186.938 55.8251 189.631 62.6441 194.526 67.7412C199.421 72.8383 206.126 75.804 213.191 75.997C220.255 76.1901 227.112 73.5949 232.278 68.7727C237.444 63.9505 240.505 57.2886 240.799 50.2276C241.092 43.1666 238.595 36.2737 233.847 31.0393C229.098 25.8049 222.481 22.6496 215.425 22.2557C214.91 22.2264 214.4 22.2139 213.894 22.2139Z" fill="#FEFEFE"/>
<mask id="mask0_2429_1245" style="mask-type:luminance" maskUnits="userSpaceOnUse" x="185" y="20" width="58" height="58">
<path d="M233.829 69.0076C244.821 58.0156 244.821 40.194 233.829 29.202C222.837 18.2101 205.016 18.2101 194.024 29.2021C183.032 40.194 183.032 58.0156 194.024 69.0076C205.016 79.9996 222.837 79.9996 233.829 69.0076Z" fill="white"/>
</mask>
<g mask="url(#mask0_2429_1245)">
<path d="M218.23 75.9946L234.285 59.9394L199.164 24.8186L180.973 38.7415L218.23 75.9946Z" fill="#EFEFEF"/>
<path d="M178.443 40.6773L170.729 46.581V84.1518H182.18L202.049 64.2835L178.443 40.6773Z" fill="#DBD7D7"/>
<path d="M224.016 45.2096L253.358 15.867V15.7333H211.038L201.693 22.8828L224.016 45.2096Z" fill="#DBD7D7"/>
<path d="M253.358 74.5479V20.3324L226.248 47.4423L253.358 74.5479Z" fill="#EFEFEF"/>
<path d="M170.729 15.7333V42.6048L205.841 15.7333H170.729Z" fill="#DBD7D7"/>
<path d="M186.646 84.1518H221.918L204.282 66.5162L186.646 84.1518Z" fill="#EFEFEF"/>
<path d="M220.463 78.2272L226.383 84.1518H253.359V79.0133L236.518 62.1721L220.463 78.2272Z" fill="#DBD7D7"/>
<path d="M211.038 15.7333L201.693 22.8828L199.741 20.9303L197.508 23.163L199.16 24.8228L180.972 38.7415L179.739 37.5081L177.51 39.7408L178.447 40.6773L170.729 46.5768V42.6048L205.837 15.7333H211.038Z" fill="white"/>
<path d="M226.383 84.1518H221.918L204.282 66.5162L205.001 65.7928L202.773 63.5602L202.049 64.2835L178.447 40.6773L180.973 38.7415L218.23 75.9988L216.716 77.5081L218.949 79.7408L220.458 78.2272L226.383 84.1518Z" fill="white"/>
<path d="M253.359 74.5521V79.0133L236.518 62.1721L238.161 60.5289L235.928 58.3004L234.285 59.9394L199.16 24.8228L201.694 22.8828L224.016 45.2096L223.034 46.1921L225.267 48.4248L226.249 47.4423L253.359 74.5521Z" fill="white"/>
<path d="M197.508 23.163L199.164 24.8186L201.693 22.8828L199.74 20.9303L197.508 23.163Z" fill="white"/>
<path d="M253.358 15.8671V20.3324L226.248 47.4423L224.016 45.2096L253.358 15.8671Z" fill="white"/>
<path d="M224.014 45.2061L223.029 46.1906L225.261 48.4227L226.246 47.4382L224.014 45.2061Z" fill="white"/>
<path d="M234.285 59.9396L218.229 75.9961L220.461 78.2282L236.517 62.1717L234.285 59.9396Z" fill="white"/>
<path d="M218.228 75.9979L216.717 77.5087L218.949 79.7408L220.46 78.2301L218.228 75.9979Z" fill="white"/>
<path d="M235.929 58.2924L234.285 59.9362L236.517 62.1683L238.161 60.5246L235.929 58.2924Z" fill="white"/>
<path d="M204.281 66.5162L186.645 84.1518H182.18L202.048 64.2835L204.281 66.5162Z" fill="white"/>
<path d="M202.766 63.562L202.045 64.2834L204.277 66.5155L204.998 65.7941L202.766 63.562Z" fill="white"/>
</g>
<path d="M213.685 83.1232C213.041 83.1232 212.397 83.1232 211.749 83.0689C202.826 82.5638 194.461 78.5674 188.462 71.9436C182.462 65.3197 179.311 56.6008 179.689 47.6719C180.067 38.7431 183.944 30.3217 190.481 24.2286C197.019 18.1355 205.692 14.8603 214.626 15.1111C223.559 15.362 232.035 19.1187 238.22 25.569C244.406 32.0193 247.804 40.645 247.68 49.581C247.557 58.517 243.921 67.0454 237.56 73.3221C231.198 79.5989 222.622 83.1196 213.685 83.1232ZM213.605 17.8656C206.473 17.8757 199.561 20.3324 194.022 24.8253C188.483 29.3183 184.653 35.5755 183.172 42.552C181.691 49.5285 182.648 56.802 185.883 63.1579C189.119 69.5137 194.437 74.5671 200.95 77.4741C207.463 80.3811 214.775 80.9658 221.667 79.1304C228.559 77.2951 234.613 73.1509 238.817 67.3899C243.022 61.6289 245.122 54.5999 244.768 47.4767C244.414 40.3534 241.627 33.5672 236.873 28.2513C234.151 25.1925 230.85 22.7038 227.161 20.929C223.471 19.1542 219.466 18.1286 215.378 17.9116C214.784 17.8823 214.191 17.8656 213.605 17.8656Z" fill="#1B193B"/>
<path d="M237.964 27.2771C240.944 30.3952 243.248 34.0964 244.729 38.1478C246.215 42.2174 246.861 46.5462 246.626 50.8724C246.392 55.1986 245.283 59.4324 243.366 63.3177C241.445 67.1862 238.73 70.6057 235.396 73.3521C238.449 70.3852 240.935 66.8871 242.734 63.0292C246.343 55.2898 246.848 46.4619 244.147 38.361C242.795 34.3132 240.698 30.5539 237.964 27.2771Z" fill="white"/>
<path d="M212.016 38.6495C212.025 38.3764 211.995 38.1034 211.928 37.8384C211.605 36.043 210.594 34.4446 209.111 33.3827C207.627 32.3209 205.788 31.8795 203.984 32.1522C199.59 32.7417 196.964 37.2614 198.269 41.016C198.811 42.5484 199.469 44.037 200.238 45.4688C201.158 47.2207 202.149 48.9265 203.228 50.5864C203.717 51.4226 204.277 52.2254 204.8 53.0448C204.942 53.2706 205.005 53.2748 205.155 53.0448C206.568 50.9167 207.923 48.7551 209.156 46.5141C210.169 44.7612 211.009 42.9143 211.665 40.9993C211.958 40.2527 212.079 39.4493 212.016 38.6495ZM209.696 35.3967C209.775 35.3967 209.792 35.4803 209.796 35.5472C209.725 35.5472 209.662 35.5472 209.646 35.4468C209.638 35.4402 209.633 35.4307 209.632 35.4205C209.631 35.4103 209.635 35.4003 209.641 35.3925C209.648 35.3847 209.657 35.3799 209.668 35.3791C209.678 35.3784 209.688 35.3817 209.696 35.3883V35.3967ZM199.686 42.333C199.757 42.333 199.72 42.3706 199.732 42.3916L199.686 42.333ZM199.732 42.3957L199.774 42.4585C199.707 42.4668 199.745 42.4125 199.732 42.3874V42.3957ZM201.681 38.8168C201.68 38.1595 201.874 37.5167 202.239 36.97C202.604 36.4232 203.123 35.9971 203.73 35.7456C204.337 35.494 205.006 35.4284 205.65 35.5571C206.295 35.6857 206.887 36.0028 207.351 36.4682C207.815 36.9335 208.131 37.5262 208.258 38.1711C208.385 38.816 208.317 39.4841 208.064 40.0907C207.811 40.6974 207.384 41.2152 206.836 41.5787C206.288 41.9421 205.645 42.1348 204.988 42.1323C204.111 42.1225 203.273 41.7686 202.654 41.1469C202.036 40.5252 201.686 39.6854 201.681 38.8084V38.8168Z" fill="#FC542D"/>
<path d="M209.696 35.3883C209.689 35.385 209.682 35.3839 209.674 35.3852C209.666 35.3865 209.659 35.3902 209.654 35.3957C209.648 35.4012 209.644 35.4082 209.643 35.4159C209.642 35.4236 209.643 35.4315 209.646 35.4385C209.646 35.5179 209.726 35.5347 209.797 35.5388C209.793 35.4719 209.776 35.405 209.696 35.3883Z" fill="#004CAD"/>
<path d="M199.686 42.3247L199.732 42.3832C199.719 42.3623 199.757 42.3037 199.686 42.3247Z" fill="#004CAD"/>
<path d="M199.774 42.4501L199.732 42.3874C199.745 42.4125 199.707 42.4668 199.774 42.4501Z" fill="#004CAD"/>
<path d="M232.52 9.96342C232.534 9.54112 232.489 9.11894 232.386 8.7091C231.89 5.99303 230.357 3.57631 228.112 1.96981C225.866 0.363299 223.084 -0.307091 220.353 0.100344C213.684 0.990906 209.696 7.85617 211.678 13.5633C212.502 15.8892 213.501 18.1493 214.667 20.324C216.063 22.979 217.569 25.5754 219.203 28.0924C219.952 29.3467 220.796 30.601 221.595 31.8261C221.812 32.1689 221.904 32.1773 222.134 31.8261C224.279 28.5941 226.336 25.312 228.205 21.917C229.689 19.2202 231.103 16.4817 232.039 13.5549C232.468 12.4092 232.632 11.1815 232.52 9.96342ZM228.995 5.02143C229.117 5.05069 229.142 5.14686 229.15 5.25557C229.041 5.25557 228.945 5.21794 228.92 5.09669C228.918 5.08631 228.918 5.0755 228.921 5.06526C228.924 5.05503 228.929 5.0457 228.937 5.03818C228.944 5.03065 228.954 5.02516 228.964 5.02223C228.974 5.0193 228.985 5.01902 228.995 5.02143ZM213.806 15.5535C213.91 15.5242 213.856 15.612 213.873 15.6454L213.806 15.5535ZM213.873 15.6496L213.939 15.7416C213.831 15.7667 213.889 15.6831 213.868 15.6538L213.873 15.6496ZM216.829 10.2143C216.824 9.21606 217.117 8.23911 217.669 7.40739C218.221 6.57568 219.008 5.92669 219.929 5.54277C220.85 5.15886 221.865 5.05732 222.844 5.25106C223.824 5.44479 224.723 5.92505 225.429 6.63091C226.135 7.33676 226.615 8.23639 226.809 9.21564C227.003 10.1949 226.901 11.2096 226.517 12.1311C226.133 13.0525 225.484 13.8392 224.653 14.3912C223.821 14.9432 222.844 15.2357 221.846 15.2315C220.518 15.2228 219.247 14.6921 218.308 13.7541C217.368 12.8161 216.835 11.5461 216.824 10.2185L216.829 10.2143Z" fill="#FFDA08"/>
<path d="M228.995 5.02143C228.984 5.01902 228.974 5.0193 228.963 5.02223C228.953 5.02516 228.944 5.03065 228.936 5.03817C228.929 5.0457 228.923 5.05502 228.92 5.06526C228.917 5.0755 228.917 5.08631 228.92 5.09668C228.945 5.21793 229.041 5.2472 229.15 5.25556C229.141 5.14686 229.116 5.05069 228.995 5.02143Z" fill="#FEFEFE"/>
<path d="M213.807 15.5535L213.874 15.6454C213.853 15.612 213.907 15.5242 213.807 15.5535Z" fill="#FEFEFE"/>
<path d="M213.936 15.7416C213.936 15.7123 213.894 15.6789 213.869 15.6496C213.89 15.6831 213.832 15.7667 213.936 15.7416Z" fill="#FEFEFE"/>
<path d="M104.819 67.043L97.7735 53.534L94.8008 53.7473L101.306 72.6623L104.819 67.043Z" fill="#F58C62"/>
<path d="M113.741 54.5584C112.436 55.428 104.509 65.1949 104.509 65.1949L98.3087 54.5375C98.0327 54.688 93.998 57.991 93.998 57.991L101.306 72.6246C101.871 74.272 104.89 75.8942 107.231 74.0546C108.163 73.5946 118.286 61.6076 118.286 61.6076C118.286 61.6076 115.639 53.2832 113.741 54.5584Z" fill="#EDB200"/>
<path d="M96.988 52.2546L96.7371 47.9356C96.7319 47.8386 96.7064 47.7438 96.662 47.6573C96.6177 47.5709 96.5556 47.4948 96.4798 47.434C96.404 47.3732 96.3163 47.3291 96.2223 47.3046C96.1283 47.2801 96.0301 47.2757 95.9343 47.2917L93.0076 47.7851C92.9073 47.8043 92.8174 47.8595 92.755 47.9404C92.6926 48.0213 92.662 48.1222 92.6689 48.2241L93.1247 53.4671C93.1325 53.5654 93.1613 53.6608 93.2092 53.747C93.257 53.8332 93.3228 53.9081 93.402 53.9668C93.4812 54.0254 93.5721 54.0664 93.6685 54.0869C93.7649 54.1075 93.8646 54.1071 93.9609 54.0859L96.4486 53.6009C96.6062 53.5708 96.7483 53.4867 96.8506 53.363C96.9528 53.2394 97.0088 53.084 97.0089 52.9236V52.2546H96.988Z" fill="#1B193B"/>
<path d="M96.3059 53.0741L96.2181 47.8102L93.1074 48.1781L93.6384 53.5215L96.3059 53.0741Z" fill="#FEFEFE"/>
<path d="M92.5556 49.5662C92.6643 49.5662 94.989 49.6457 94.9639 50.2059C94.9388 50.7662 92.6894 50.3648 92.3633 50.2812C92.0372 50.1976 91.9076 49.5453 92.5556 49.5662Z" fill="#F58C62"/>
<path d="M92.4933 50.4777C92.5978 50.4777 94.3664 50.5237 94.45 50.8958C94.5337 51.2679 93.0619 51.2721 92.4515 51.1885C91.8411 51.1048 92.1379 50.5153 92.4933 50.4777Z" fill="#F58C62"/>
<path d="M92.7268 51.3014C92.7268 51.3014 94.1441 51.1132 94.1985 51.3933C94.2529 51.6735 92.8815 51.9996 92.4843 51.8114C92.0871 51.6233 92.3212 51.2972 92.7268 51.3014Z" fill="#F58C62"/>
<path d="M92.8357 51.987C92.8357 51.987 94.0357 51.8282 94.09 52.0665C94.1444 52.3048 92.9778 52.5807 92.6434 52.4219C92.3089 52.263 92.4928 51.9829 92.8357 51.987Z" fill="#F58C62"/>
<path d="M97.6357 53.8267C97.6357 53.8267 98.6977 52.8901 98.6391 52.1543C98.5806 51.4184 97.4894 50.9 97.0838 50.139C96.8544 49.7597 96.7263 49.3278 96.7117 48.8847C96.7117 48.8847 95.9047 49.5495 96.2518 50.2101C96.5031 50.678 96.7823 51.1304 97.088 51.5648C97.088 51.5648 95.8797 52.2839 96.2267 53.5507C96.5737 54.8176 97.6357 53.8267 97.6357 53.8267Z" fill="#F58C62"/>
<path d="M107.252 65.3036L104.848 82.2369C106.875 83.0982 108.255 83.0145 109.447 82.655L109.133 70.4254L107.252 65.3036Z" fill="#FFDA08"/>
<path d="M118.549 51.4519C112.842 51.5062 108.41 55.1228 108.41 55.1228L110.204 58.9986C110.233 59.0781 105.881 62.6989 105.881 62.6989C105.881 62.6989 108.084 70.6428 108.573 73.5696C109.369 70.1243 110.376 66.7312 111.588 63.4096C112.863 60.1108 114.565 56.9458 116.94 54.3242C117.613 53.58 118.361 52.8525 118.7 51.9076" fill="#FFDA08"/>
<path d="M110.806 61.8543C110.806 61.8543 108.82 67.6576 108.611 73.3521C108.401 79.0467 108.088 82.9184 108.088 82.9184L109.447 82.655L112.06 63.7859L110.806 61.8543Z" fill="#FFDA08"/>
<path d="M110.542 76.0531L103.43 156.797L107.945 157.55L130.468 78.8L110.542 76.0531Z" fill="#FEA574"/>
<path d="M128.613 85.8242L121.739 112.165L121.568 112.83L120.184 118.135L120.029 118.733L118.449 124.783L118.307 125.339L116.634 131.728L116.484 132.305L114.552 139.718L114.402 140.295L113.068 145.408L112.917 145.989L111.738 150.526C111.446 150.488 111.153 150.451 110.86 150.421C109.789 150.045 108.673 149.809 107.541 149.719L107.373 149.664C107.273 149.624 107.16 149.624 107.06 149.664C105.693 149.547 104.309 149.518 103 149.376L103.075 148.481C103.075 148.331 103.075 148.18 103.075 148.026C102.824 128.885 105.212 107.507 107.173 93.3919C108.03 87.2207 108.807 82.4375 109.263 79.8328C109.502 78.4154 109.644 77.6419 109.644 77.6419L112.207 78.9547L116.041 80.8738L116.329 81.016C116.329 81.016 116.225 81.8104 116.041 83.2278C115.919 84.1309 115.765 85.2848 115.585 86.6437L116.041 86.6144L128.613 85.8242Z" fill="#DBD7D7"/>
<path d="M109.326 80.439L129.675 158.9L134.182 158.098L129.023 76.3541L109.326 80.439Z" fill="#FEA574"/>
<path d="M131.289 77.9638L128.559 78.3778L131.368 78.6453L131.289 77.9638Z" fill="#EFEFEF"/>
<path d="M135.203 148.423L135.173 147.821L134.885 141.445L134.86 140.855L134.538 133.927L134.509 133.317L134.116 125.197L134.086 124.587L133.802 118.44L133.777 117.83L133.43 110.25L133.397 109.614L133.112 103.226L133.079 102.599L132.769 95.8336L132.74 95.2273L132.414 88.1196L132.389 87.4673L132.105 84.9838C130.112 85.3732 128.101 85.6607 126.08 85.8451L130.88 150.233L130.461 150.275L123.149 86.05C120.776 86.1097 118.402 86.0175 116.041 85.774V96.0468L112.742 95.0852C112.742 95.1521 112.742 95.219 112.742 95.2859L112.805 95.5535C116.074 115.129 120.506 134.224 127.075 152.416L127.213 152.955L127.388 153.67L135.424 153.135L135.203 148.423Z" fill="#EFEFEF"/>
<path d="M124.227 85.9998C123.868 86.0249 123.508 86.0416 123.148 86.05L130.457 150.304L130.875 150.262L126.075 85.8744C125.481 85.8953 124.867 85.958 124.227 85.9998Z" fill="#FC542D"/>
<path d="M110.22 84.9545L110.429 81.7142L109.029 81.1414C108.573 83.8967 107.9 88.153 107.168 93.4211C107.556 93.622 107.971 93.763 108.401 93.8392L111.073 94.6211L111.583 94.7674L112.725 95.1019C112.821 92.6936 113.933 88.8638 115.007 85.6778C112.206 85.3434 110.22 84.9545 110.22 84.9545Z" fill="#EFEFEF"/>
<path d="M116.023 85.774L115.007 85.6611C113.933 88.8471 112.821 92.6769 112.725 95.0852L116.023 96.0468V85.774Z" fill="#EFEFEF"/>
<path d="M123.149 86.05L122.731 82.287L125.8 81.9944L126.088 85.866C128.11 85.6816 130.121 85.3941 132.113 85.0047L131.382 78.6537L128.572 78.3819L117.049 80.1171C117.049 80.1171 116.631 81.1791 116.037 82.7804V85.7824C118.4 86.0233 120.775 86.1126 123.149 86.05Z" fill="#DBD7D7"/>
<path d="M122.717 82.2787L123.135 86.0416C123.494 86.0416 123.854 86.0249 124.214 85.9914C124.853 85.9496 125.468 85.9036 126.062 85.8493L125.773 81.9776L122.717 82.2787Z" fill="#ED4224"/>
<path d="M110.221 84.9545C110.221 84.9545 112.194 85.3434 115.008 85.6611C115.364 84.6033 115.715 83.6124 116.024 82.772V78.2649L112.566 78.8878L112.19 78.9547L112.035 78.984L109.435 79.4523C109.372 79.5903 109.305 79.7282 109.243 79.8704C109.176 80.2523 109.105 80.6787 109.029 81.1498L110.43 81.7226L110.221 84.9545Z" fill="#DBD7D7"/>
<path d="M116.024 85.774V82.772C115.714 83.6082 115.363 84.6033 115.008 85.6611L116.024 85.774Z" fill="#DBD7D7"/>
<path d="M107.784 159.038L102.741 157.416C102.106 157.416 95.7047 157.245 95.2155 157.976C94.7263 158.708 106.922 162.734 106.922 162.734L107.784 159.038Z" fill="#FC542D"/>
<path d="M108.426 156.325L103.071 155.597L102.74 157.416L107.783 159.038L108.426 156.325Z" fill="#FEFEFE"/>
<path d="M134.53 159.553L129.236 159.712C128.63 159.912 122.547 161.911 122.325 162.768C122.104 163.625 134.939 163.328 134.939 163.328L134.53 159.553Z" fill="#FC542D"/>
<path d="M134.229 156.781L128.936 157.889L129.237 159.716L134.53 159.557L134.229 156.781Z" fill="#FEFEFE"/>
<path d="M127.363 55.2692C126.234 54.7423 125.122 54.1821 123.993 53.6636C123.923 53.6316 123.861 53.5861 123.809 53.5298C123.671 53.5006 123.529 53.4671 123.391 53.442C123.326 53.4323 123.266 53.4024 123.22 53.3566C123.173 53.3108 123.142 53.2514 123.132 53.187C122.814 53.1536 122.5 53.1201 122.17 53.1034H122.04C121.731 53.1326 121.539 53.1619 121.539 53.1619L120.886 53.0741C119.267 53.0914 117.653 53.2721 116.07 53.6135C116.07 53.6135 110.789 59.8098 110.513 60.8341C109.677 62.7449 111.253 64.158 111.253 64.158C111.253 64.158 108.841 74.2636 108.598 76.9938L108.498 78.1645C108.606 78.3794 108.728 78.5875 108.862 78.7875C110.066 80.4599 112.299 80.8529 114.226 80.9909C117.441 81.225 120.703 81.1665 123.93 81.3212C126.552 81.4425 129.244 81.4383 130.867 79.3394C129.8 70.5425 128.304 59.2035 127.363 55.2692Z" fill="#FEFEFE"/>
<path d="M133.279 82.1323L127.94 57.0085C127.413 56.3437 126.932 55.6245 126.351 55.0058L122.617 56.3144C119.202 56.1681 116.283 62.6863 113.344 68.9286C112.06 70.53 111.253 82.0654 111.433 82.3414C112.478 83.8926 133.948 83.6333 133.279 82.1323Z" fill="#EDB200"/>
<path d="M136.176 149.183L125.248 149.734L125.462 153.981L136.39 153.429L136.176 149.183Z" fill="#E8DAE4"/>
<path d="M112.964 149.29L102.182 147.427L101.458 151.618L112.24 153.48L112.964 149.29Z" fill="#EFEFEF"/>
<path d="M121.426 54.0734C121.667 53.6613 121.984 53.2982 122.359 53.003L121.669 52.9152C119.78 52.91 117.897 53.1432 116.066 53.6093C117.643 54.3786 119.532 54.4079 121.426 54.0734Z" fill="#FEA574"/>
<path d="M121.425 53.0867L120.848 53.1452L117.955 53.4713L117.976 52.3006L117.997 51.1132L118.047 48.4499L120.539 46.8736L121.204 51.5188L121.425 53.0867Z" fill="#FEA574"/>
<path d="M121.33 50.44C120.844 50.7407 120.297 50.9292 119.729 50.9919C117.413 51.2512 116.48 51.1843 116.029 50.4191C115.856 50.089 115.745 49.7308 115.698 49.3613C115.611 48.8889 115.552 48.3077 115.477 47.5928C115.419 47.0758 115.467 46.5526 115.617 46.0546C115.767 45.5566 116.017 45.0942 116.351 44.6953C116.485 44.535 116.632 44.3854 116.79 44.2479C117.373 43.7472 118.095 43.4352 118.859 43.3532C119.732 43.2483 120.614 43.4454 121.359 43.9119C122.105 44.3783 122.667 45.0859 122.954 45.9168C123.241 46.7477 123.235 47.6518 122.936 48.4786C122.638 49.3054 122.065 50.005 121.314 50.461L121.33 50.44Z" fill="#FEA574"/>
<path d="M115.552 47.0032L114.348 48.822L115.966 49.0394L115.573 47.0827" fill="#FEA574"/>
<path d="M120.15 46.9113C120.188 46.9113 121.062 45.7615 121.639 46.9113C122.216 48.061 121.279 49.1607 120.209 48.8554" fill="#FEA574"/>
<path d="M118.131 46.6311C118.102 46.6306 118.073 46.6234 118.047 46.6102C116.931 45.9204 116.291 46.4221 116.266 46.443C116.233 46.4632 116.194 46.4709 116.157 46.4647C116.119 46.4585 116.084 46.4387 116.06 46.4092C116.035 46.3796 116.023 46.3422 116.023 46.3038C116.024 46.2655 116.039 46.2288 116.065 46.2005C116.099 46.1754 116.901 45.5315 118.21 46.3426C118.245 46.3643 118.27 46.3986 118.28 46.4383C118.29 46.4781 118.285 46.5202 118.264 46.5559C118.25 46.5787 118.231 46.5976 118.207 46.6107C118.184 46.6239 118.158 46.6309 118.131 46.6311Z" fill="#1B193B"/>
<path d="M121.329 50.4401L121.229 50.4777C121.111 50.2147 121.051 49.9296 121.053 49.6415C121.046 49.5399 121.067 49.4383 121.116 49.3488C121.186 49.2628 121.277 49.1953 121.379 49.1523C121.595 49.0604 121.787 48.9227 121.944 48.7487C122.101 48.5746 122.218 48.3685 122.287 48.1447C122.334 47.9094 122.292 47.6648 122.169 47.459C122.045 47.2532 121.849 47.101 121.619 47.0324C121.389 46.9637 121.142 46.9836 120.926 47.0881C120.709 47.1925 120.54 47.374 120.451 47.5969C120.351 47.8478 120.355 48.1363 120.229 48.3788C120.104 48.6213 119.736 48.7676 119.569 48.5586L119.987 46.2757C120.018 46.1864 120.018 46.0891 119.987 45.9998C119.961 45.955 119.927 45.9157 119.886 45.8841C119.845 45.8525 119.799 45.8293 119.749 45.8158C119.432 45.6872 119.091 45.6274 118.749 45.6402C118.559 45.6653 118.367 45.6653 118.177 45.6402C118.082 45.6251 117.993 45.5814 117.924 45.5149C117.855 45.4485 117.807 45.3623 117.788 45.2681C117.788 45.1427 117.838 44.9963 117.758 44.896C117.73 44.8665 117.695 44.8431 117.657 44.8273C117.619 44.8115 117.578 44.8036 117.537 44.804C117.138 44.7457 116.736 44.7205 116.333 44.7288L116.462 44.6995H116.349H116.232C116.399 44.5351 116.588 44.3944 116.793 44.2814C117.888 43.6333 119.427 43.6375 120.878 43.7044C121.514 43.9917 122.059 44.4465 122.457 45.0202C122.854 45.594 123.088 46.2649 123.133 46.9613C123.178 47.6576 123.033 48.3532 122.713 48.9733C122.393 49.5935 121.91 50.115 121.317 50.4819L121.329 50.4401Z" fill="#1B193B"/>
<path d="M116.241 49.9383C116.057 49.9394 115.875 49.8979 115.71 49.8171C115.691 49.8086 115.674 49.7963 115.66 49.7811C115.646 49.7659 115.635 49.748 115.628 49.7285C115.621 49.709 115.618 49.6883 115.619 49.6676C115.621 49.6469 115.626 49.6266 115.635 49.608C115.654 49.5714 115.686 49.5435 115.725 49.5302C115.764 49.517 115.807 49.5194 115.844 49.5369C116.002 49.6016 116.172 49.6306 116.343 49.6219C116.513 49.6133 116.68 49.5671 116.831 49.4868C116.85 49.4788 116.87 49.4747 116.891 49.4746C116.911 49.4745 116.931 49.4784 116.95 49.4862C116.969 49.4939 116.987 49.5054 117.001 49.5198C117.016 49.5343 117.028 49.5515 117.036 49.5704C117.044 49.5893 117.048 49.6097 117.048 49.6302C117.048 49.6508 117.044 49.6711 117.036 49.6901C117.028 49.7092 117.017 49.7265 117.003 49.7411C116.988 49.7557 116.971 49.7673 116.952 49.7753C116.728 49.8768 116.487 49.9323 116.241 49.9383Z" fill="#F05E4A"/>
<path d="M116.659 47.1161C116.576 47.1161 116.496 47.1492 116.438 47.208C116.379 47.2668 116.346 47.3465 116.346 47.4297C116.346 47.5129 116.379 47.5926 116.438 47.6514C116.496 47.7102 116.576 47.7433 116.659 47.7433C116.742 47.7433 116.822 47.7102 116.881 47.6514C116.94 47.5926 116.973 47.5129 116.973 47.4297C116.973 47.3465 116.94 47.2668 116.881 47.208C116.822 47.1492 116.742 47.1161 116.659 47.1161Z" fill="#1B193B"/>
<path d="M121.363 48.6129C121.333 48.6139 121.302 48.6057 121.276 48.5893C121.25 48.5729 121.229 48.5491 121.217 48.521C121.201 48.482 121.201 48.4386 121.217 48.3997C121.233 48.3608 121.262 48.3293 121.301 48.3119C121.352 48.2897 121.398 48.2575 121.437 48.2171C121.476 48.1768 121.506 48.129 121.526 48.0768C121.545 48.0246 121.555 47.9689 121.553 47.913C121.551 47.8572 121.537 47.8023 121.514 47.7517C121.476 47.668 121.434 47.6179 121.388 47.6095C121.271 47.5886 121.087 47.7307 121.021 47.8018C121.006 47.8166 120.989 47.8284 120.97 47.8364C120.951 47.8444 120.93 47.8486 120.91 47.8486C120.889 47.8486 120.869 47.8444 120.85 47.8364C120.831 47.8284 120.813 47.8166 120.799 47.8018C120.77 47.7722 120.754 47.7324 120.754 47.691C120.754 47.6496 120.77 47.6099 120.799 47.5802C120.88 47.4885 120.981 47.4159 121.094 47.3675C121.207 47.3191 121.329 47.2961 121.451 47.3001C121.534 47.3195 121.61 47.3602 121.673 47.4181C121.735 47.476 121.781 47.5492 121.807 47.6304C121.848 47.7184 121.872 47.8139 121.876 47.9113C121.879 48.0087 121.863 48.1058 121.828 48.1966C121.792 48.2874 121.739 48.3701 121.671 48.4395C121.602 48.509 121.521 48.5637 121.43 48.6004L121.363 48.6129Z" fill="#F05E4A"/>
<path d="M117.86 47.5426H117.835L116.163 47.2792C116.122 47.272 116.085 47.2492 116.061 47.2156C116.037 47.182 116.027 47.1403 116.033 47.0994C116.04 47.0586 116.063 47.0223 116.097 46.9981C116.13 46.9739 116.172 46.9637 116.213 46.9698L117.885 47.2332C117.926 47.2394 117.962 47.2613 117.986 47.2942C118.011 47.3271 118.021 47.3683 118.015 47.4088C118.009 47.4457 117.99 47.4794 117.962 47.5039C117.934 47.5284 117.897 47.5421 117.86 47.5426Z" fill="#1B193B"/>
<path d="M121.454 46.443C120.519 46.8602 119.46 46.9036 118.494 46.5642C118.583 46.7098 118.635 46.8749 118.645 47.0451C117.767 46.8299 116.997 46.3023 116.479 45.5608C116.42 45.4772 116.299 45.3768 116.228 45.4563C116.216 45.4809 116.209 45.5081 116.209 45.5357C116.209 45.5633 116.216 45.5905 116.228 45.6151C116.295 45.8827 116.358 46.1503 116.425 46.4179C116.042 46.1969 115.724 45.8786 115.504 45.4954C115.284 45.1121 115.169 44.6774 115.17 44.2354C115.164 43.9556 115.238 43.6798 115.384 43.441C115.633 43.1229 115.99 42.906 116.387 42.8306C117.039 42.6959 117.704 42.6384 118.369 42.6591C119.205 42.6591 120.041 42.6341 120.898 42.6341C121.657 42.6684 122.386 42.9434 122.978 43.4192C123.57 43.895 123.996 44.5469 124.193 45.2807C124.193 45.2807 124.653 48.0778 124.507 48.8596C124.264 50.1474 119.874 51.4728 119.724 51.1048L121.099 49.353L122.128 48.8847L122.834 48.1279L122.521 46.8736L121.454 46.443Z" fill="#1B193B"/>
<path d="M118.516 59.8516L120.189 63.2842L112.09 73.9459C112.09 73.9459 114.569 59.9227 119.469 56.0761C122.175 52.9989 121.426 53.0867 121.426 53.0867L121.205 51.5188C122.193 51.5 123.163 51.7894 123.98 52.3468C124.796 52.9042 125.419 53.702 125.762 54.6295L118.516 59.8516Z" fill="#FFDA08"/>
<path d="M133.781 74.6274L115.309 71.3327L114.523 73.7702C114.523 73.7702 131.085 83.1191 136.394 81.317C137.774 79.7491 133.781 74.6274 133.781 74.6274Z" fill="#FEA574"/>
<path d="M124.398 54.3075C120.635 55.5116 121.672 58.752 122.399 62.7407C122.471 63.2115 122.585 63.6748 122.742 64.1246C122.933 64.7253 123.172 65.3097 123.457 65.8723C124.787 68.4993 126.325 71.0159 128.056 73.3981C123.607 72.6163 118.226 71.8679 118.226 71.8679L117.516 77.4119C117.516 77.4119 132.124 83.1274 136.443 81.6348C137.325 80.9449 137.367 79.8578 137.413 79.4523C137.823 75.727 129.954 52.3759 124.398 54.3075Z" fill="#FFDA08"/>
<path d="M115.811 72.0978C115.811 72.0978 114.009 69.5474 113.766 69.3843C113.613 69.2871 113.439 69.227 113.258 69.2088C113.077 69.1907 112.895 69.215 112.725 69.2798C112.236 69.4178 110.292 70.4965 109.798 70.4589C109.305 70.4212 109.727 70.9481 110.91 70.7724C112.094 70.5968 112.775 69.9362 113.064 70.2874C113.122 70.3794 111.224 71.2575 111.362 71.571C111.5 71.8846 111.951 72.7877 112.679 72.6497C113.406 72.5118 113.478 72.1606 113.478 72.1606C113.396 72.3411 113.351 72.5363 113.346 72.7346C113.341 72.9328 113.376 73.13 113.448 73.3145C113.724 73.7953 114.799 73.8622 114.799 73.8622L115.811 72.0978Z" fill="#FEA574"/>
<path d="M113.198 71.408C113.198 71.408 111.944 72.5452 112.111 72.8671C112.278 73.1891 112.784 73.7953 113.177 73.7034C113.57 73.6114 113.152 73.2184 113.152 73.2184L112.784 72.8964L113.779 72.0142L113.198 71.408Z" fill="#FEA574"/>
<path d="M112.399 72.5954L113.653 71.7592C113.871 71.6087 113.653 71.2449 113.44 71.3954L112.186 72.2316C111.964 72.3863 112.186 72.7459 112.395 72.5954H112.399Z" fill="#F05E4A"/>
<path d="M111.926 71.8428L113.272 71.0066C113.502 70.8644 113.293 70.5049 113.063 70.647L111.713 71.4832C111.487 71.6254 111.713 71.9891 111.926 71.847V71.8428Z" fill="#F05E4A"/>
<path d="M118.479 59.793L125.587 54.9221C125.609 54.9027 125.635 54.8882 125.663 54.8796C125.691 54.871 125.721 54.8685 125.751 54.8722C125.78 54.876 125.808 54.8859 125.833 54.9013C125.858 54.9167 125.88 54.9373 125.897 54.9617C125.913 54.9861 125.925 55.0137 125.93 55.0428C125.935 55.0719 125.934 55.1018 125.927 55.1304C125.92 55.1591 125.907 55.1859 125.888 55.2091C125.87 55.2323 125.847 55.2513 125.821 55.265L118.554 59.9059C118.54 59.9183 118.522 59.9251 118.504 59.9251C118.485 59.9251 118.468 59.9183 118.454 59.9059C118.446 59.8975 118.441 59.8874 118.438 59.8765C118.435 59.8655 118.435 59.8541 118.437 59.843C118.44 59.832 118.445 59.8217 118.452 59.813C118.459 59.8043 118.468 59.7975 118.479 59.793Z" fill="#EDB200"/>
<path d="M120.707 80.0418H120.682C120.627 80.0345 120.577 80.0058 120.543 79.9619C120.51 79.918 120.495 79.8625 120.502 79.8077L121.476 71.7926C121.483 71.7372 121.511 71.6866 121.555 71.6521C121.599 71.6176 121.655 71.602 121.71 71.6087C121.766 71.6153 121.816 71.6437 121.851 71.6876C121.885 71.7315 121.901 71.7873 121.894 71.8428L120.92 79.8578C120.913 79.9092 120.887 79.9562 120.848 79.99C120.809 80.0239 120.758 80.0423 120.707 80.0418Z" fill="#EDB200"/>
<path d="M125.489 55.4698C126.112 56.3479 126.635 57.2133 127.162 58.1123C127.688 59.0112 128.157 59.9143 128.604 60.8383C129.503 62.6784 130.296 64.5686 130.979 66.4994C131.656 68.4227 132.272 70.3627 132.827 72.3194C133.375 74.2762 133.876 76.2454 134.236 78.2607C134.241 78.2879 134.241 78.3159 134.236 78.3431C134.23 78.3703 134.22 78.3961 134.204 78.4191C134.188 78.442 134.168 78.4617 134.145 78.4768C134.122 78.492 134.096 78.5024 134.069 78.5074C134.04 78.5117 134.01 78.5117 133.981 78.5074L121.3 75.5096C121.273 75.5037 121.247 75.4925 121.225 75.4765C121.203 75.4606 121.184 75.4404 121.169 75.417C121.155 75.3936 121.145 75.3675 121.141 75.3403C121.137 75.3131 121.138 75.2854 121.145 75.2587C121.158 75.205 121.192 75.1586 121.239 75.1296C121.286 75.1006 121.342 75.0914 121.396 75.104L134.077 78.1018L133.822 78.3401C133.383 76.3792 132.798 74.4392 132.15 72.5243C131.501 70.6094 130.816 68.7112 130.059 66.8465C129.305 64.9869 128.445 63.1722 127.484 61.4111C127.007 60.5331 126.497 59.6718 125.966 58.8272C125.435 57.9826 124.866 57.1548 124.293 56.398V56.3771C124.17 56.2186 124.114 56.0174 124.139 55.8178C124.164 55.6183 124.267 55.4367 124.425 55.3131C124.584 55.1894 124.785 55.1338 124.984 55.1585C125.184 55.1832 125.366 55.2862 125.489 55.4448V55.4698Z" fill="#EDB200"/>
<path d="M119.406 51.0756L117.977 52.3006L117.997 51.1132C118.202 51.1257 119.406 51.0756 119.406 51.0756Z" fill="#F58C62"/>
<path d="M138.028 163.244C138.011 163.132 138.011 163.018 138.028 162.906L138.057 162.751C138.057 162.651 138.091 162.55 138.116 162.458L138.241 161.902L138.509 160.807L139.069 158.629L140.219 154.276L142.569 145.609L147.327 128.299L147.352 128.224C147.47 127.876 147.721 127.59 148.05 127.427C148.379 127.264 148.76 127.238 149.108 127.354C149.326 127.431 149.522 127.559 149.679 127.729C149.836 127.899 149.948 128.105 150.007 128.329L158.616 162.458C158.646 162.565 158.632 162.68 158.577 162.777C158.523 162.874 158.432 162.945 158.325 162.975C158.218 163.005 158.103 162.991 158.007 162.936C157.91 162.882 157.839 162.791 157.809 162.684L147.327 129.09L150.011 129.123L144.304 146.136L141.473 154.652L140.089 158.917L139.416 161.054L139.09 162.12L138.94 162.651C138.915 162.743 138.894 162.822 138.873 162.91L138.843 163.027C138.845 163.015 138.842 163.003 138.836 162.993C138.83 162.982 138.821 162.974 138.81 162.969C138.845 163.074 138.837 163.189 138.787 163.288C138.737 163.387 138.65 163.463 138.545 163.497C138.439 163.532 138.324 163.524 138.225 163.474C138.126 163.424 138.051 163.337 138.016 163.232L138.028 163.244Z" fill="#DBD7D7"/>
<path d="M138.426 147.357C140.048 147.055 141.687 146.858 143.334 146.767C144.969 146.65 146.604 146.617 148.239 146.625C149.873 146.633 151.512 146.683 153.147 146.8C154.791 146.897 156.428 147.083 158.052 147.357C156.428 147.629 154.791 147.813 153.147 147.908C151.512 148.03 149.873 148.076 148.239 148.084C146.604 148.092 144.969 148.059 143.334 147.942C141.687 147.852 140.048 147.657 138.426 147.357Z" fill="#DBD7D7"/>
<path d="M163.558 147.03L162.738 158.022L166.313 159.448L168.487 148.23L163.558 147.03Z" fill="#66393B"/>
<path d="M162.408 156.555L162.09 162.956C162.09 162.956 174.591 162.538 174.307 161.702C174.023 160.865 168.035 159.289 167.421 159.135L167.605 157.345L162.408 156.555Z" fill="#1B193B"/>
<path d="M162.048 152.85C162.742 152.85 168.993 153.549 168.993 153.549C168.993 153.549 173.174 128.538 173.508 126.28C173.843 124.022 174.901 116.726 166.401 116.379C157.901 116.032 139.642 113.774 139.642 113.774C139.642 113.774 137.551 124.541 149.196 126.627C160.84 128.713 162.914 128.362 162.914 128.362L162.048 152.85Z" fill="#ED4224"/>
<path d="M170.653 118.997C169.474 119.197 160.138 124.541 147.139 126.129C147.814 126.337 148.501 126.503 149.196 126.627C160.832 128.717 162.914 128.362 162.914 128.362L162.048 152.85C162.742 152.85 168.993 153.549 168.993 153.549C168.993 153.549 173.174 128.538 173.508 126.28C173.726 124.879 174.207 121.547 172.518 119.13C171.917 118.931 171.276 118.885 170.653 118.997Z" fill="#ED4224"/>
<path d="M158.929 124.674H138.651C137.497 124.674 136.561 125.61 136.561 126.765V127.079C136.561 128.233 137.497 129.169 138.651 129.169H158.929C160.084 129.169 161.02 128.233 161.02 127.079V126.765C161.02 125.61 160.084 124.674 158.929 124.674Z" fill="#FFDA08"/>
<path d="M169.487 84.3357C168.968 84.018 154.661 77.5792 152.344 77.575C150.028 77.5708 152.42 86.4137 152.42 86.4137C152.42 86.4137 167.287 91.6066 168.726 90.8916C173.973 89.4575 171.397 85.5817 169.487 84.3357Z" fill="#1B193B"/>
<path d="M165.833 84.4946L167.719 82.9351L154.724 74.0295L153.336 76.3416L163.755 86.0834C164.424 85.5273 165.126 85.0089 165.833 84.4946Z" fill="#66393B"/>
<path d="M158.378 75.4427C157.563 76.1284 155.794 77.2447 154.916 77.8342L164.595 86.8527C167.488 87.4924 171.481 86.8527 170.771 85.5357C170.06 84.2187 158.378 75.4427 158.378 75.4427Z" fill="#1B193B"/>
<path d="M152.855 75.8984L149.272 74.6441C149.169 74.608 149.075 74.5509 148.995 74.4764C148.915 74.4019 148.852 74.3116 148.809 74.2113C148.766 74.111 148.745 74.0029 148.746 73.8939C148.747 73.7849 148.771 73.6772 148.816 73.5779L149.736 71.5501C149.817 71.3666 149.965 71.221 150.15 71.1433C150.335 71.0655 150.543 71.0615 150.731 71.132L154.711 72.6581C154.813 72.6974 154.904 72.7572 154.981 72.8339C155.058 72.9105 155.118 73.0023 155.157 73.1034C155.196 73.2044 155.214 73.3125 155.209 73.4209C155.205 73.5292 155.177 73.6354 155.13 73.7326L154.226 75.5974C154.147 75.7646 154.012 75.8984 153.843 75.975C153.675 76.0515 153.485 76.0659 153.307 76.0155L152.889 75.8984H152.855Z" fill="#1B193B"/>
<path d="M153.866 75.4803L149.158 74.0964L150.262 71.3912L154.932 73.1933L153.866 75.4803Z" fill="#FEFEFE"/>
<path d="M151.413 71.2616C151.387 71.362 150.856 73.5612 151.387 73.6824C151.918 73.8037 152.127 71.5919 152.132 71.2658C152.136 70.9397 151.559 70.6428 151.413 71.2616Z" fill="#66393B"/>
<path d="M152.278 71.4331C152.24 71.525 151.86 73.2016 152.148 73.3689C152.437 73.5361 152.863 72.1647 152.943 71.571C153.022 70.9773 152.412 71.0944 152.278 71.4331Z" fill="#66393B"/>
<path d="M152.988 71.8637C152.988 71.8637 152.444 73.1431 152.695 73.2643C152.946 73.3856 153.607 72.1898 153.531 71.7717C153.456 71.3536 153.088 71.4832 152.988 71.8637Z" fill="#66393B"/>
<path d="M153.598 72.1438C153.598 72.1438 153.138 73.2267 153.347 73.3312C153.557 73.4358 154.117 72.4156 154.058 72.0769C154 71.7383 153.69 71.8219 153.598 72.1438Z" fill="#66393B"/>
<path d="M153.829 76.6092C153.829 76.6092 152.813 77.2656 152.207 77.0482C151.6 76.8308 151.421 75.7939 150.894 75.3172C150.636 75.0439 150.312 74.841 149.953 74.7277C149.953 74.7277 150.685 74.2176 151.153 74.6524C151.481 74.9652 151.791 75.296 152.081 75.6434C152.324 75.4156 152.631 75.269 152.961 75.2241C153.291 75.1791 153.626 75.238 153.921 75.3925C154.891 75.9653 153.829 76.6092 153.829 76.6092Z" fill="#66393B"/>
<path d="M140.195 82.3038V80.0627C139.875 80.7793 139.608 81.5185 139.396 82.2745H140.208L140.195 82.3038Z" fill="#FEFEFE"/>
<path d="M156.217 82.6466C156.021 81.8522 155.801 81.108 155.556 80.4139C154.36 78.5241 152.859 77.0356 150.062 76.7471C148.516 76.5939 146.956 76.7358 145.463 77.1652L145.881 82.4166C149.323 82.4891 152.769 82.5658 156.217 82.6466Z" fill="#FEFEFE"/>
<path d="M140.158 91.5397H138.038C138.038 91.6609 138.038 91.7822 138.013 91.9034C137.992 92.2128 137.975 92.5306 137.963 92.8441C137.929 93.488 137.9 94.1361 137.879 94.7967H140.141L140.158 91.5397Z" fill="#FEFEFE"/>
<path d="M140.174 86.8987L138.481 86.7858C138.443 87.0743 138.401 87.3628 138.368 87.6638C138.255 88.6297 138.163 89.6373 138.092 90.6742H140.157L140.174 86.8987Z" fill="#FEFEFE"/>
<path d="M140.19 83.1692H139.149C139.103 83.3532 139.061 83.5413 139.02 83.7337C138.857 84.4361 138.723 85.1761 138.602 85.9454L140.174 86.0458L140.19 83.1692Z" fill="#FEFEFE"/>
<path d="M146.191 86.3928C149.814 86.5879 153.438 86.744 157.062 86.8611C156.915 85.9078 156.756 84.988 156.572 84.1183C156.531 83.9121 156.489 83.7114 156.447 83.5162C152.952 83.4298 149.456 83.3518 145.961 83.2821L146.191 86.3928Z" fill="#FEFEFE"/>
<path d="M146.934 95.6245L147.264 99.7679L158.198 99.6927C158.152 98.8565 158.098 98.0203 158.043 97.1841C158.043 96.8705 158.006 96.5527 157.985 96.2433C157.985 96.005 157.951 95.7625 157.934 95.5284C154.263 95.5618 150.594 95.5897 146.926 95.612L146.934 95.6245Z" fill="#FEFEFE"/>
<path d="M147.328 100.633L147.525 103.058C151.148 103.011 154.772 102.98 158.395 102.966C158.395 102.866 158.395 102.762 158.395 102.661C158.395 102.343 158.358 102.034 158.345 101.725L158.282 100.562C154.659 100.587 151.019 100.608 147.362 100.625L147.328 100.633Z" fill="#FEFEFE"/>
<path d="M146.604 91.5397L146.863 94.7549C150.539 94.7354 154.212 94.7075 157.88 94.6713C157.83 94.0357 157.779 93.417 157.725 92.7856C157.696 92.472 157.671 92.1585 157.641 91.8449L157.604 91.4853C154.84 91.4853 152.068 91.5397 149.317 91.5397H146.604Z" fill="#FEFEFE"/>
<path d="M146.262 87.2666L146.533 90.6742H149.318C152.044 90.6742 154.783 90.6073 157.517 90.6198C157.45 89.9676 157.375 89.3279 157.295 88.7049C157.258 88.383 157.216 88.0736 157.17 87.76C157.17 87.76 157.17 87.7391 157.17 87.7266C153.546 87.6151 149.912 87.4604 146.266 87.2625L146.262 87.2666Z" fill="#FEFEFE"/>
<path d="M140.107 103.175V100.667H137.732C137.732 101.056 137.732 101.445 137.732 101.833C137.732 102.147 137.732 102.461 137.732 102.774C137.732 102.916 137.732 103.058 137.732 103.192L140.141 103.155L140.107 103.175Z" fill="#FEFEFE"/>
<path d="M158.554 106.223L158.504 105.283L158.428 103.836C154.822 103.853 151.212 103.882 147.6 103.924V104.012L152.345 107.081L151.831 108.891H158.7C158.65 108.021 158.617 107.122 158.554 106.223Z" fill="#FEFEFE"/>
<path d="M140.103 104.045L137.686 104.087C137.686 104.576 137.686 105.065 137.657 105.55C137.657 105.864 137.657 106.182 137.636 106.495C137.615 107.331 137.59 108.113 137.561 108.908H140.153H140.082L140.103 104.045Z" fill="#FEFEFE"/>
<path d="M140.135 95.6538H137.853C137.853 95.8921 137.853 96.1346 137.853 96.3771C137.853 96.6907 137.853 97.0043 137.828 97.322C137.805 98.1582 137.788 98.9945 137.777 99.8307H140.14L140.135 95.6538Z" fill="#FEFEFE"/>
<path d="M137.711 103.217H137.669C137.669 103.506 137.669 103.798 137.648 104.087H137.699C137.699 103.798 137.699 103.51 137.699 103.217H137.711Z" fill="#FE6B75"/>
<path d="M158.429 103.836H158.554L158.504 102.971H158.387C158.387 103.259 158.416 103.548 158.429 103.836Z" fill="#FE6B75"/>
<path d="M147.599 103.924C151.206 103.882 154.816 103.853 158.428 103.836C158.428 103.548 158.399 103.259 158.386 102.971C154.763 102.987 151.139 103.018 147.516 103.063L147.599 103.924Z" fill="#FE6B75"/>
<path d="M140.102 104.041V103.18L137.693 103.217C137.693 103.51 137.693 103.798 137.693 104.087L140.11 104.045L140.102 104.041Z" fill="#FE6B75"/>
<path d="M137.757 99.8223H137.711C137.711 100.107 137.711 100.399 137.711 100.688H137.744C137.744 100.399 137.744 100.111 137.744 99.8223H137.757Z" fill="#FE6B75"/>
<path d="M158.256 100.567H158.369L158.319 99.7052H158.197L158.247 100.567H158.256Z" fill="#FE6B75"/>
<path d="M147.264 99.768L147.335 100.629C150.978 100.607 154.619 100.586 158.256 100.567L158.198 99.6927L147.256 99.7554L147.264 99.768Z" fill="#FE6B75"/>
<path d="M140.12 99.8098H137.758C137.758 100.098 137.758 100.387 137.758 100.675H140.133L140.12 99.8098Z" fill="#FE6B75"/>
<path d="M157.944 95.5367H158.052C158.052 95.2441 158.015 94.9556 157.994 94.6713H157.881L157.944 95.5367Z" fill="#FE6B75"/>
<path d="M137.878 94.7967H137.832C137.832 95.081 137.832 95.3695 137.807 95.6622H137.853C137.853 95.3737 137.853 95.081 137.878 94.7967Z" fill="#FE6B75"/>
<path d="M146.934 95.6204C150.605 95.5981 154.275 95.5702 157.943 95.5367L157.88 94.6713C154.209 94.7047 150.537 94.7326 146.863 94.7549L146.934 95.6204Z" fill="#FE6B75"/>
<path d="M140.141 94.7883H137.879C137.879 95.0726 137.879 95.3653 137.854 95.6538H140.136L140.141 94.7883Z" fill="#FE6B75"/>
<path d="M157.603 91.4853H157.725C157.695 91.1968 157.67 90.9083 157.641 90.6198H157.516C157.549 90.8986 157.578 91.1871 157.603 91.4853Z" fill="#FE6B75"/>
<path d="M138.091 90.6742H138.011C137.989 90.9529 137.972 91.2414 137.961 91.5397H138.036C138.036 91.247 138.07 90.9585 138.091 90.6742Z" fill="#FE6B75"/>
<path d="M146.533 90.6742L146.604 91.5397H149.318C152.069 91.5397 154.841 91.4728 157.605 91.4853C157.58 91.1926 157.55 90.9041 157.517 90.6198C154.782 90.6198 152.044 90.6742 149.318 90.6742H146.533Z" fill="#FE6B75"/>
<path d="M140.157 90.6742H138.091C138.071 90.9585 138.05 91.247 138.037 91.5397H140.157V90.6742Z" fill="#FE6B75"/>
<path d="M138.606 85.9287H138.488C138.447 86.2088 138.405 86.4932 138.367 86.7858H138.48C138.48 86.7858 138.48 86.7524 138.48 86.7357C138.547 86.4597 138.547 86.1921 138.606 85.9287Z" fill="#FE6B75"/>
<path d="M157.164 87.7266H157.294C157.256 87.4339 157.215 87.1496 157.169 86.8611H157.039C157.081 87.1398 157.123 87.4283 157.164 87.7266Z" fill="#FE6B75"/>
<path d="M140.177 86.0374L138.605 85.9371C138.564 86.2005 138.526 86.4681 138.488 86.7398C138.488 86.7398 138.488 86.7775 138.488 86.79L140.182 86.9029L140.177 86.0374Z" fill="#FE6B75"/>
<path d="M146.191 86.397L146.262 87.2625C149.885 87.4548 153.52 87.6095 157.166 87.7266C157.124 87.4478 157.082 87.1593 157.041 86.8611C153.417 86.7468 149.793 86.5907 146.17 86.3928L146.191 86.397Z" fill="#FE6B75"/>
<path d="M156.426 83.5162H156.551C156.489 83.2152 156.417 82.9309 156.351 82.6466H156.217C156.263 82.818 156.309 82.9936 156.351 83.1734L156.426 83.5162Z" fill="#FE6B75"/>
<path d="M139.383 82.2912H139.245C139.162 82.5672 139.091 82.8557 139.02 83.1525H139.149C139.178 83.0313 139.212 82.9058 139.245 82.7846C139.279 82.6633 139.333 82.4501 139.383 82.2912Z" fill="#FE6B75"/>
<path d="M140.19 83.1692V82.3038H139.379C139.328 82.4626 139.283 82.6257 139.241 82.7929C139.207 82.9142 139.174 83.0396 139.145 83.1609H140.186L140.19 83.1692Z" fill="#FE6B75"/>
<path d="M145.867 82.4208L145.938 83.2821C149.434 83.3518 152.929 83.4298 156.424 83.5162L156.349 83.1734C156.307 82.9936 156.261 82.818 156.215 82.6466C152.767 82.5602 149.318 82.4835 145.867 82.4166V82.4208Z" fill="#FE6B75"/>
<path d="M151.09 111.538L151.83 108.912H140.152L151.09 111.538Z" fill="#EFEFEF"/>
<path d="M146.261 87.2666C144.229 87.1579 142.2 87.0353 140.174 86.8987V90.6616H146.533L146.261 87.2666Z" fill="#EFEFEF"/>
<path d="M146.863 94.7549L146.603 91.5397H140.156V94.7842C142.386 94.7842 144.627 94.7744 146.879 94.7549H146.863Z" fill="#EFEFEF"/>
<path d="M145.938 83.2821L140.189 83.1692V86.0291C142.194 86.1628 144.198 86.2841 146.202 86.3928L145.938 83.2821Z" fill="#EFEFEF"/>
<path d="M146.935 95.6245C144.669 95.6413 142.403 95.651 140.137 95.6538V99.8098L147.282 99.768L146.935 95.6245Z" fill="#EFEFEF"/>
<path d="M147.608 104.012V103.924C145.099 103.957 142.6 103.998 140.111 104.045L140.082 108.891H140.153H151.831L152.345 107.064L147.608 104.012Z" fill="#EFEFEF"/>
<path d="M140.195 82.3038L145.869 82.4166L145.451 77.1653C143.513 77.7296 141.726 78.7195 140.22 80.0627V82.3038H140.195Z" fill="#EFEFEF"/>
<path d="M147.532 103.058L147.336 100.633L140.115 100.675V103.184C142.59 103.139 145.066 103.1 147.541 103.067L147.532 103.058Z" fill="#EFEFEF"/>
<path d="M147.533 103.063C145.058 103.09 142.583 103.13 140.107 103.18V104.041C142.616 103.994 145.115 103.953 147.604 103.92L147.533 103.063Z" fill="#FE3D4A"/>
<path d="M147.265 99.768L140.119 99.8098V100.671L147.34 100.629L147.265 99.768Z" fill="#FE3D4A"/>
<path d="M146.864 94.7549C144.634 94.7716 142.393 94.7814 140.141 94.7842V95.6454C142.407 95.6454 144.673 95.6357 146.939 95.6162L146.864 94.7549Z" fill="#FE3D4A"/>
<path d="M146.532 90.6784V90.6742H140.156V90.6784V91.5397H146.603L146.532 90.6784Z" fill="#FE3D4A"/>
<path d="M146.19 86.397C144.183 86.2883 142.179 86.167 140.178 86.0332V86.8987C142.207 87.0325 144.236 87.1552 146.265 87.2666L146.19 86.397Z" fill="#FE3D4A"/>
<path d="M145.94 83.2821L145.869 82.4208L140.195 82.3079V83.1734L145.944 83.2863L145.94 83.2821Z" fill="#FE3D4A"/>
<path d="M174.881 136.95L176.888 147.712L180.68 148.172L179.919 136.85L174.881 136.95Z" fill="#784346"/>
<path d="M175.797 145.659L176.462 152.031C176.462 152.031 188.754 149.719 188.344 148.908C187.934 148.097 181.763 147.486 181.144 147.423L181.052 145.626L175.797 145.659Z" fill="#23204D"/>
<path d="M148.761 80.3805C146.29 80.3805 145.68 78.29 145.533 77.1067C146.81 76.7752 148.129 76.6343 149.447 76.6886C149.652 76.6886 149.865 76.7095 150.061 76.7304C150.35 76.7578 150.638 76.7997 150.923 76.8559C151.04 76.8782 151.153 76.9032 151.261 76.9311C151.428 78.3694 151.232 80.3805 148.761 80.3805Z" fill="#784346"/>
<path d="M146.433 71.6965L146.24 77.8008H149.639L149.012 72.955" fill="#784346"/>
<path d="M158.199 84.3692C157.363 81.5554 155.138 77.876 151.25 76.9395C155.745 83.0104 156.129 95.8294 155.143 110.898C155.151 111.189 155.184 111.478 155.243 111.763C155.431 111.763 162.919 110.576 162.919 110.576C162.919 110.576 159.035 87.183 158.199 84.3692Z" fill="#1B193B"/>
<path d="M151.34 74.9159C151.258 75.1746 151.114 75.4098 150.922 75.6015C150.395 76.1074 149.455 76.0615 147.456 75.6768C146.723 75.5394 146.048 75.1873 145.515 74.6653C144.983 74.1433 144.618 73.4749 144.466 72.7449C144.314 72.0149 144.382 71.2562 144.662 70.5651C144.942 69.8741 145.421 69.2818 146.038 68.8635C146.656 68.4451 147.383 68.2196 148.129 68.2155C148.874 68.2113 149.605 68.4288 150.226 68.8403C150.848 69.2518 151.334 69.8388 151.621 70.5267C151.909 71.2146 151.986 71.9724 151.842 72.7041C151.732 73.4533 151.565 74.1928 151.34 74.9159Z" fill="#784346"/>
<path d="M152.152 74.8155L150.605 74.5187L151.053 72.8755L151.826 72.8295L152.152 74.8155Z" fill="#784346"/>
<path d="M147.368 71.6797C147.335 71.6797 146.574 70.4923 145.926 71.5585C145.278 72.6247 146.106 73.7661 147.18 73.5487" fill="#784346"/>
<path d="M149.314 71.9097C149.258 71.9096 149.204 71.887 149.164 71.847C149.125 71.8072 149.104 71.754 149.104 71.6985C149.104 71.6431 149.125 71.5899 149.164 71.5501C150.021 70.693 151.413 71.3327 151.472 71.3578C151.522 71.3822 151.56 71.4251 151.579 71.4775C151.597 71.5298 151.595 71.5874 151.572 71.6379C151.56 71.663 151.544 71.6856 151.523 71.7042C151.503 71.7229 151.479 71.7373 151.453 71.7466C151.427 71.756 151.399 71.76 151.371 71.7586C151.344 71.7572 151.317 71.7503 151.292 71.7383C151.292 71.7383 150.109 71.1947 149.461 71.847C149.442 71.8667 149.419 71.8824 149.394 71.8931C149.369 71.9039 149.342 71.9095 149.314 71.9097Z" fill="#1B193B"/>
<path d="M154.916 105.492C156.095 104.998 157.286 104.545 158.491 104.133C159.193 105.44 159.89 106.748 160.581 108.055C159.649 108 158.721 107.984 157.788 108.009C157.768 107.872 157.706 107.745 157.608 107.646C157.511 107.548 157.385 107.483 157.249 107.461C156.987 107.436 156.723 107.454 156.467 107.515C155.755 107.604 155.034 107.457 154.414 107.097" fill="#784346"/>
<path d="M157.779 105.287C157.938 105.233 159.974 104.292 159.974 104.292L162.587 107.428C162.391 107.499 162.178 107.513 161.975 107.467C161.771 107.421 161.584 107.317 161.438 107.168C161.02 106.642 159.87 105.387 159.87 105.387L158.553 106.223L157.779 105.287Z" fill="#784346"/>
<path d="M158.039 108.264L165.674 96.1388C165.674 96.1388 165.724 95.7709 166.819 95.7709H182.343L183.004 96.2099L163.633 108.264H158.039Z" fill="#62C7D3"/>
<path d="M158.753 108.055C159.067 107.741 165.861 96.2099 166.279 96.2099H183.003L175.895 107.775C175.895 107.775 158.406 108.402 158.753 108.055Z" fill="#F9154A"/>
<path d="M150.308 108.055L150.254 108.841L158.7 108.912L158.754 108.055H150.308Z" fill="#F9154A"/>
<path d="M175.896 107.779L175.812 108.423L158.699 108.912L158.754 108.055L175.896 107.779Z" fill="#2D3AAD"/>
<path d="M173.346 102.239C173.466 102.524 173.497 102.838 173.435 103.141C173.372 103.444 173.219 103.72 172.996 103.934C172.773 104.148 172.49 104.289 172.185 104.339C171.88 104.388 171.567 104.344 171.288 104.212C171.009 104.08 170.776 103.866 170.621 103.599C170.465 103.332 170.395 103.024 170.419 102.715C170.442 102.407 170.559 102.114 170.753 101.873C170.947 101.633 171.21 101.457 171.506 101.369C171.866 101.243 172.261 101.263 172.605 101.426C172.949 101.589 173.216 101.881 173.346 102.239Z" fill="#FC92AB"/>
<path d="M181.151 142.431L175.595 142.256L170.385 119.155C170.385 119.155 150.408 128.186 141.206 125.582C135.695 124.022 134.666 117.859 134.725 113.164C134.747 111.269 134.938 109.38 135.298 107.52C141.027 108.17 146.787 108.505 152.553 108.523C156.972 108.523 161.58 108.26 165.514 107.52C177.497 105.262 181.143 111.513 180.984 115.163C180.825 118.813 181.151 142.431 181.151 142.431Z" fill="#FC542D"/>
<path d="M152.345 108.611C149.419 108.611 145.518 109.865 145.518 109.865L145.656 114.606L134.727 113.164C134.748 111.269 134.94 109.38 135.299 107.52C141.028 108.17 146.789 108.505 152.555 108.523C152.672 108.582 152.613 108.611 152.345 108.611Z" fill="#ED4224"/>
<path d="M138.523 81.4048C135.441 88.4833 134.225 111.287 134.225 111.287L144.481 112.282C145.735 99.8892 146.153 88.0945 145.476 77.1234C142.782 77.8241 140.361 79.3152 138.523 81.4048Z" fill="#1B193B"/>
<path d="M155.851 107.57C155.851 107.57 139.545 106.566 136.619 104.568C133.692 102.569 136.619 98.2293 141.046 99.7889C145.474 101.348 155.116 105.35 155.116 105.35L155.851 107.57Z" fill="#784346"/>
<path d="M142.686 100.395L143.723 82.9435C142.159 80.3972 140.42 79.9498 138.522 81.4048C136.95 85.1134 133.998 97.7945 133.998 98.9234C133.998 100.052 133.04 103.61 136.603 104.568C138.814 106.065 153.243 108.423 153.243 108.423C153.243 108.423 153.306 105.563 153.469 104.66C150.969 103.652 146.115 101.679 142.686 100.395Z" fill="#23204D"/>
<path d="M146.377 75.2336L147.113 73.8957C146.854 73.8087 146.615 73.6711 146.41 73.491C146.205 73.3108 146.037 73.0917 145.917 72.8462C145.805 72.5973 145.775 72.319 145.832 72.0519C145.889 71.7848 146.031 71.5431 146.235 71.362C146.371 71.2495 146.542 71.1879 146.718 71.1879C146.894 71.1879 147.065 71.2495 147.201 71.362C147.338 71.5269 147.423 71.7294 147.443 71.9431C147.498 72.2362 147.535 72.5322 147.556 72.8295C147.926 72.8414 148.295 72.8176 148.66 72.7584L148.242 70.8519C148.631 70.7527 149.026 70.6787 149.425 70.6303C149.505 70.1662 149.605 69.7021 149.722 69.2464C150.065 69.2712 150.401 69.3591 150.713 69.5056C150.828 69.5753 150.956 69.6222 151.089 69.6436C151.213 69.6454 151.335 69.6212 151.449 69.5725C152.114 69.3256 152.746 68.997 153.33 68.5941C152.855 68.6281 152.381 68.6896 151.913 68.7781L153.008 68.013L151.436 68.2596C151.31 68.2848 151.181 68.2974 151.052 68.2973C150.873 68.2798 150.697 68.239 150.529 68.176C149.541 67.8209 148.498 67.6425 147.448 67.6492C146.389 67.661 145.372 68.063 144.592 68.7781C144.413 68.9344 144.269 69.1272 144.17 69.3435C144.071 69.5598 144.02 69.7946 144.019 70.0324C143.864 70.08 143.722 70.164 143.606 70.2774C143.489 70.3909 143.402 70.5305 143.35 70.6846C143.255 70.9947 143.236 71.3233 143.296 71.6421C143.449 72.4305 143.803 73.1662 144.322 73.7784C144.842 74.3906 145.511 74.8586 146.264 75.1375" fill="#1B193B"/>
<path d="M143.828 70.1495C143.535 70.2637 143.226 70.3355 142.913 70.3627C142.755 70.3759 142.596 70.3564 142.447 70.3053C142.297 70.2542 142.16 70.1727 142.043 70.0659C141.902 69.9068 141.793 69.7223 141.721 69.5223C141.51 69.1403 141.445 68.6946 141.537 68.268C141.627 68.0364 141.781 67.8349 141.98 67.6868C142.164 67.5286 142.386 67.4206 142.624 67.3733C142.856 67.3471 143.09 67.3842 143.302 67.4807C143.514 67.5771 143.696 67.7293 143.828 67.921C144.088 68.3092 144.233 68.7628 144.246 69.2296C144.282 69.4014 144.272 69.5796 144.217 69.7462C144.162 69.9128 144.064 70.062 143.933 70.1787" fill="#1B193B"/>
<path d="M151.441 74.7486C151.28 74.6478 151.097 74.5869 150.907 74.5709C150.717 74.5549 150.526 74.5843 150.35 74.6566C150.229 74.711 150.112 74.7862 149.991 74.8364C149.869 74.8969 149.73 74.9132 149.598 74.8824C149.883 75.0105 150.192 75.0798 150.505 75.0863C150.818 75.0928 151.13 75.0362 151.421 74.92C151.421 74.92 151.462 74.874 151.421 74.874" fill="#1B193B"/>
<path d="M150.526 72.4909H150.501C150.418 72.4909 150.338 72.5239 150.279 72.5827C150.221 72.6415 150.188 72.7213 150.188 72.8044C150.188 72.8876 150.221 72.9674 150.279 73.0262C150.338 73.085 150.418 73.118 150.501 73.118H150.526C150.609 73.118 150.689 73.085 150.748 73.0262C150.807 72.9674 150.84 72.8876 150.84 72.8044C150.84 72.7213 150.807 72.6415 150.748 72.5827C150.689 72.5239 150.609 72.4909 150.526 72.4909Z" fill="#1B193B"/>
<path d="M147.896 74.6734C147.955 75.1209 148.114 75.5496 148.361 75.9277C148.429 76.055 148.528 76.1635 148.648 76.2437C148.768 76.3239 148.907 76.3733 149.05 76.3876C149.466 76.4484 149.886 76.4624 150.305 76.4294C150.473 76.4352 150.639 76.3992 150.79 76.3249C151.091 76.1493 151.141 75.7395 151.154 75.3883C150.997 75.5277 150.813 75.6334 150.614 75.6988C150.415 75.7643 150.204 75.7881 149.995 75.7688C149.786 75.7473 149.586 75.6751 149.411 75.5586C149.236 75.442 149.092 75.2845 148.992 75.0998C148.916 74.9437 148.862 74.7776 148.833 74.6065C148.833 74.5479 148.8 74.4768 148.741 74.4643C148.702 74.4596 148.663 74.4701 148.632 74.4936C148.425 74.6036 148.189 74.6515 147.955 74.6315" fill="#1B193B"/>
<path d="M150.924 76.8684L149.544 78.8669L149.498 76.7012C149.695 76.7012 149.891 76.7221 150.092 76.743C150.371 76.7706 150.649 76.8125 150.924 76.8684Z" fill="#66393B"/>
<path d="M141.891 80.878C141.105 83.9107 140.34 86.9503 139.596 89.9969C139.225 91.5188 138.865 93.0434 138.517 94.5709C138.178 96.0928 137.831 97.6273 137.585 99.145C137.521 99.5 137.482 99.859 137.468 100.22C137.468 100.253 137.468 100.245 137.468 100.257C137.469 100.247 137.469 100.238 137.468 100.228V100.203C137.5 100.24 137.537 100.274 137.576 100.303C137.717 100.404 137.863 100.496 138.015 100.579C138.695 100.939 139.393 101.264 140.106 101.553C141.544 102.155 143.012 102.703 144.479 103.226C147.406 104.292 150.399 105.295 153.381 106.265C153.436 106.281 153.483 106.318 153.511 106.368C153.539 106.418 153.547 106.477 153.531 106.533C153.516 106.588 153.479 106.635 153.428 106.664C153.378 106.692 153.319 106.699 153.263 106.683C150.241 105.814 147.234 104.915 144.241 103.945C142.744 103.456 141.251 102.958 139.771 102.398C139.017 102.121 138.277 101.806 137.555 101.453C137.361 101.353 137.172 101.241 136.991 101.118C136.87 101.035 136.761 100.935 136.669 100.822C136.593 100.732 136.54 100.626 136.514 100.512C136.496 100.428 136.484 100.343 136.477 100.257C136.475 99.8376 136.503 99.4185 136.56 99.0028C136.765 97.414 137.058 95.8712 137.346 94.3242C137.635 92.7773 137.953 91.2345 138.27 89.6958C138.881 86.6046 139.53 83.526 140.219 80.4599C140.233 80.3406 140.273 80.2256 140.335 80.1225C140.397 80.0193 140.479 79.9303 140.578 79.8611C140.676 79.7919 140.788 79.744 140.906 79.7206C141.024 79.6971 141.145 79.6987 141.263 79.7251C141.38 79.7515 141.49 79.8022 141.587 79.8738C141.683 79.9455 141.764 80.0366 141.823 80.1413C141.882 80.246 141.919 80.3619 141.931 80.4816C141.942 80.6012 141.929 80.7221 141.891 80.8362C141.891 80.8362 141.891 80.8362 141.891 80.8613V80.878Z" fill="#1B193B"/>
<path d="M146.909 73.4399H146.846C146.8 73.419 145.78 72.9549 146.01 72.1522C146.037 72.0393 146.089 71.9336 146.161 71.8426C146.233 71.7516 146.325 71.6775 146.428 71.6254C146.616 71.5491 146.826 71.5491 147.014 71.6254C147.052 71.6415 147.082 71.6721 147.098 71.7105C147.114 71.7489 147.113 71.792 147.097 71.8302C147.081 71.8685 147.051 71.8988 147.012 71.9145C146.974 71.9302 146.931 71.9299 146.892 71.9139C146.784 71.8753 146.666 71.8753 146.558 71.9139C146.497 71.9499 146.444 71.9982 146.403 72.0558C146.362 72.1134 146.334 72.179 146.32 72.2484C146.215 72.587 146.495 72.8588 146.717 73.0135V72.9131C146.718 72.8747 146.734 72.8381 146.76 72.8102C146.787 72.7823 146.823 72.7649 146.861 72.7613C146.899 72.7578 146.937 72.7682 146.969 72.7907C147 72.8133 147.022 72.8464 147.03 72.8839L147.064 73.302C147.066 73.3291 147.062 73.3563 147.051 73.3812C147.04 73.4061 147.023 73.4278 147.001 73.4441C146.971 73.4524 146.939 73.4509 146.909 73.4399Z" fill="#47222C"/>
</g>
<defs>
<clipPath id="clip0_2429_1245">
<rect width="280" height="171.101" fill="white"/>
</clipPath>
</defs>
</svg>
