<svg width="310" height="294" viewBox="0 0 310 294" fill="none" xmlns="http://www.w3.org/2000/svg">
<g clip-path="url(#clip0_1479_1790)">
<path d="M309.612 290.967H0.387987C0.17297 290.967 0 290.854 0 290.716C0 290.579 0.17297 290.467 0.387987 290.467H309.612C309.826 290.467 310 290.579 310 290.716C310 290.854 309.826 290.967 309.612 290.967Z" fill="white"/>
<path d="M197.63 176.322L177.179 178.358C174.485 178.626 174.292 182.479 176.947 183.014C182.043 184.039 189.544 184.88 200.442 184.88L210.285 182.464L197.63 176.322Z" fill="#FFE6E6"/>
<path d="M186.918 184.363C183.61 182.237 185.378 177.541 185.378 177.541L177.182 178.357C174.487 178.626 174.294 182.479 176.95 183.013C179.584 183.542 182.865 184.022 186.918 184.363Z" fill="#EDAC80"/>
<path d="M175.215 181.56C175.468 182.249 176.036 182.829 176.951 183.013C182.046 184.039 189.548 184.879 200.445 184.879L210.085 182.513L209.792 182.227L207.317 181.025L198.939 181.527C193.434 182.335 178.669 181.722 175.215 181.56Z" fill="#F9CFCF"/>
<path d="M176.951 183.013C179.584 183.543 182.865 184.022 186.919 184.363C186.024 183.796 185.378 182.91 185.111 181.884C180.755 181.801 176.797 181.633 175.215 181.56C175.468 182.249 176.036 182.829 176.951 183.013Z" fill="#D39266"/>
<path d="M222.836 142.517L220.001 137.962L230.362 132.349C231.816 131.759 234.118 132.158 235.222 134.367C236.207 136.338 237.572 139.984 238.141 147.248L227.582 145.949L222.836 142.517Z" fill="#011721"/>
<path d="M222.839 148.328L227.795 151.024L230.417 148.798C230.809 148.52 231.352 148.613 231.689 149.015C232.045 149.441 232.044 150.062 231.695 150.44C231.695 150.44 236.02 147.137 238.34 147.287C236.87 146.851 236.664 146.522 235.415 145.966C232.097 144.487 233.918 140.654 231.873 139.992C231.235 139.786 230.917 142.366 229.109 142.151C227.66 141.98 222.835 140.501 222.835 140.501L222.839 148.328Z" fill="#EDAC80"/>
<path d="M231.695 150.441C232.319 149.82 232.99 149.248 233.702 148.73L232.573 148.079C232.347 147.942 232.084 147.879 231.821 147.899C231.558 147.92 231.308 148.024 231.107 148.195L230.413 148.8C230.805 148.522 231.348 148.615 231.685 149.017C232.045 149.441 232.044 150.062 231.695 150.441Z" fill="#D39266"/>
<path d="M219.903 142.105C214.073 147.387 205.061 158.493 196.802 178.265C195.445 181.514 197.925 185.086 201.444 184.955C210.221 184.623 224.044 181.71 231.574 176.22L244.205 205.176C244.205 205.176 263.211 212.45 276.116 204.002C276.116 204.002 265.031 170.555 252.694 152.86C248.989 147.543 242.147 145.275 236.108 147.627C233.835 148.509 231.79 149.893 230.126 151.677L212.058 171.856C212.058 171.856 219.034 154.63 223.166 144.388C223.979 142.374 221.512 140.649 219.903 142.105Z" fill="white"/>
<path d="M212.058 171.854C212.058 171.854 219.034 154.628 223.166 144.386C223.342 143.975 223.373 143.517 223.256 143.085C223.139 142.654 222.879 142.274 222.519 142.009C222.519 142.009 211.956 167.257 212.058 171.854Z" fill="#FFE6E6"/>
<path d="M220.484 151.024C221.439 148.665 222.357 146.391 223.166 144.386C223.976 142.381 221.511 140.649 219.903 142.105C218.275 143.596 216.738 145.182 215.298 146.855C215.3 146.877 215.265 151.485 220.484 151.024Z" fill="#EDAC80"/>
<path d="M218.885 150.99C219.415 151.063 219.951 151.075 220.484 151.024C221.439 148.666 222.357 146.391 223.166 144.386C223.342 143.975 223.373 143.517 223.256 143.085C223.138 142.654 222.879 142.274 222.519 142.009C222.519 142.009 220.872 145.946 218.885 150.99Z" fill="#D39266"/>
<path d="M232.061 167.858C227.343 180.002 202.15 184.582 200.445 184.879C200.775 184.938 201.109 184.963 201.444 184.953C210.221 184.621 224.045 181.708 231.574 176.218L244.205 205.174C244.205 205.174 244.471 205.275 244.945 205.436L262.127 198.598C239.287 191.27 232.061 167.858 232.061 167.858Z" fill="#FFE6E6"/>
<path d="M237.075 225.502H264.119V228.761C264.119 229.597 263.787 230.399 263.195 230.991C262.604 231.582 261.802 231.914 260.966 231.914H240.228C239.392 231.914 238.59 231.582 237.998 230.991C237.407 230.399 237.075 229.597 237.075 228.761V225.502Z" fill="#FF688B"/>
<path d="M264.114 225.502H250.217L250.594 226.845V231.909H260.964C261.801 231.909 262.603 231.577 263.194 230.986C263.786 230.394 264.118 229.592 264.118 228.756L264.114 225.502Z" fill="#F9154A"/>
<path d="M281.088 282.953V282.736C281.088 281.816 280.342 281.069 279.422 281.069H221.766C220.846 281.069 220.1 281.816 220.1 282.736V282.953C220.1 283.873 220.846 284.62 221.766 284.62H279.422C280.342 284.62 281.088 283.873 281.088 282.953Z" fill="#FF688B"/>
<path d="M226.672 290.966C229.219 290.966 231.283 288.902 231.283 286.355C231.283 283.809 229.219 281.744 226.672 281.744C224.126 281.744 222.062 283.809 222.062 286.355C222.062 288.902 224.126 290.966 226.672 290.966Z" fill="#FF688B"/>
<path d="M274.516 290.966C277.063 290.966 279.127 288.902 279.127 286.355C279.127 283.809 277.063 281.744 274.516 281.744C271.97 281.744 269.906 283.809 269.906 286.355C269.906 288.902 271.97 290.966 274.516 290.966Z" fill="#FF688B"/>
<path d="M201.383 218.211C201.383 218.211 177.253 251.124 152.526 286.649C150.92 288.956 153.681 291.789 156.022 290.232C167.422 282.654 187.347 267.785 211.422 242.954L219.248 229.168L201.383 218.211Z" fill="#05293C"/>
<path d="M211.423 242.954L219.248 229.168L215.22 226.698L201.383 218.211L166.922 282.53C178.384 273.981 193.787 261.144 211.423 242.954Z" fill="#011721"/>
<path d="M270.302 206.457C265.216 196.291 246.881 193.199 246.881 193.199C237.414 198.646 224.131 205.184 214.345 210.49C206.849 214.554 201.383 218.211 201.383 218.211C209.443 247.705 233.705 277.904 244.482 290.279C245.849 291.85 248.405 290.502 247.882 288.486C241.629 264.391 228.775 225.834 228.775 225.834C247.123 221.158 258.05 216.182 264.546 211.998C266.806 210.542 268.76 208.659 270.3 206.456L270.302 206.457Z" fill="#05293C"/>
<path d="M228.775 225.834C247.123 221.158 258.05 216.182 264.546 211.999C266.84 210.52 270.341 211.542 271.861 209.371L270.3 206.457C268.631 203.122 265.533 200.551 262.128 198.599C262.128 198.599 231.824 211.091 213.564 222.456C217.804 247.273 228.759 271.327 239.271 284.119L240.638 283.892L245.595 280.06C238.952 256.357 228.775 225.834 228.775 225.834Z" fill="#011721"/>
<path d="M159.198 277.105C156.99 280.25 154.766 283.431 152.526 286.649C150.92 288.956 153.681 291.79 156.022 290.233C159.072 288.206 162.736 285.652 166.921 282.531C166.921 282.531 163.667 282.29 162.024 280.971C160.16 279.478 159.198 277.105 159.198 277.105Z" fill="#EDAC80"/>
<path d="M247.888 288.487C246.836 284.431 246.112 281.766 244.779 277.145C244.779 277.145 243.964 278.487 242.397 280.131C240.963 281.629 237.82 282.329 237.82 282.329C240.342 285.446 242.62 288.136 244.488 290.28C245.85 291.851 248.406 290.502 247.888 288.487Z" fill="#EDAC80"/>
<path d="M162.078 281.013L152.826 289.919C153.611 290.699 154.867 291.003 156.023 290.235C159.072 288.208 162.736 285.653 166.922 282.532C166.922 282.53 163.737 282.293 162.078 281.013Z" fill="#D39266"/>
<path d="M242.115 280.393C240.593 281.711 237.814 282.329 237.814 282.329C240.336 285.446 242.615 288.136 244.482 290.28C244.754 290.606 245.127 290.833 245.543 290.923C245.958 291.014 246.392 290.963 246.775 290.779L242.115 280.393Z" fill="#D39266"/>
<path d="M302.509 144.562C303.786 140.897 301.85 136.891 298.185 135.614C294.519 134.337 290.513 136.273 289.236 139.938C287.959 143.603 289.895 147.609 293.56 148.887C297.225 150.164 301.232 148.228 302.509 144.562Z" fill="#FF688B"/>
<path d="M297.491 135.459L293.854 148.969C294.585 149.203 295.35 149.314 296.118 149.298C297.822 149.248 299.448 148.579 300.694 147.416C301.94 146.254 302.72 144.678 302.888 142.982C303.056 141.286 302.601 139.587 301.607 138.203C300.614 136.818 299.151 135.843 297.491 135.459Z" fill="#F9154A"/>
<path d="M257.587 226.845H225.981C224.232 226.845 222.555 226.15 221.318 224.913C220.081 223.677 219.387 222 219.387 220.251C219.387 218.502 220.081 216.825 221.318 215.588C222.555 214.352 224.232 213.657 225.981 213.657H257.587C260.924 213.652 264.167 212.551 266.818 210.524C269.468 208.496 271.379 205.654 272.256 202.434L286.643 150.649C286.875 149.815 287.269 149.034 287.803 148.351C288.337 147.669 289 147.099 289.754 146.673C290.509 146.247 291.339 145.973 292.199 145.869C293.059 145.764 293.932 145.83 294.766 146.062C295.601 146.294 296.382 146.688 297.064 147.222C297.746 147.756 298.317 148.419 298.743 149.173C299.169 149.928 299.442 150.758 299.547 151.618C299.651 152.478 299.586 153.351 299.353 154.185L284.977 205.932C281.64 218.228 270.372 226.845 257.587 226.845Z" fill="#F9154A"/>
<path d="M279.442 200.199L293.818 148.452C294.045 147.632 294.11 146.774 294.009 145.929C292.416 145.675 290.786 146.015 289.427 146.886C288.069 147.756 287.078 149.095 286.643 150.649L272.256 202.433C271.378 205.652 269.467 208.493 266.817 210.52C264.167 212.546 260.924 213.647 257.588 213.652H225.981C224.232 213.652 222.555 214.346 221.318 215.583C220.081 216.819 219.387 218.497 219.387 220.245C219.398 220.502 219.424 220.757 219.464 221.01C219.789 221.067 220.118 221.098 220.447 221.106H252.053C264.837 221.116 276.105 212.499 279.442 200.199Z" fill="#FF688B"/>
<path d="M231.971 224.556C231.533 224.555 231.103 224.45 230.713 224.251C230.324 224.052 229.988 223.764 229.731 223.409C229.475 223.055 229.306 222.646 229.238 222.214C229.171 221.782 229.206 221.34 229.342 220.924L236.009 200.587C237.138 197.128 239.333 194.114 242.281 191.979C245.228 189.844 248.775 188.697 252.415 188.702H291.707C292.441 188.702 293.145 188.994 293.664 189.512C294.182 190.031 294.474 190.735 294.474 191.469C294.474 192.202 294.182 192.906 293.664 193.425C293.145 193.944 292.441 194.235 291.707 194.235H252.415C249.941 194.232 247.531 195.011 245.528 196.462C243.525 197.913 242.033 199.96 241.266 202.311L234.599 222.648C234.417 223.202 234.065 223.685 233.593 224.027C233.121 224.37 232.554 224.555 231.971 224.556Z" fill="#F9154A"/>
<path d="M255.579 231.911H245.608V245.337H255.579V231.911Z" fill="#FF688B"/>
<path d="M253.133 245.336H248.056V282.529H253.133V245.336Z" fill="#FF688B"/>
<path d="M253.134 245.336H250.595V282.529H253.134V245.336Z" fill="#F9154A"/>
<path d="M255.581 231.911H250.595V245.337H255.581V231.911Z" fill="#F9154A"/>
<path d="M279.424 281.069H250.594V282.845H281.088V282.733C281.088 282.292 280.912 281.869 280.6 281.557C280.288 281.245 279.865 281.07 279.424 281.069Z" fill="#F9154A"/>
<path d="M291.707 188.705H252.414C248.775 188.7 245.228 189.847 242.28 191.982C239.333 194.117 237.138 197.131 236.009 200.59L235.618 201.781C237.066 198.609 239.227 196.396 241.424 194.858C244.714 192.555 248.709 191.478 252.726 191.478H294.473C294.473 191.478 294.473 191.478 294.473 191.472C294.472 190.738 294.18 190.036 293.661 189.517C293.143 188.999 292.44 188.707 291.707 188.705Z" fill="#FF688B"/>
<g opacity="0.38">
<path d="M288.224 194.238L287.653 196.296L273.693 197.26L274.533 194.238H288.224Z" fill="#011721"/>
</g>
<path d="M88.8406 186.33H85.9756V290.965H88.8406V186.33Z" fill="#F9154A"/>
<path d="M221.074 186.33H218.209V290.965H221.074V186.33Z" fill="#F9154A"/>
<path d="M237.13 184.987H66.9651C66.2822 184.987 65.7285 185.541 65.7285 186.224V186.437C65.7285 187.12 66.2822 187.674 66.9651 187.674H237.13C237.813 187.674 238.367 187.12 238.367 186.437V186.224C238.367 185.541 237.813 184.987 237.13 184.987Z" fill="#F9154A"/>
<path d="M121.632 184.988H176.937C177.24 184.987 177.53 184.865 177.744 184.65C177.958 184.435 178.079 184.144 178.079 183.841C178.079 183.538 177.958 183.247 177.744 183.032C177.53 182.817 177.24 182.696 176.937 182.694H121.632C121.329 182.696 121.038 182.817 120.824 183.032C120.61 183.247 120.49 183.538 120.49 183.841C120.49 184.144 120.61 184.435 120.824 184.65C121.038 184.865 121.329 184.987 121.632 184.988Z" fill="#011721"/>
<path d="M121.679 183.068H163.246L151.714 152.649H110.146L121.679 183.068Z" fill="#011721"/>
<path d="M138.425 172.766C139.606 172.464 140.237 170.947 139.835 169.378C139.434 167.808 138.151 166.781 136.97 167.084C135.79 167.386 135.158 168.903 135.56 170.472C135.962 172.041 137.245 173.068 138.425 172.766Z" fill="#05293C"/>
<path d="M166.209 65.0391C165.216 65.0402 164.239 64.784 163.375 64.2955C162.51 63.8069 161.787 63.1027 161.276 62.2515C159.3 58.967 155.852 57.006 152.048 57.006C148.245 57.006 144.795 58.967 142.82 62.2515C142.021 63.5312 140.751 64.4459 139.285 64.7983C137.818 65.1507 136.271 64.9125 134.979 64.1353C133.686 63.358 132.75 62.1038 132.374 60.643C131.997 59.1823 132.209 57.6321 132.965 56.3266C137.039 49.553 144.173 45.5088 152.048 45.5088C159.924 45.5088 167.057 49.553 171.131 56.3266C171.656 57.1987 171.939 58.1944 171.953 59.2119C171.967 60.2294 171.71 61.2324 171.21 62.1185C170.709 63.0045 169.983 63.7419 169.104 64.2553C168.226 64.7688 167.226 65.0399 166.209 65.041V65.0391Z" fill="#F9154A"/>
<path d="M180.477 56.4788C179.484 56.4799 178.508 56.2237 177.643 55.7351C176.779 55.2466 176.056 54.5424 175.544 53.6912C170.535 45.36 161.751 40.3859 152.048 40.3859C142.346 40.3859 133.561 45.3552 128.552 53.6912C128.168 54.3476 127.657 54.9212 127.049 55.3788C126.441 55.8364 125.749 56.1688 125.012 56.3569C124.275 56.545 123.508 56.585 122.755 56.4746C122.003 56.3641 121.279 56.1054 120.627 55.7135C119.976 55.3216 119.408 54.8042 118.957 54.1913C118.507 53.5784 118.182 52.8822 118.003 52.143C117.823 51.4039 117.792 50.6364 117.911 49.8851C118.03 49.1338 118.297 48.4136 118.697 47.7662C125.698 36.1218 138.478 28.8877 152.048 28.8877C165.618 28.8877 178.398 36.1218 185.4 47.7662C185.924 48.6384 186.207 49.6339 186.221 50.6513C186.235 51.6687 185.978 52.6715 185.478 53.5574C184.977 54.4433 184.251 55.1806 183.372 55.694C182.494 56.2074 181.495 56.4785 180.477 56.4797V56.4788Z" fill="#F9154A"/>
<path d="M108.519 47.4195C107.501 47.4184 106.502 47.1473 105.624 46.6339C104.745 46.1205 104.019 45.3832 103.518 44.4973C103.018 43.6113 102.762 42.6084 102.775 41.591C102.789 40.5735 103.073 39.578 103.597 38.706C113.77 21.7913 132.335 11.2793 152.048 11.2793C171.761 11.2793 190.326 21.7913 200.499 38.706C201.263 40.0121 201.483 41.567 201.108 43.0336C200.734 44.5001 199.797 45.7599 198.499 46.5398C197.202 47.3196 195.65 47.5566 194.179 47.1992C192.708 46.8419 191.438 45.919 190.643 44.6309C182.415 30.9472 167.987 22.7775 152.048 22.7775C136.109 22.7775 121.68 30.9472 113.452 44.6309C112.941 45.4823 112.217 46.1867 111.353 46.6754C110.488 47.1641 109.512 47.4205 108.519 47.4195Z" fill="#F9154A"/>
<path d="M152.048 77.5912C156.451 77.5912 160.021 74.0216 160.021 69.6184C160.021 65.2151 156.451 61.6455 152.048 61.6455C147.645 61.6455 144.075 65.2151 144.075 69.6184C144.075 74.0216 147.645 77.5912 152.048 77.5912Z" fill="#F9154A"/>
<path d="M146.284 137.955L124.088 131.45C123.678 131.33 123.307 131.104 123.012 130.795C122.717 130.486 122.509 130.105 122.408 129.69C122.307 129.275 122.317 128.841 122.437 128.431C122.557 128.021 122.783 127.65 123.092 127.356L139.824 111.388L156.554 95.4183C156.863 95.1234 157.244 94.915 157.659 94.814C158.074 94.7131 158.508 94.7232 158.918 94.8433C159.328 94.9634 159.699 95.1892 159.994 95.4982C160.289 95.8072 160.497 96.1883 160.598 96.6033L166.063 119.078L171.533 141.55C171.633 141.965 171.623 142.399 171.503 142.809C171.383 143.219 171.157 143.59 170.848 143.885C170.539 144.18 170.158 144.388 169.743 144.489C169.328 144.59 168.894 144.58 168.484 144.46L146.284 137.955Z" fill="#ED9A40"/>
<path d="M146.906 135.833L125.949 129.691C125.807 129.649 125.679 129.572 125.578 129.465C125.476 129.359 125.404 129.227 125.369 129.084C125.334 128.941 125.338 128.791 125.379 128.65C125.421 128.509 125.499 128.381 125.606 128.279L141.406 113.197L157.198 98.1146C157.304 98.013 157.436 97.9412 157.579 97.9065C157.722 97.8718 157.872 97.8753 158.013 97.9167C158.154 97.9582 158.282 98.0361 158.384 98.1426C158.486 98.2491 158.557 98.3805 158.592 98.5236L163.753 119.748L168.913 140.973C168.948 141.116 168.944 141.266 168.902 141.407C168.861 141.548 168.783 141.676 168.676 141.777C168.57 141.879 168.439 141.951 168.296 141.986C168.153 142.021 168.003 142.017 167.862 141.976L146.906 135.833Z" fill="#FFB871"/>
<path d="M151.88 124.885L148.628 123.932L151.75 109.746L156.909 111.258L151.88 124.885Z" fill="#F9154A"/>
<path d="M149.202 130.685C150.687 130.685 151.89 129.481 151.89 127.997C151.89 126.512 150.687 125.309 149.202 125.309C147.717 125.309 146.514 126.512 146.514 127.997C146.514 129.481 147.717 130.685 149.202 130.685Z" fill="#F9154A"/>
<path d="M87.4548 97.9856L83.5959 97.2297L85.0724 85.7335L89.0048 85.1123L87.4548 97.9856Z" fill="#05293C"/>
<path d="M89.0049 85.1123L89.497 85.269L87.882 97.9856H87.4548L89.0049 85.1123Z" fill="#011721"/>
<path d="M85.3085 86.0102L88.5682 85.584L87.1854 97.5141L84.0117 97.0392L85.3085 86.0102Z" fill="white"/>
<path d="M48.8291 162.936L61.239 216.632L42.7551 280.776C41.6981 284.165 36.7078 283.457 36.639 279.908L35.2505 212.102L48.8291 162.936Z" fill="#011721"/>
<path d="M55.226 217.552L43.5023 268.876L39.762 282.973C41.0186 282.985 42.2801 282.294 42.7531 280.775L61.237 216.631L48.829 162.937L55.226 217.552Z" fill="#05293C"/>
<path d="M36.3723 267.175L36.6332 279.908C36.7058 283.457 41.6981 284.165 42.7493 280.775L46.265 268.589C46.265 268.589 43.5415 269.873 36.3723 267.175Z" fill="#D39266"/>
<path d="M47.8734 104.931C47.8734 104.931 65.8995 96.955 70.3059 86.8081C70.3059 86.8081 56.8219 77.2383 38.4068 77.2412C36.7364 77.2412 36.1554 79.4936 37.5764 80.3728C41.6245 82.8785 48.0215 85.5113 56.9337 88.7824L37.7924 95.0762L47.8734 104.931Z" fill="#FFE6E6"/>
<path d="M36.7967 78.8057C36.7665 79.1139 36.8237 79.4243 36.9618 79.7015C37.0999 79.9787 37.3132 80.2114 37.5774 80.3729C41.6255 82.8786 48.0225 85.5104 56.9347 88.7825L59.3477 88.3372L58.8279 87.9654C53.4161 83.8533 39.9914 79.746 36.7967 78.8057Z" fill="#F9CFCF"/>
<path d="M47.8735 104.93C47.8735 104.93 65.8996 96.9545 70.306 86.8076C70.306 86.8076 61.5496 96.7089 46.2451 98.926L43.6572 100.808L47.8735 104.93Z" fill="#F9CFCF"/>
<path d="M37.5773 80.3729C39.3625 81.4786 41.633 82.6119 44.347 83.8132C48.1782 80.7198 44.9395 77.6608 44.9204 77.6379C42.7609 77.3771 40.5878 77.2456 38.4126 77.2441C36.7373 77.2413 36.1563 79.4937 37.5773 80.3729Z" fill="#EDAC80"/>
<path d="M36.7967 78.8057C36.7665 79.1139 36.8237 79.4243 36.9618 79.7015C37.0999 79.9787 37.3132 80.2114 37.5774 80.3729C39.3626 81.4786 41.6331 82.6119 44.3471 83.8132C45.1871 83.1347 45.6736 82.46 45.9421 81.8159C41.9103 80.3442 38.2684 79.2395 36.7967 78.8057Z" fill="#D39266"/>
<path d="M41.7669 83.4904L42.5065 78.9033C42.5065 78.9033 34.1256 79.5723 30.09 80.4037C30.09 80.4037 24.6582 85.2669 33.9125 95.6221L39.5508 88.216L41.7669 83.4904Z" fill="#011721"/>
<path d="M39.2965 95.0459L39.0882 92.5096H42.4721L45.403 88.2676L40.8858 82.3359C40.8858 82.3359 39.4026 86.923 35.2122 87.4964L33.7634 84.9611C33.7634 84.9611 31.9009 86.9268 34.074 90.1865C34.074 90.1865 35.4654 92.9463 33.9154 95.6269L39.2965 95.0459Z" fill="#EDAC80"/>
<path d="M90.5768 93.1691C91.5439 91.4356 89.3421 89.6705 87.8666 90.9979C79.4121 98.6 66.2769 110.146 62.957 111.544L42.6852 96.2367C38.2252 92.87 31.7757 94.7927 29.9112 100.059C26.2578 110.38 21.4061 129.229 19.6372 159.39C19.6697 159.418 31.9926 170.042 48.827 162.933C49.3632 148.37 49.5075 133.3 49.0832 118.011L63.2189 122.613C63.2189 122.613 74.1017 122.718 90.5768 93.1691Z" fill="white"/>
<path d="M19.6374 159.392C21.1807 133.003 25.0921 115.275 28.4932 104.34C21.1119 128.066 11.3214 183.753 28.563 290.619C29.0905 293.885 33.7664 293.963 34.3837 290.714C38.8752 267.052 46.7716 218.769 48.8272 162.938C31.9928 170.044 19.6699 159.421 19.6374 159.392Z" fill="#011721"/>
<path d="M90.577 93.1695C91.0386 92.3439 90.7758 91.5144 90.2187 91.0117C90.1814 91.0767 79.3244 110.036 64.321 119.672C64.321 119.672 51.8786 117.221 45.3994 114.771C45.3994 114.771 48.4278 146.709 29.0457 164.195C34.1411 165.712 40.9911 166.243 48.8273 162.937C49.3634 148.373 49.5077 133.302 49.0834 118.013L63.2191 122.615C63.2191 122.615 74.1019 122.719 90.577 93.1695Z" fill="#FFE6E6"/>
<path d="M87.8667 90.9979C86.4189 92.2995 84.8287 93.7205 83.1841 95.1826C83.1841 95.1826 83.7833 98.9325 87.214 98.9258C88.3092 97.1398 89.4301 95.2342 90.5807 93.1691C91.5459 91.4356 89.3422 89.6705 87.8667 90.9979Z" fill="#EDAC80"/>
<path d="M85.3342 98.4552C85.9071 98.7748 86.5542 98.9374 87.2101 98.9263C88.3053 97.1402 89.4263 95.2347 90.5768 93.1695C91.0384 92.3439 90.7756 91.5144 90.2185 91.0117C90.208 91.0375 88.4295 94.1347 85.3342 98.4552Z" fill="#D39266"/>
<path d="M34.3837 290.712C38.8752 267.05 46.7716 218.768 48.8271 162.937C45.4155 164.377 42.1941 165.08 39.2192 165.3L39.2116 165.386C42.0402 205.736 32.5508 286.047 31.7041 293.094C32.9244 293.012 34.096 292.229 34.3837 290.712Z" fill="#05293C"/>
<path d="M36.5971 278.036C31.5752 280.474 26.6642 278.056 26.627 278.036C27.2328 282.151 27.8788 286.345 28.565 290.617C29.0925 293.883 33.7684 293.962 34.3857 290.713C35.0757 287.081 35.846 282.864 36.6621 278.134L36.5971 278.036Z" fill="#D39266"/>
<path d="M34.3837 290.713C35.0737 287.081 35.8439 282.864 36.66 278.134L36.595 278.038C35.5545 278.541 34.4396 278.871 33.2933 279.018C32.4944 286.451 31.8905 291.546 31.7041 293.096C32.9244 293.012 34.096 292.229 34.3837 290.713Z" fill="#EDAC80"/>
<path d="M42.7531 280.775L46.2651 268.589C46.2651 268.589 45.4346 268.971 43.5023 268.876L39.762 282.972C41.0186 282.984 42.2801 282.293 42.7531 280.775Z" fill="#EDAC80"/>
<path d="M109.623 89.1832C113.406 85.4005 113.406 79.2675 109.623 75.4847C105.841 71.702 99.7077 71.702 95.9249 75.4847C92.1422 79.2675 92.1422 85.4005 95.9249 89.1832C99.7077 92.966 105.841 92.966 109.623 89.1832Z" fill="#F9154A"/>
<path d="M97.9077 87.1992C97.7655 87.0572 97.6527 86.8886 97.5758 86.703C97.4988 86.5174 97.4592 86.3184 97.4592 86.1175C97.4592 85.9165 97.4988 85.7176 97.5758 85.5319C97.6527 85.3463 97.7655 85.1777 97.9077 85.0357L105.476 77.4671C105.764 77.1811 106.153 77.0205 106.559 77.0205C106.964 77.0205 107.353 77.1811 107.641 77.4671C107.926 77.7547 108.086 78.1436 108.086 78.5488C108.086 78.9541 107.926 79.3429 107.641 79.6306L100.071 87.1992C99.9292 87.3414 99.7606 87.4542 99.575 87.5311C99.3893 87.6081 99.1904 87.6477 98.9894 87.6477C98.7885 87.6477 98.5895 87.6081 98.4039 87.5311C98.2183 87.4542 98.0497 87.3414 97.9077 87.1992Z" fill="white"/>
<path d="M107.641 87.1992C107.353 87.4852 106.964 87.6457 106.559 87.6457C106.153 87.6457 105.764 87.4852 105.476 87.1992L97.9077 79.6305C97.7655 79.4885 97.6527 79.3199 97.5758 79.1343C97.4988 78.9487 97.4592 78.7497 97.4592 78.5488C97.4592 78.3478 97.4988 78.1489 97.5758 77.9632C97.6527 77.7776 97.7655 77.609 97.9077 77.467C98.0497 77.3248 98.2183 77.2121 98.4039 77.1351C98.5895 77.0582 98.7885 77.0186 98.9894 77.0186C99.1904 77.0186 99.3893 77.0582 99.575 77.1351C99.7606 77.2121 99.9292 77.3248 100.071 77.467L107.641 85.0356C107.926 85.3233 108.086 85.7121 108.086 86.1174C108.086 86.5227 107.926 86.9115 107.641 87.1992Z" fill="white"/>
<path d="M172.536 132.221C172.509 132.22 172.482 132.211 172.461 132.193C172.44 132.176 172.426 132.152 172.42 132.125L164.663 99.7293C164.659 99.714 164.659 99.6981 164.661 99.6826C164.663 99.667 164.669 99.6521 164.677 99.6387C164.685 99.6253 164.696 99.6136 164.709 99.6044C164.721 99.5951 164.736 99.5885 164.751 99.585C164.782 99.578 164.814 99.5835 164.841 99.6001C164.868 99.6167 164.887 99.6432 164.895 99.6738L172.651 132.07C172.655 132.085 172.656 132.101 172.654 132.116C172.652 132.132 172.646 132.147 172.638 132.16C172.63 132.174 172.62 132.185 172.607 132.195C172.594 132.204 172.58 132.211 172.564 132.214C172.555 132.218 172.546 132.22 172.536 132.221Z" fill="white"/>
<path d="M133.02 137.719C133.007 137.719 132.994 137.717 132.982 137.712L118.984 132.991C118.956 132.979 118.934 132.957 118.922 132.929C118.91 132.902 118.908 132.87 118.918 132.842C118.928 132.813 118.947 132.789 118.974 132.775C119 132.76 119.031 132.756 119.061 132.763L133.059 137.486C133.086 137.495 133.109 137.513 133.124 137.537C133.139 137.562 133.145 137.591 133.14 137.619C133.135 137.647 133.121 137.673 133.099 137.691C133.077 137.71 133.049 137.72 133.02 137.719Z" fill="white"/>
<path d="M206.04 25.4036C206.021 25.4027 206.002 25.3976 205.986 25.3884C205.969 25.3793 205.955 25.3665 205.944 25.351C205.897 25.2813 201.166 18.3309 191.77 11.8212C183.106 5.81595 168.591 -1.02925 148.64 0.449114C148.624 0.451288 148.608 0.450056 148.593 0.445492C148.578 0.440929 148.563 0.433141 148.551 0.422651C148.539 0.412162 148.529 0.399208 148.523 0.384657C148.516 0.370106 148.512 0.35429 148.512 0.338264C148.511 0.322693 148.513 0.307047 148.518 0.29222C148.523 0.277393 148.531 0.26368 148.541 0.251869C148.551 0.240058 148.563 0.230379 148.577 0.223394C148.591 0.216408 148.607 0.212252 148.622 0.211163C168.642 -1.28058 183.216 5.60476 191.912 11.6358C201.338 18.1714 206.093 25.1522 206.139 25.222C206.148 25.2349 206.154 25.2495 206.157 25.2649C206.161 25.2803 206.161 25.2961 206.158 25.3115C206.155 25.3269 206.148 25.3416 206.14 25.3546C206.131 25.3676 206.12 25.3788 206.106 25.3873C206.086 25.3997 206.063 25.4054 206.04 25.4036Z" fill="white"/>
</g>
<defs>
<clipPath id="clip0_1479_1790">
<rect width="310" height="293.11" fill="white"/>
</clipPath>
</defs>
</svg>
