<svg width="308" height="259" viewBox="0 0 308 259" fill="none" xmlns="http://www.w3.org/2000/svg">
<path d="M145.131 206.444H4.1683C3.0628 206.444 2.00257 206.005 1.22087 205.223C0.439159 204.441 0 203.381 0 202.276V4.1318C0.00962528 3.03264 0.453029 1.98177 1.2337 1.20793C2.01436 0.434104 3.06909 -4.21399e-05 4.1683 3.06786e-09H145.131C145.679 3.06787e-09 146.221 0.107815 146.726 0.317292C147.232 0.526769 147.692 0.833805 148.079 1.22087C148.466 1.60793 148.773 2.06744 148.982 2.57316C149.192 3.07888 149.3 3.62091 149.3 4.1683V202.276C149.3 202.823 149.192 203.365 148.982 203.871C148.773 204.377 148.466 204.836 148.079 205.223C147.692 205.61 147.232 205.917 146.726 206.127C146.221 206.336 145.679 206.444 145.131 206.444ZM4.1683 0.146001C3.11179 0.14793 2.09911 0.56848 1.35204 1.31554C0.60498 2.06261 0.18443 3.07529 0.1825 4.1318V202.276C0.18443 203.332 0.60498 204.345 1.35204 205.092C2.09911 205.839 3.11179 206.26 4.1683 206.261H145.131C146.188 206.26 147.201 205.839 147.948 205.092C148.695 204.345 149.115 203.332 149.117 202.276V4.1318C149.115 3.07529 148.695 2.06261 147.948 1.31554C147.201 0.56848 146.188 0.14793 145.131 0.146001H4.1683Z" fill="#EBEBEB"/>
<path d="M303.031 206.444H162.068C160.962 206.444 159.902 206.005 159.12 205.223C158.339 204.441 157.899 203.381 157.899 202.276V4.1318C157.909 3.03264 158.352 1.98177 159.133 1.20793C159.914 0.434104 160.969 -4.21399e-05 162.068 3.06786e-09H303.031C304.136 3.06787e-09 305.196 0.439159 305.978 1.22087C306.76 2.00257 307.199 3.0628 307.199 4.1683V202.276C307.199 203.381 306.76 204.441 305.978 205.223C305.196 206.005 304.136 206.444 303.031 206.444ZM162.068 0.146001C161.011 0.14793 159.999 0.56848 159.251 1.31554C158.504 2.06261 158.084 3.07529 158.082 4.1318V202.276C158.084 203.332 158.504 204.345 159.251 205.092C159.999 205.839 161.011 206.26 162.068 206.261H303.031C304.087 206.26 305.1 205.839 305.847 205.092C306.594 204.345 307.015 203.332 307.017 202.276V4.1318C307.015 3.07529 306.594 2.06261 305.847 1.31554C305.1 0.56848 304.087 0.14793 303.031 0.146001H162.068Z" fill="#EBEBEB"/>
<path d="M266.319 26.5209H246.689C240.464 26.5209 235.418 31.5672 235.418 37.7921V57.4218C235.418 63.6467 240.464 68.693 246.689 68.693H266.319C272.544 68.693 277.59 63.6467 277.59 57.4218V37.7921C277.59 31.5672 272.544 26.5209 266.319 26.5209Z" fill="#F0F0F0"/>
<path d="M261.749 41.6465C261.749 45.2381 259.924 48.1435 256.333 48.1435C252.741 48.1435 250.916 45.2235 250.916 41.6465C250.916 38.0695 252.741 35.1422 256.333 35.1422C259.924 35.1422 261.749 38.0549 261.749 41.6465Z" fill="#FAFAFA"/>
<path d="M256.332 60.0644H266.355V54.1076C266.355 50.8153 261.866 48.1435 256.332 48.1435C250.799 48.1435 246.31 50.8153 246.31 54.1076V60.0644H256.332Z" fill="#FAFAFA"/>
<path d="M81.6872 40.6537H67.9778C63.6317 40.6537 60.1084 44.1769 60.1084 48.5231V62.2325C60.1084 66.5786 63.6317 70.1019 67.9778 70.1019H81.6872C86.0333 70.1019 89.5566 66.5786 89.5566 62.2325V48.5231C89.5566 44.1769 86.0333 40.6537 81.6872 40.6537Z" fill="#E6E6E6"/>
<path d="M74.2336 56.9765C74.6759 56.3622 75.1879 55.8012 75.7593 55.3048C76.1494 54.96 76.5107 54.584 76.8397 54.1806C77.0649 53.8822 77.1855 53.5179 77.1828 53.144C77.1908 52.8887 77.1349 52.6355 77.0202 52.4073C76.9055 52.1791 76.7355 51.9831 76.5258 51.8373C76.0091 51.4985 75.3982 51.3324 74.7811 51.3628C74.1343 51.3475 73.494 51.4957 72.9196 51.7935C72.3752 52.0868 71.9056 52.5014 71.5472 53.0053L68.8535 51.4285C69.4804 50.4822 70.3537 49.7249 71.3793 49.2385C72.5626 48.6896 73.8568 48.4223 75.1607 48.4574C76.6099 48.389 78.045 48.7688 79.2706 49.5451C79.762 49.8762 80.1616 50.3263 80.4322 50.8535C80.7028 51.3806 80.8356 51.9677 80.8182 52.56C80.8302 53.111 80.7258 53.6582 80.5116 54.166C80.3344 54.5929 80.0877 54.9876 79.7816 55.334C79.4896 55.6552 79.1173 56.0202 78.6574 56.4363C78.2172 56.8106 77.8139 57.2261 77.4529 57.6773C77.1936 58.027 77.0599 58.454 77.0733 58.8891H73.708C73.681 58.2125 73.8646 57.5443 74.2336 56.9765ZM73.8759 63.8896C73.6754 63.7042 73.5169 63.4779 73.4111 63.2261C73.3053 62.9742 73.2547 62.7026 73.2627 62.4296C73.2569 62.1651 73.308 61.9024 73.4125 61.6593C73.517 61.4162 73.6726 61.1984 73.8686 61.0207C74.2963 60.6533 74.8414 60.4512 75.4053 60.4512C75.9691 60.4512 76.5143 60.6533 76.9419 61.0207C77.1366 61.1991 77.2908 61.4172 77.3941 61.6602C77.4973 61.9033 77.5473 62.1656 77.5405 62.4296C77.5485 62.7026 77.4979 62.9742 77.3921 63.2261C77.2863 63.4779 77.1279 63.7042 76.9273 63.8896C76.5104 64.2702 75.9662 64.4813 75.4016 64.4813C74.8371 64.4813 74.2929 64.2702 73.8759 63.8896Z" fill="#FAFAFA"/>
<path d="M264.297 141.467H274.904C276.521 141.467 278.071 142.109 279.214 143.252C280.357 144.395 281 145.946 281 147.562V158.169C281 159.784 280.358 161.332 279.216 162.474C278.075 163.616 276.526 164.257 274.911 164.257H264.297C262.683 164.257 261.134 163.616 259.992 162.474C258.85 161.332 258.209 159.784 258.209 158.169V147.562C258.209 145.948 258.85 144.399 259.992 143.257C261.134 142.115 262.683 141.474 264.297 141.474V141.467Z" fill="#EBEBEB"/>
<path d="M269.13 154.096C269.473 153.621 269.87 153.187 270.312 152.804C270.616 152.536 270.897 152.243 271.152 151.928C271.326 151.699 271.418 151.419 271.415 151.132C271.422 150.934 271.379 150.738 271.29 150.562C271.201 150.386 271.068 150.235 270.904 150.125C270.505 149.858 270.032 149.728 269.553 149.752C269.064 149.738 268.579 149.846 268.143 150.068C267.706 150.29 267.333 150.618 267.057 151.022L264.969 149.803C265.451 149.065 266.128 148.473 266.925 148.095C267.839 147.672 268.838 147.465 269.845 147.489C270.968 147.435 272.08 147.731 273.028 148.336C273.41 148.593 273.72 148.943 273.929 149.353C274.139 149.763 274.241 150.219 274.225 150.679C274.234 151.105 274.154 151.527 273.992 151.92C273.854 152.252 273.662 152.558 273.422 152.826C273.149 153.126 272.859 153.411 272.553 153.68C272.215 153.971 271.903 154.291 271.619 154.636C271.423 154.91 271.321 155.24 271.327 155.578H268.728C268.706 155.054 268.846 154.536 269.13 154.096ZM268.852 159.447C268.7 159.306 268.58 159.134 268.499 158.942C268.418 158.751 268.38 158.545 268.385 158.337C268.381 158.132 268.42 157.929 268.499 157.741C268.578 157.552 268.696 157.382 268.845 157.242C269.177 156.959 269.599 156.803 270.035 156.803C270.471 156.803 270.893 156.959 271.225 157.242C271.375 157.381 271.495 157.551 271.575 157.74C271.656 157.928 271.695 158.132 271.692 158.337C271.697 158.545 271.657 158.752 271.575 158.943C271.493 159.135 271.371 159.306 271.218 159.447C271.062 159.599 270.876 159.718 270.673 159.797C270.47 159.876 270.253 159.913 270.035 159.907C269.817 159.912 269.601 159.874 269.398 159.795C269.195 159.716 269.009 159.598 268.852 159.447Z" fill="#FAFAFA"/>
<path d="M56.5895 84.8187H42.8801C38.534 84.8187 35.0107 88.3419 35.0107 92.6881V106.397C35.0107 110.744 38.534 114.267 42.8801 114.267H56.5895C60.9357 114.267 64.4589 110.744 64.4589 106.397V92.6881C64.4589 88.3419 60.9357 84.8187 56.5895 84.8187Z" fill="#EBEBEB"/>
<path d="M49.7348 91.25C48.8599 91.25 47.9935 91.4224 47.1853 91.7575C46.3771 92.0925 45.6428 92.5836 45.0245 93.2025C44.4062 93.8215 43.916 94.5563 43.5818 95.3649C43.2477 96.1735 43.0762 97.04 43.0772 97.9149C43.0772 101.565 46.0556 110.413 49.7348 110.413C53.414 110.413 56.3924 101.587 56.3924 97.9149C56.3933 97.04 56.2218 96.1735 55.8877 95.3649C55.5535 94.5563 55.0633 93.8215 54.445 93.2025C53.8267 92.5836 53.0924 92.0925 52.2842 91.7575C51.476 91.4224 50.6097 91.25 49.7348 91.25ZM49.7348 99.9224C49.3377 99.9224 48.9496 99.8047 48.6194 99.5841C48.2893 99.3635 48.032 99.05 47.8801 98.6831C47.7281 98.3163 47.6884 97.9127 47.7658 97.5233C47.8433 97.1338 48.0345 96.7761 48.3152 96.4954C48.596 96.2146 48.9537 96.0234 49.3431 95.946C49.7325 95.8685 50.1362 95.9083 50.503 96.0602C50.8698 96.2122 51.1833 96.4695 51.4039 96.7996C51.6245 97.1297 51.7423 97.5179 51.7423 97.9149C51.7346 98.4422 51.5197 98.9454 51.144 99.3156C50.7684 99.6858 50.2622 99.8933 49.7348 99.8932V99.9224Z" fill="#FAFAFA"/>
<path d="M52.6768 139.751C52.891 138.399 52.891 137.022 52.6768 135.671L50.6255 135.4C50.46 134.647 50.2153 133.913 49.8955 133.21L51.3993 131.787C50.774 130.57 49.9639 129.456 48.9976 128.487L47.1726 129.48C46.6084 128.969 45.9918 128.519 45.333 128.137L45.7126 126.1C44.5002 125.476 43.1969 125.048 41.8509 124.83L40.9676 126.692C40.5953 126.655 40.2376 126.633 39.8288 126.633C39.42 126.633 39.055 126.633 38.6827 126.692L37.7994 124.83C36.4463 125.043 35.1355 125.469 33.9158 126.093L34.2954 128.13C33.6366 128.511 33.02 128.962 32.4558 129.473L30.6308 128.48C29.6645 129.449 28.8544 130.562 28.2291 131.78L29.7329 133.203C29.4131 133.905 29.1684 134.639 29.0029 135.393L26.9589 135.663C26.7351 137.014 26.7351 138.393 26.9589 139.744L29.0029 140.014C29.1684 140.768 29.4131 141.502 29.7329 142.204L28.2291 143.628C28.8529 144.846 29.6633 145.959 30.6308 146.927L32.4558 145.934C33.02 146.446 33.6366 146.896 34.2954 147.278L33.9158 149.314C35.1355 149.938 36.4463 150.364 37.7994 150.577L38.6827 148.716C39.055 148.752 39.4127 148.774 39.8288 148.774C40.2449 148.774 40.5588 148.774 40.9676 148.716L41.8509 150.577C43.204 150.364 44.5148 149.938 45.7345 149.314L45.3549 147.278C46.0137 146.896 46.6303 146.446 47.1945 145.934L49.0195 146.927C49.9858 145.958 50.7959 144.845 51.4212 143.628L49.9393 142.189C50.2582 141.487 50.5029 140.753 50.6693 139.999L52.6768 139.751ZM39.8288 142.255C38.9287 142.257 38.0484 141.991 37.2994 141.492C36.5504 140.993 35.9663 140.282 35.6212 139.451C35.2761 138.62 35.1854 137.705 35.3606 136.822C35.5359 135.939 35.9692 135.128 36.6056 134.491C37.2421 133.855 38.0532 133.422 38.936 133.246C39.8189 133.071 40.734 133.162 41.5653 133.507C42.3966 133.852 43.1068 134.436 43.606 135.185C44.1052 135.934 44.3708 136.814 44.3694 137.715C44.3675 138.918 43.8885 140.072 43.0373 140.923C42.1862 141.774 41.0324 142.253 39.8288 142.255Z" fill="#EBEBEB"/>
<path d="M59.2614 154.439C59.3138 154.101 59.3407 153.759 59.3417 153.417C59.3412 153.075 59.3144 152.733 59.2614 152.395L58.2321 152.263C58.1541 151.889 58.0366 151.525 57.8817 151.176L58.6117 150.446C58.2993 149.834 57.8929 149.275 57.4072 148.789L56.4947 149.285C56.2112 149.031 55.9031 148.806 55.5749 148.613L55.7647 147.599C55.1553 147.285 54.4998 147.071 53.8229 146.964L53.3849 147.898C53.1951 147.898 53.0053 147.898 52.8155 147.898C52.6257 147.898 52.4286 147.898 52.2388 147.898L51.8008 146.964C51.1239 147.071 50.4685 147.285 49.859 147.599L50.0488 148.613C49.7207 148.806 49.4125 149.031 49.129 149.285L48.2165 148.789C47.7308 149.275 47.3244 149.834 47.012 150.446L47.742 151.176C47.5871 151.525 47.4697 151.889 47.3916 152.263L46.3696 152.395C46.313 152.732 46.2861 153.074 46.2893 153.417C46.2867 153.759 46.3136 154.101 46.3696 154.439L47.3916 154.57C47.4697 154.942 47.5872 155.304 47.742 155.651L47.012 156.381C47.3251 156.99 47.7315 157.547 48.2165 158.03L49.129 157.534C49.4088 157.792 49.7174 158.018 50.0488 158.206L49.859 159.22C50.4685 159.534 51.1239 159.748 51.8008 159.855L52.2388 158.921C52.6199 158.96 53.0039 158.96 53.3849 158.921L53.8229 159.855C54.4998 159.748 55.1553 159.534 55.7647 159.22L55.5749 158.206C55.9063 158.018 56.2149 157.792 56.4947 157.534L57.4072 158.03C57.8923 157.547 58.2987 156.99 58.6117 156.381L57.8817 155.651C58.0366 155.304 58.154 154.942 58.2321 154.57L59.2614 154.439ZM52.8374 155.687C52.3884 155.687 51.9495 155.554 51.5761 155.305C51.2028 155.055 50.9118 154.7 50.7399 154.286C50.5681 153.871 50.5231 153.414 50.6107 152.974C50.6983 152.534 50.9146 152.129 51.2321 151.811C51.5496 151.494 51.9541 151.278 52.3945 151.19C52.8349 151.103 53.2914 151.148 53.7062 151.319C54.1211 151.491 54.4756 151.782 54.7251 152.156C54.9746 152.529 55.1077 152.968 55.1077 153.417C55.1059 154.015 54.8691 154.588 54.4484 155.012C54.0278 155.437 53.457 155.679 52.8593 155.687H52.8374Z" fill="#E0E0E0"/>
<path d="M284.81 139.707C285.085 139.504 285.346 139.282 285.591 139.043C285.832 138.8 286.054 138.539 286.255 138.262L285.627 137.444C285.835 137.126 286.006 136.786 286.138 136.43H287.175C287.388 135.779 287.496 135.099 287.496 134.415L286.496 134.123C286.481 133.743 286.422 133.365 286.321 132.999L287.175 132.415C286.968 131.762 286.655 131.148 286.248 130.597L285.277 130.94C285.158 130.792 285.032 130.651 284.897 130.517C284.759 130.378 284.62 130.254 284.474 130.13L284.817 129.159C284.262 128.759 283.649 128.446 282.999 128.232L282.415 129.086C282.045 128.991 281.666 128.933 281.284 128.911L280.992 127.918C280.307 127.916 279.627 128.024 278.977 128.239V129.268C278.622 129.406 278.282 129.58 277.962 129.787L277.138 129.159C276.579 129.567 276.086 130.06 275.678 130.619L276.305 131.437C276.099 131.759 275.926 132.102 275.787 132.459H274.758C274.546 133.109 274.438 133.789 274.437 134.473L275.429 134.765C275.451 135.145 275.51 135.521 275.605 135.89L274.75 136.481C274.965 137.131 275.277 137.744 275.678 138.299L276.648 137.948C276.773 138.094 276.897 138.24 277.035 138.379C277.174 138.518 277.313 138.642 277.459 138.758L277.116 139.729C277.666 140.137 278.28 140.45 278.933 140.656L279.517 139.802C279.884 139.904 280.261 139.963 280.642 139.978L280.934 140.978C281.62 140.977 282.303 140.868 282.956 140.656V139.62C283.311 139.485 283.651 139.314 283.97 139.109L284.81 139.707ZM279.386 136.057C279.069 135.74 278.853 135.335 278.765 134.895C278.678 134.455 278.723 133.998 278.895 133.583C279.066 133.169 279.357 132.814 279.731 132.565C280.104 132.316 280.543 132.182 280.992 132.182C281.441 132.182 281.88 132.316 282.253 132.565C282.626 132.814 282.917 133.169 283.089 133.583C283.261 133.998 283.306 134.455 283.219 134.895C283.131 135.335 282.915 135.74 282.598 136.057C282.387 136.269 282.137 136.436 281.861 136.551C281.585 136.665 281.289 136.723 280.99 136.722C280.692 136.722 280.396 136.662 280.121 136.547C279.846 136.431 279.596 136.262 279.386 136.05V136.057Z" fill="#F0F0F0"/>
<path d="M179.559 42.8948V31.5141L185.15 30.733V42.1064L179.559 42.8948Z" fill="#263238"/>
<path d="M160.966 49.2239L156.775 42.559L160.345 39.9967L164.528 46.6616L160.966 49.2239Z" fill="#263238"/>
<path d="M200.174 41.6538L204.364 33.8136L207.926 35.3685L203.744 43.216L200.174 41.6538Z" fill="#263238"/>
<g opacity="0.5">
<path d="M179.559 42.8948V31.5141L185.15 30.733V42.1064L179.559 42.8948Z" fill="white"/>
<path d="M160.966 49.2239L156.775 42.559L160.345 39.9967L164.528 46.6616L160.966 49.2239Z" fill="white"/>
<path d="M200.174 41.6538L204.364 33.8136L207.926 35.3685L203.744 43.216L200.174 41.6538Z" fill="white"/>
</g>
<path d="M185.946 32.5653L178.763 33.58C178.502 33.6282 178.234 33.6173 177.978 33.5481C177.722 33.4789 177.485 33.3531 177.284 33.1802C177.083 33.0072 176.923 32.7913 176.817 32.5485C176.71 32.3056 176.659 32.042 176.668 31.7769C176.684 31.1973 176.903 30.6416 177.285 30.2058C177.668 29.77 178.19 29.4814 178.763 29.3898L185.946 28.3824C186.206 28.3344 186.474 28.3452 186.729 28.414C186.985 28.4828 187.222 28.6079 187.423 28.78C187.623 28.9522 187.783 29.1671 187.89 29.409C187.997 29.651 188.049 29.9138 188.041 30.1782C188.023 30.7574 187.805 31.3124 187.422 31.7479C187.04 32.1834 186.518 32.4724 185.946 32.5653Z" fill="#263238"/>
<path d="M161.505 39.8215L156.184 43.6467C156.073 43.7392 155.945 43.808 155.806 43.8487C155.668 43.8895 155.523 43.9013 155.38 43.8835C155.236 43.8657 155.099 43.8186 154.974 43.7452C154.85 43.6719 154.743 43.5737 154.658 43.4569C154.518 43.1892 154.482 42.8789 154.557 42.5861C154.633 42.2934 154.814 42.0392 155.067 41.8728L160.396 38.0549C160.505 37.9615 160.633 37.892 160.771 37.8507C160.909 37.8095 161.054 37.7974 161.197 37.8152C161.34 37.8331 161.477 37.8805 161.601 37.9544C161.724 38.0284 161.831 38.1273 161.914 38.2447C162.054 38.5114 162.09 38.8206 162.014 39.1121C161.939 39.4036 161.757 39.6565 161.505 39.8215Z" fill="#263238"/>
<path d="M208.525 36.2883L203.196 33.9669C203.069 33.9024 202.957 33.8121 202.866 33.7019C202.776 33.5917 202.709 33.464 202.671 33.3267C202.633 33.1895 202.623 33.0457 202.643 32.9046C202.663 32.7635 202.712 32.6281 202.787 32.5069C202.92 32.2337 203.15 32.0193 203.431 31.9048C203.713 31.7903 204.027 31.7837 204.313 31.8864L209.635 34.2151C209.763 34.2779 209.877 34.3673 209.969 34.4773C210.061 34.5873 210.128 34.7155 210.167 34.8534C210.205 34.9913 210.214 35.1358 210.193 35.2774C210.172 35.4191 210.121 35.5546 210.043 35.6751C209.91 35.9464 209.682 36.1591 209.402 36.2723C209.121 36.3854 208.809 36.3911 208.525 36.2883Z" fill="#263238"/>
<path opacity="0.7" d="M185.946 32.5653L178.763 33.58C178.502 33.6282 178.234 33.6173 177.978 33.5481C177.722 33.4789 177.485 33.3531 177.284 33.1802C177.083 33.0072 176.923 32.7913 176.817 32.5485C176.71 32.3056 176.659 32.042 176.668 31.7769C176.684 31.1973 176.903 30.6416 177.285 30.2058C177.668 29.77 178.19 29.4814 178.763 29.3898L185.946 28.3824C186.206 28.3344 186.474 28.3452 186.729 28.414C186.985 28.4828 187.222 28.6079 187.423 28.78C187.623 28.9522 187.783 29.1671 187.89 29.409C187.997 29.651 188.049 29.9138 188.041 30.1782C188.023 30.7574 187.805 31.3124 187.422 31.7479C187.04 32.1834 186.518 32.4724 185.946 32.5653Z" fill="white"/>
<path opacity="0.7" d="M161.505 39.8215L156.184 43.6467C156.073 43.7392 155.945 43.808 155.806 43.8487C155.668 43.8895 155.523 43.9013 155.38 43.8835C155.236 43.8657 155.099 43.8186 154.974 43.7452C154.85 43.6719 154.743 43.5737 154.658 43.4569C154.518 43.1892 154.482 42.8789 154.557 42.5861C154.633 42.2934 154.814 42.0392 155.067 41.8728L160.396 38.0549C160.505 37.9615 160.633 37.892 160.771 37.8507C160.909 37.8095 161.054 37.7974 161.197 37.8152C161.34 37.8331 161.477 37.8805 161.601 37.9544C161.724 38.0284 161.831 38.1273 161.914 38.2447C162.054 38.5114 162.09 38.8206 162.014 39.1121C161.939 39.4036 161.757 39.6565 161.505 39.8215Z" fill="white"/>
<path opacity="0.7" d="M208.525 36.2883L203.196 33.9669C203.069 33.9024 202.957 33.8121 202.866 33.7019C202.776 33.5917 202.709 33.464 202.671 33.3267C202.633 33.1895 202.623 33.0457 202.643 32.9046C202.663 32.7635 202.712 32.6281 202.787 32.5069C202.92 32.2337 203.15 32.0193 203.431 31.9048C203.713 31.7903 204.027 31.7837 204.313 31.8864L209.635 34.2151C209.763 34.2779 209.877 34.3673 209.969 34.4773C210.061 34.5873 210.128 34.7155 210.167 34.8534C210.205 34.9913 210.214 35.1358 210.193 35.2774C210.172 35.4191 210.121 35.5546 210.043 35.6751C209.91 35.9464 209.682 36.1591 209.402 36.2723C209.121 36.3854 208.809 36.3911 208.525 36.2883Z" fill="white"/>
<path d="M182.355 114.099C162.915 116.829 147.154 103.288 147.154 83.8478C147.154 64.4079 162.915 46.428 182.355 43.6978C201.794 40.9676 217.555 54.5091 217.555 73.949L222.359 73.2774C222.359 51.1803 204.444 35.7919 182.355 38.8944C160.265 41.9969 142.351 62.4296 142.351 84.5194C142.351 106.609 160.257 122.005 182.355 118.902V114.099Z" fill="#F9154A"/>
<path d="M168.368 103.833L165.741 108.752L166.772 109.303L169.398 104.383L168.368 103.833Z" fill="#263238"/>
<path d="M197.924 48.4879L195.297 53.4077L196.327 53.9579L198.954 49.0381L197.924 48.4879Z" fill="#263238"/>
<path d="M154.707 66.1686L154.239 67.239L158.788 69.2255L159.256 68.1551L154.707 66.1686Z" fill="#263238"/>
<path d="M167.21 53.6841L166.217 54.3031L168.836 58.5039L169.829 57.8849L167.21 53.6841Z" fill="#263238"/>
<path d="M158.695 95.1737L154.14 98.4421L154.821 99.3911L159.376 96.1227L158.695 95.1737Z" fill="#263238"/>
<path d="M209.886 58.419L205.331 61.6874L206.012 62.6364L210.567 59.368L209.886 58.419Z" fill="#263238"/>
<path d="M157.017 81.2801L150.012 82.2646L150.337 84.5779L157.342 83.5934L157.017 81.2801Z" fill="#263238"/>
<path d="M183.523 46.72H181.187V53.728H183.523V46.72Z" fill="#263238"/>
<path d="M183.523 104.069H181.187V111.077H183.523V104.069Z" fill="#263238"/>
<path d="M173.31 71.3064C173.038 71.58 172.886 71.95 172.886 72.3357C172.886 72.7214 173.038 73.0915 173.31 73.365L181.15 80.0956L183.202 77.7523L175.369 71.0144C175.215 70.8971 175.039 70.8115 174.852 70.7627C174.665 70.7138 174.47 70.7027 174.279 70.7298C174.087 70.757 173.903 70.822 173.737 70.9209C173.57 71.0199 173.425 71.151 173.31 71.3064Z" fill="#F9154A"/>
<path opacity="0.4" d="M173.31 71.3064C173.038 71.58 172.886 71.95 172.886 72.3357C172.886 72.7214 173.038 73.0915 173.31 73.365L181.15 80.0956L183.202 77.7523L175.369 71.0144C175.215 70.8971 175.039 70.8115 174.852 70.7627C174.665 70.7138 174.47 70.7027 174.279 70.7298C174.087 70.757 173.903 70.822 173.737 70.9209C173.57 71.0199 173.425 71.151 173.31 71.3064Z" fill="white"/>
<path d="M225.782 72.2116L219.935 80.0445L214.095 73.8541L225.782 72.2116Z" fill="#F9154A"/>
<path d="M195.056 121.253C194.364 121.177 193.694 120.963 193.085 120.626L194.151 118.436C194.691 118.751 195.285 118.964 195.903 119.063C196.563 119.17 197.236 119.17 197.896 119.063C198.507 119.002 199.095 118.797 199.611 118.465C199.796 118.355 199.95 118.201 200.06 118.016C200.17 117.831 200.231 117.621 200.239 117.406C200.247 117.246 200.202 117.088 200.111 116.956C200.02 116.824 199.888 116.726 199.735 116.676C199.217 116.502 198.681 116.385 198.137 116.326C197.531 116.237 196.932 116.113 196.341 115.954C195.88 115.819 195.463 115.568 195.129 115.224C194.768 114.804 194.587 114.258 194.625 113.705C194.622 112.954 194.843 112.22 195.26 111.596C195.724 110.92 196.349 110.371 197.078 109.997C197.927 109.552 198.85 109.263 199.801 109.143C200.526 109.034 201.262 109.017 201.991 109.092C202.599 109.142 203.193 109.302 203.743 109.566L202.757 111.712C202.315 111.473 201.833 111.317 201.334 111.252C200.784 111.18 200.227 111.18 199.677 111.252C199.046 111.318 198.442 111.539 197.918 111.895C197.727 112.008 197.568 112.166 197.455 112.356C197.341 112.546 197.277 112.761 197.268 112.983C197.262 113.095 197.284 113.208 197.333 113.31C197.381 113.412 197.454 113.5 197.545 113.567C197.75 113.722 197.987 113.83 198.239 113.88C198.516 113.939 198.91 114.005 199.421 114.078C200.023 114.144 200.618 114.257 201.203 114.413C201.655 114.55 202.065 114.802 202.392 115.143C202.567 115.342 202.701 115.573 202.785 115.824C202.869 116.075 202.902 116.34 202.882 116.603C202.889 117.36 202.665 118.102 202.239 118.728C201.766 119.4 201.137 119.949 200.407 120.326C199.545 120.799 198.606 121.114 197.633 121.253C196.778 121.378 195.91 121.378 195.056 121.253Z" fill="#263238"/>
<path d="M208.466 110.303L207.977 112.837L213.24 112.107L212.838 114.209L207.561 114.939L207.042 117.64L213.225 116.771L212.787 118.961L204.027 120.195L206.29 108.515L214.861 107.31L214.423 109.5L208.466 110.303Z" fill="#263238"/>
<path d="M225.337 112.092C224.741 112.948 223.917 113.618 222.957 114.026L224.928 117.246L222.161 117.64L220.38 114.72L218.146 115.034L217.511 118.297L214.876 118.669L217.139 106.989L221.76 106.34C222.868 106.094 224.028 106.26 225.023 106.807C225.415 107.071 225.729 107.435 225.934 107.861C226.139 108.287 226.228 108.759 226.191 109.23C226.21 110.25 225.912 111.25 225.337 112.092ZM222.818 111.683C223.059 111.447 223.248 111.164 223.374 110.851C223.5 110.538 223.559 110.202 223.548 109.865C223.57 109.645 223.531 109.422 223.434 109.223C223.337 109.023 223.187 108.854 223.001 108.734C222.514 108.496 221.961 108.429 221.431 108.544L219.358 108.836L218.562 112.888L220.796 112.574C221.548 112.499 222.256 112.187 222.818 111.683Z" fill="#263238"/>
<path d="M239.937 103.806L232.768 116.143L230.191 116.501L227.549 105.551L230.257 105.172L232.082 112.99L237.192 104.186L239.937 103.806Z" fill="#263238"/>
<path d="M240.87 103.675L243.513 103.303L241.25 114.983L238.607 115.355L240.87 103.675Z" fill="#263238"/>
<path d="M246.908 113.742C246.112 113.486 245.424 112.972 244.952 112.282C244.482 111.541 244.245 110.676 244.273 109.8C244.267 108.548 244.57 107.314 245.156 106.208C245.747 105.09 246.601 104.133 247.645 103.42C248.734 102.669 249.984 102.186 251.295 102.011C252.191 101.862 253.108 101.912 253.982 102.157C254.699 102.348 255.325 102.788 255.748 103.398L253.85 105.215C253.534 104.813 253.108 104.51 252.624 104.343C252.14 104.175 251.617 104.152 251.12 104.274C250.326 104.38 249.573 104.687 248.93 105.164C248.309 105.64 247.809 106.255 247.47 106.96C247.12 107.678 246.94 108.468 246.944 109.267C246.917 109.637 246.979 110.008 247.123 110.349C247.268 110.691 247.492 110.993 247.777 111.231C248.116 111.461 248.499 111.619 248.903 111.694C249.306 111.77 249.72 111.761 250.12 111.669C251.309 111.504 252.388 110.884 253.128 109.938L254.682 111.304C254.102 112.042 253.379 112.656 252.556 113.109C251.734 113.562 250.828 113.844 249.894 113.939C248.897 114.112 247.873 114.045 246.908 113.742Z" fill="#263238"/>
<path d="M260.238 103.062L259.749 105.588L265.012 104.858L264.611 106.953L259.333 107.683L258.815 110.376L264.998 109.508L264.56 111.698L255.8 112.931L258.07 101.251L266.618 100.083L266.18 102.273L260.238 103.062Z" fill="#263238"/>
<path d="M195.692 63.4662C195.538 63.3489 195.362 63.2633 195.175 63.2145C194.988 63.1656 194.793 63.1545 194.602 63.1816C194.41 63.2088 194.226 63.2738 194.06 63.3727C193.893 63.4717 193.748 63.6028 193.633 63.7582L183.019 75.8616C182.451 75.79 181.873 75.8612 181.339 76.069C180.805 76.2768 180.331 76.6145 179.96 77.0515C178.763 78.4239 178.763 80.373 179.96 81.4315C181.158 82.49 183.114 82.1615 184.34 80.8183C184.719 80.3971 184.984 79.887 185.111 79.3355C185.239 78.7841 185.225 78.2092 185.07 77.6647L195.685 65.554C195.824 65.4185 195.935 65.2565 196.011 65.0775C196.087 64.8985 196.127 64.7061 196.128 64.5117C196.128 64.3172 196.09 64.1245 196.015 63.945C195.94 63.7655 195.83 63.6027 195.692 63.4662Z" fill="#F9154A"/>
<path d="M114.523 65.3131C106.719 65.3131 100.397 69.9194 100.397 75.5988C100.397 79.7233 103.748 83.2784 108.573 84.9136C108.056 87.2823 107.167 89.5541 105.938 91.6442C107.689 91.3837 109.358 90.7285 110.819 89.7281C112.28 88.7278 113.494 87.4085 114.37 85.8699H114.523C122.327 85.8699 128.648 81.2709 128.648 75.5915C128.648 69.9121 122.327 65.3131 114.523 65.3131Z" fill="#F9154A"/>
<path opacity="0.7" d="M114.523 65.3131C106.719 65.3131 100.397 69.9194 100.397 75.5988C100.397 79.7233 103.748 83.2784 108.573 84.9136C108.056 87.2823 107.167 89.5541 105.938 91.6442C107.689 91.3837 109.358 90.7285 110.819 89.7281C112.28 88.7278 113.494 87.4085 114.37 85.8699H114.523C122.327 85.8699 128.648 81.2709 128.648 75.5915C128.648 69.9121 122.327 65.3131 114.523 65.3131Z" fill="white"/>
<path d="M108.296 77.5771C109.091 77.5771 109.735 76.9332 109.735 76.139C109.735 75.3448 109.091 74.7009 108.296 74.7009C107.502 74.7009 106.858 75.3448 106.858 76.139C106.858 76.9332 107.502 77.5771 108.296 77.5771Z" fill="#263238"/>
<path d="M115.866 76.139C115.866 76.4278 115.781 76.7101 115.62 76.9502C115.46 77.1902 115.232 77.3774 114.965 77.4879C114.698 77.5984 114.405 77.6273 114.121 77.571C113.838 77.5146 113.578 77.3756 113.374 77.1714C113.17 76.9672 113.031 76.7071 112.974 76.4238C112.918 76.1406 112.947 75.8471 113.057 75.5803C113.168 75.3135 113.355 75.0855 113.595 74.9251C113.835 74.7646 114.118 74.679 114.406 74.679C114.794 74.679 115.165 74.8328 115.439 75.1066C115.712 75.3804 115.866 75.7518 115.866 76.139Z" fill="#263238"/>
<path d="M120.56 77.5771C121.354 77.5771 121.998 76.9332 121.998 76.139C121.998 75.3448 121.354 74.7009 120.56 74.7009C119.766 74.7009 119.122 75.3448 119.122 76.139C119.122 76.9332 119.766 77.5771 120.56 77.5771Z" fill="#263238"/>
<path d="M93.6447 191.72H88.8486V223.241H93.6447V191.72Z" fill="#263238"/>
<path opacity="0.5" d="M93.6447 191.72H88.8486V223.241H93.6447V191.72Z" fill="white"/>
<path d="M105.821 246.85L94.586 244.82V222.263C94.587 222.097 94.555 221.932 94.4919 221.779C94.4287 221.625 94.3358 221.485 94.2183 221.368C94.1008 221.25 93.9612 221.157 93.8076 221.094C93.6539 221.031 93.4892 220.999 93.3231 221H89.1694C89.003 220.999 88.838 221.031 88.6839 221.094C88.5298 221.157 88.3897 221.25 88.2717 221.368C88.1537 221.485 88.06 221.624 87.9961 221.778C87.9321 221.932 87.8992 222.097 87.8992 222.263V244.82L76.6718 246.85C75.8836 246.99 75.17 247.404 74.6561 248.018C74.1423 248.632 73.8609 249.407 73.8613 250.208L91.2426 248.638L108.631 250.208C108.63 249.407 108.348 248.633 107.835 248.019C107.321 247.405 106.608 246.991 105.821 246.85Z" fill="#263238"/>
<path d="M77.5119 253.617C77.5119 254.339 77.2978 255.044 76.8968 255.644C76.4957 256.245 75.9257 256.713 75.2587 256.989C74.5918 257.265 73.8579 257.337 73.1498 257.196C72.4418 257.056 71.7914 256.708 71.281 256.198C70.7705 255.687 70.4229 255.037 70.282 254.329C70.1412 253.621 70.2135 252.887 70.4898 252.22C70.766 251.553 71.2338 250.983 71.8341 250.582C72.4343 250.181 73.14 249.967 73.8619 249.967C74.83 249.967 75.7583 250.351 76.4428 251.036C77.1274 251.72 77.5119 252.649 77.5119 253.617Z" fill="#F9154A"/>
<path d="M112.281 253.617C112.281 254.339 112.067 255.044 111.666 255.644C111.265 256.245 110.695 256.713 110.028 256.989C109.361 257.265 108.627 257.337 107.919 257.196C107.211 257.056 106.561 256.708 106.051 256.198C105.54 255.687 105.192 255.037 105.052 254.329C104.911 253.621 104.983 252.887 105.259 252.22C105.536 251.553 106.003 250.983 106.604 250.582C107.204 250.181 107.91 249.967 108.631 249.967C109.111 249.967 109.585 250.061 110.028 250.244C110.471 250.428 110.873 250.697 111.212 251.036C111.551 251.375 111.82 251.777 112.004 252.22C112.187 252.663 112.281 253.137 112.281 253.617Z" fill="#F9154A"/>
<path d="M94.0978 253.617C94.0978 255.631 93.2656 257.267 91.2435 257.267C89.2214 257.267 88.3965 255.631 88.3965 253.617C88.3965 251.602 89.2287 249.967 91.2435 249.967C93.2583 249.967 94.0978 251.602 94.0978 253.617Z" fill="#F9154A"/>
<g opacity="0.5">
<path d="M94.6963 244.835V248.952L96.0541 249.076V245.083L94.6963 244.835Z" fill="black"/>
<path d="M86.4688 245.076V249.069L87.8266 248.945V244.827L86.4688 245.076Z" fill="black"/>
</g>
<path d="M59.9333 163.009C59.6307 163.009 59.3319 163.076 59.058 163.205C58.7841 163.333 58.5418 163.521 58.3482 163.753C58.1546 163.986 58.0145 164.258 57.9377 164.551C57.8609 164.844 57.8494 165.15 57.9039 165.447L62.3569 189.442C62.5582 190.533 63.135 191.518 63.9871 192.228C64.8392 192.937 65.9129 193.326 67.0216 193.326H137.197C137.61 193.326 138.02 193.244 138.402 193.086C138.784 192.927 139.132 192.695 139.424 192.402C139.716 192.109 139.948 191.761 140.105 191.379C140.263 190.996 140.344 190.586 140.343 190.172C140.343 188.986 139.871 187.847 139.032 187.008C138.193 186.169 137.055 185.697 135.868 185.697H95.8274C94.7662 185.698 93.7354 185.343 92.8992 184.689C92.0631 184.036 91.4698 183.121 91.2138 182.091L87.6295 167.623C87.3036 166.306 86.5465 165.137 85.4788 164.301C84.4112 163.465 83.0945 163.01 81.7384 163.009H59.9333Z" fill="#263238"/>
<path d="M69.4087 182.091L65.8244 167.623C65.4985 166.306 64.7414 165.137 63.6737 164.301C62.6061 163.465 61.2894 163.01 59.9333 163.009C59.6307 163.009 59.3319 163.076 59.058 163.205C58.7841 163.333 58.5418 163.521 58.3482 163.753C58.1546 163.986 58.0145 164.258 57.9377 164.551C57.8609 164.844 57.8494 165.15 57.9039 165.447L62.3569 189.442C62.5582 190.533 63.135 191.518 63.9871 192.228C64.8392 192.937 65.9129 193.326 67.0216 193.326H115.384C115.799 193.327 116.209 193.246 116.592 193.088C116.975 192.93 117.323 192.697 117.616 192.404C117.909 192.111 118.142 191.763 118.3 191.38C118.458 190.997 118.539 190.587 118.538 190.172C118.536 188.986 118.064 187.849 117.225 187.01C116.386 186.171 115.249 185.699 114.063 185.697H74.0296C72.9668 185.701 71.9337 185.347 71.0958 184.693C70.2579 184.039 69.6638 183.123 69.4087 182.091Z" fill="#263238"/>
<path opacity="0.2" d="M69.4087 182.091L65.8244 167.623C65.4985 166.306 64.7414 165.137 63.6737 164.301C62.6061 163.465 61.2894 163.01 59.9333 163.009C59.6307 163.009 59.3319 163.076 59.058 163.205C58.7841 163.333 58.5418 163.521 58.3482 163.753C58.1546 163.986 58.0145 164.258 57.9377 164.551C57.8609 164.844 57.8494 165.15 57.9039 165.447L62.3569 189.442C62.5582 190.533 63.135 191.518 63.9871 192.228C64.8392 192.937 65.9129 193.326 67.0216 193.326H115.384C115.799 193.327 116.209 193.246 116.592 193.088C116.975 192.93 117.323 192.697 117.616 192.404C117.909 192.111 118.142 191.763 118.3 191.38C118.458 190.997 118.539 190.587 118.538 190.172C118.536 188.986 118.064 187.849 117.225 187.01C116.386 186.171 115.249 185.699 114.063 185.697H74.0296C72.9668 185.701 71.9337 185.347 71.0958 184.693C70.2579 184.039 69.6638 183.123 69.4087 182.091Z" fill="white"/>
<path d="M99.0537 94.3525C99.0537 94.3525 107.04 96.7323 103.31 102.638L99.8421 97.5864L99.0537 94.3525Z" fill="#263238"/>
<path d="M127.823 124.794L131.305 119.684L134.751 120.779L135.379 122.165L131.086 128.305L127.823 124.794Z" fill="#DBB178"/>
<path d="M132.985 126.129C129.495 131.604 123.991 139.591 121.889 139.116C115.713 137.736 107.223 131.889 102.865 125.465C102.207 124.496 101.937 123.315 102.109 122.156C102.281 120.998 102.881 119.946 103.792 119.209V119.165C104.267 118.777 104.814 118.487 105.402 118.311C105.99 118.134 106.606 118.076 107.216 118.138C107.827 118.201 108.419 118.383 108.958 118.674C109.498 118.966 109.975 119.361 110.362 119.837C110.442 119.932 110.515 120.034 110.588 120.136C114.45 125.677 119.348 130.933 120.151 131.378C121.093 131.918 123.539 129.604 128.714 123.063L132.985 126.129Z" fill="#F9154A"/>
<path opacity="0.6" d="M132.985 126.129C129.495 131.604 123.991 139.591 121.889 139.116C115.713 137.736 107.223 131.889 102.865 125.465C102.207 124.496 101.937 123.315 102.109 122.156C102.281 120.998 102.881 119.946 103.792 119.209V119.165C104.267 118.777 104.814 118.487 105.402 118.311C105.99 118.134 106.606 118.076 107.216 118.138C107.827 118.201 108.419 118.383 108.958 118.674C109.498 118.966 109.975 119.361 110.362 119.837C110.442 119.932 110.515 120.034 110.588 120.136C114.45 125.677 119.348 130.933 120.151 131.378C121.093 131.918 123.539 129.604 128.714 123.063L132.985 126.129Z" fill="white"/>
<path d="M133.065 121.713L139.963 123.063L136.751 117.282C136.751 117.282 132.576 117.282 131.306 119.684L133.065 121.713Z" fill="#DBB178"/>
<path opacity="0.2" d="M113.084 135.123C108.084 131.707 107.42 123.691 107.42 123.691L104.587 122.399L103.229 126.005C105.943 129.61 109.281 132.698 113.084 135.123Z" fill="black"/>
<path d="M144.84 120.581L141.891 115.888L136.759 117.282L139.963 123.063L144.84 120.581Z" fill="#DBB178"/>
<path d="M106.529 152.672L82.0597 154.278C82.0597 154.278 81.8845 147.708 81.0304 141.657C80.7654 139.55 80.3457 137.467 79.7748 135.422C79.1397 133.335 78.3148 130.991 77.3658 128.268C77.2417 127.933 77.1175 127.597 76.9788 127.246C76.6576 126.4 76.3292 125.516 75.9569 124.596V124.553C75.6262 123.654 75.6621 122.661 76.0567 121.788C76.4514 120.916 77.1732 120.233 78.0666 119.888C78.2348 119.822 78.4081 119.771 78.5849 119.735C80.1398 119.406 81.7093 119.107 83.3007 118.859L84.6731 118.654C88.3371 118.108 92.0299 117.777 95.7326 117.661C97.6525 117.661 99.7038 117.72 101.456 117.8L102.916 117.873C104.77 117.983 106.055 118.099 106.055 118.099C106.055 118.099 106.858 118.26 107.332 122.56C107.343 122.804 107.367 123.048 107.405 123.29C107.464 124.18 107.515 125.305 107.537 126.655C107.61 132.174 107.281 141.438 106.529 152.672Z" fill="#F9154A"/>
<path opacity="0.6" d="M106.529 152.672L82.0597 154.278C82.0597 154.278 81.8845 147.708 81.0304 141.657C80.7654 139.55 80.3457 137.467 79.7748 135.422C79.1397 133.335 78.3148 130.991 77.3658 128.268C77.2417 127.933 77.1175 127.597 76.9788 127.246C76.6576 126.4 76.3292 125.516 75.9569 124.596V124.553C75.6262 123.654 75.6621 122.661 76.0567 121.788C76.4514 120.916 77.1732 120.233 78.0666 119.888C78.2348 119.822 78.4081 119.771 78.5849 119.735C80.1398 119.406 81.7093 119.107 83.3007 118.859L84.6731 118.654C88.3371 118.108 92.0299 117.777 95.7326 117.661C97.6525 117.661 99.7038 117.72 101.456 117.8L102.916 117.873C104.77 117.983 106.055 118.099 106.055 118.099C106.055 118.099 106.858 118.26 107.332 122.56C107.343 122.804 107.367 123.048 107.405 123.29C107.464 124.18 107.515 125.305 107.537 126.655C107.61 132.174 107.281 141.438 106.529 152.672Z" fill="white"/>
<path d="M85.5273 118.537L91.6301 126.67L96.0101 122.917L101.704 125.662L98.6235 117.698C97.6745 117.698 96.6963 117.698 95.7546 117.698C92.3327 117.79 88.9185 118.071 85.5273 118.537Z" fill="#F9154A"/>
<path opacity="0.9" d="M85.5273 118.537L91.6301 126.67L96.0101 122.917L101.704 125.662L98.6235 117.698C97.6745 117.698 96.6963 117.698 95.7546 117.698C92.3327 117.79 88.9185 118.071 85.5273 118.537Z" fill="white"/>
<path d="M139.54 250.806H134.335L136.707 211.518H146.446L139.54 250.806Z" fill="#DBB178"/>
<path d="M133.758 250.31C133.7 249.813 139.912 249.346 139.912 249.346C139.912 249.346 144.234 252.675 148.03 252.996C151.826 253.317 150.081 255.836 145.971 256.405L135.802 257.865C132.882 258.296 134.357 255.5 133.758 250.31Z" fill="#263238"/>
<path d="M143.029 250.521C142.237 250.475 141.454 250.325 140.701 250.076C140.671 250.069 140.643 250.054 140.62 250.032C140.606 249.982 140.606 249.929 140.62 249.879C140.62 249.813 140.964 248.273 141.759 247.82C141.878 247.748 142.012 247.702 142.15 247.685C142.289 247.669 142.429 247.683 142.562 247.726C142.949 247.842 143.051 248.061 143.059 248.215C143.059 248.529 142.759 248.879 142.329 249.2C142.744 249.083 143.184 249.083 143.599 249.2C143.689 249.234 143.772 249.286 143.842 249.353C143.912 249.419 143.969 249.499 144.008 249.587C144.069 249.702 144.095 249.832 144.083 249.962C144.072 250.091 144.022 250.215 143.942 250.317C143.676 250.502 143.349 250.576 143.029 250.521ZM141.358 249.864C142.292 250.105 143.387 250.266 143.628 250.003C143.686 249.952 143.672 249.843 143.628 249.711C143.61 249.668 143.584 249.63 143.55 249.598C143.516 249.567 143.475 249.543 143.431 249.529C142.722 249.445 142.004 249.561 141.358 249.864ZM142.205 248.039C142.096 248.039 141.99 248.07 141.898 248.127C141.482 248.489 141.189 248.971 141.058 249.507C141.861 249.047 142.664 248.47 142.664 248.222C142.664 248.178 142.577 248.12 142.438 248.069C142.362 248.048 142.283 248.038 142.205 248.039Z" fill="#F9154A"/>
<path d="M114.559 251.463L109.573 250.806L117.465 207.298L127.305 210.109L114.559 251.463Z" fill="#DBB178"/>
<path d="M108.924 250.113C108.924 249.602 115.143 250.113 115.143 250.113C115.143 250.113 118.917 254.047 122.618 254.931C126.32 255.814 124.224 258.055 120.078 257.997L109.8 257.873C106.829 257.843 108.727 255.354 108.924 250.113Z" fill="#263238"/>
<path d="M118.414 251.733C117.505 251.621 116.623 251.349 115.808 250.93L115.757 250.886C115.754 250.878 115.752 250.87 115.752 250.861C115.752 250.852 115.754 250.843 115.757 250.835C115.746 250.813 115.74 250.788 115.74 250.762C115.74 250.737 115.746 250.712 115.757 250.689C115.757 250.631 116.326 249.171 117.217 248.828C117.343 248.77 117.48 248.74 117.618 248.74C117.757 248.74 117.894 248.77 118.02 248.828C118.385 249.01 118.451 249.229 118.436 249.383C118.436 249.696 118.042 249.996 117.582 250.244C118.011 250.192 118.445 250.26 118.838 250.441C118.922 250.486 118.995 250.548 119.053 250.624C119.111 250.699 119.152 250.786 119.173 250.879C119.22 250.998 119.229 251.128 119.199 251.252C119.169 251.377 119.101 251.488 119.005 251.573C118.834 251.696 118.624 251.753 118.414 251.733ZM116.465 250.799C117.356 251.178 118.414 251.529 118.655 251.281C118.713 251.237 118.728 251.135 118.655 250.989C118.644 250.945 118.624 250.905 118.596 250.869C118.569 250.834 118.534 250.805 118.494 250.784C117.828 250.612 117.129 250.617 116.465 250.799ZM117.487 249.12C117.407 249.123 117.328 249.14 117.253 249.171C116.794 249.462 116.434 249.888 116.224 250.39C117.115 250.062 117.954 249.587 117.969 249.353C117.969 249.31 117.896 249.237 117.772 249.178C117.694 249.139 117.61 249.115 117.524 249.105L117.487 249.12Z" fill="#F9154A"/>
<path d="M134.13 214.89L146.65 215.547C149.854 200.787 153.052 184.515 152.417 180.945C151.212 174.105 141.919 167.141 105.843 161.235L89.0527 186.464C89.0527 186.464 113.61 185.318 135.992 185.318C135.984 185.332 134.736 199.378 134.13 214.89Z" fill="#F9154A"/>
<path opacity="0.1" d="M134.13 214.89L146.65 215.547C149.854 200.787 153.052 184.515 152.417 180.945C151.212 174.105 141.919 167.141 105.843 161.235L89.0527 186.464C89.0527 186.464 113.61 185.318 135.992 185.318C135.984 185.332 134.736 199.378 134.13 214.89Z" fill="black"/>
<path d="M133.291 212.919L133.663 216.197L147.38 216.671L148.052 213.656L133.291 212.919Z" fill="#F9154A"/>
<path d="M97.8496 117.683H95.7326C92.6958 117.778 89.6663 118.026 86.6514 118.413C87.9654 119.983 92.0607 122.428 94.8055 122.428C98.638 122.399 97.7839 119.552 97.8496 117.683Z" fill="#DBB178"/>
<path d="M114.669 212.35L127.466 214.43C132.663 199.881 137.861 184.398 137.773 180.909C137.598 173.959 136.072 170.353 110.938 164.746C110.938 164.746 109.602 162.797 106.558 152.701L82.0596 154.307C82.0596 154.307 70.8833 174.893 79.5338 183.683C81.4464 185.639 85.2059 186.515 89.0238 186.479C89.0238 186.479 97.8568 186.522 119.684 185.5C119.691 185.5 117.1 197.954 114.669 212.35Z" fill="#F9154A"/>
<path d="M114.157 210.109L128.984 212.62L127.575 215.73L114.092 213.525L114.157 210.109Z" fill="#F9154A"/>
<path opacity="0.1" d="M133.291 212.919L133.663 216.197L147.38 216.671L148.052 213.656L133.291 212.919Z" fill="black"/>
<path d="M95.9955 115.574C95.7138 117.376 95.7882 119.216 96.2145 120.99L89.5058 120.005C89.3613 119.983 89.2236 119.929 89.1036 119.846C88.9835 119.763 88.8843 119.653 88.8137 119.525C88.743 119.397 88.7028 119.254 88.6963 119.109C88.6897 118.963 88.7169 118.817 88.7758 118.683C89.6956 116.596 90.0606 112.391 90.2869 110.456C90.411 109.288 90.4621 108.223 90.4694 107.478C90.4767 106.733 90.4694 106.456 90.4694 106.456L93.4697 107.828L98.368 110.069C97.2388 111.739 96.4339 113.606 95.9955 115.574Z" fill="#DBB178"/>
<path opacity="0.2" d="M98.3828 110.069C97.2426 111.737 96.4255 113.604 95.9738 115.574C93.5259 114.603 91.5044 112.791 90.2725 110.464C90.4039 109.296 90.455 108.23 90.4623 107.485C91.5281 107.595 92.5209 107.704 93.4699 107.836L98.3828 110.069Z" fill="black"/>
<path d="M98.7398 105.281C98.5427 107.522 99.6888 109.332 101.295 109.332C102.901 109.332 104.368 107.522 104.565 105.281C104.762 103.04 103.616 101.222 102.01 101.222C100.404 101.222 98.9369 103.04 98.7398 105.281Z" fill="#F9154A"/>
<path opacity="0.5" d="M98.4556 105.281C98.2585 107.522 99.4046 109.332 101.011 109.332C102.617 109.332 104.077 107.522 104.274 105.281C104.471 103.04 103.325 101.222 101.719 101.222C100.113 101.222 98.6454 103.04 98.4556 105.281Z" fill="black"/>
<path d="M87.2212 101.339C88.4184 106.828 88.8345 110.099 92.0757 112.603C93.1206 113.432 94.373 113.96 95.6967 114.128C97.0205 114.296 98.365 114.098 99.584 113.555C100.803 113.013 101.85 112.146 102.611 111.051C103.373 109.955 103.819 108.671 103.902 107.339C104.332 102.229 102.303 94.1043 96.5214 92.5494C95.2787 92.1784 93.9603 92.1411 92.6986 92.4412C91.4369 92.7413 90.2764 93.3683 89.3339 94.259C88.3913 95.1498 87.6998 96.273 87.329 97.5158C86.9581 98.7585 86.921 100.077 87.2212 101.339Z" fill="#DBB178"/>
<path d="M85.9511 107.069C86.8401 108.142 88.0729 108.875 89.4405 109.142C91.1706 109.434 91.5648 107.836 90.6815 106.281C89.8931 104.886 88.0316 103.054 86.484 103.463C84.9364 103.872 84.8342 105.719 85.9511 107.069Z" fill="#DBB178"/>
<path d="M95.8858 101.879C95.9588 102.331 96.2508 102.667 96.5501 102.609C96.8494 102.55 97.0246 102.178 96.9589 101.733C96.8932 101.288 96.5939 100.944 96.2946 101.003C95.9953 101.061 95.8201 101.426 95.8858 101.879Z" fill="#263238"/>
<path d="M101.04 101.273C101.106 101.726 101.405 102.061 101.697 102.003C101.989 101.945 102.179 101.572 102.113 101.12C102.047 100.667 101.741 100.339 101.449 100.39C101.157 100.441 100.93 100.82 101.04 101.273Z" fill="#263238"/>
<path d="M99.4121 101.689C100.167 103.004 101.093 104.214 102.164 105.288C101.885 105.545 101.552 105.737 101.19 105.851C100.828 105.964 100.445 105.996 100.069 105.945L99.4121 101.689Z" fill="#C0854B"/>
<path d="M94.0532 100.426C94.0099 100.436 93.965 100.436 93.9218 100.426C93.8906 100.409 93.8631 100.387 93.841 100.359C93.8188 100.331 93.8025 100.299 93.7929 100.265C93.7834 100.231 93.7808 100.196 93.7854 100.161C93.79 100.125 93.8016 100.092 93.8196 100.061C94.0159 99.6886 94.3012 99.3704 94.6502 99.1348C94.9991 98.8992 95.4009 98.7535 95.8198 98.7106C95.8545 98.7076 95.8895 98.7117 95.9226 98.7228C95.9557 98.7338 95.9861 98.7515 96.0121 98.7747C96.0381 98.798 96.0591 98.8263 96.0737 98.858C96.0883 98.8896 96.0963 98.9239 96.0972 98.9588C96.1002 98.9939 96.0961 99.0293 96.0851 99.0628C96.0742 99.0963 96.0566 99.1272 96.0334 99.1538C96.0103 99.1803 95.982 99.2019 95.9503 99.2174C95.9186 99.2328 95.8842 99.2417 95.849 99.2435C95.5196 99.2806 95.2046 99.3987 94.932 99.5873C94.6594 99.7758 94.4378 100.029 94.2868 100.324C94.2593 100.359 94.2236 100.386 94.1828 100.404C94.142 100.422 94.0975 100.43 94.0532 100.426Z" fill="#263238"/>
<path d="M102.93 99.28C102.887 99.2815 102.844 99.2714 102.805 99.2509C102.767 99.2304 102.734 99.2002 102.711 99.1632C102.526 98.8746 102.277 98.6324 101.983 98.4552C101.69 98.2781 101.36 98.1706 101.018 98.1412C100.955 98.1307 100.897 98.0982 100.856 98.0494C100.815 98.0006 100.792 97.9387 100.792 97.8747C100.792 97.8108 100.815 97.7489 100.856 97.7001C100.897 97.6513 100.955 97.6188 101.018 97.6083C101.446 97.6367 101.863 97.7651 102.233 97.9831C102.603 98.2011 102.917 98.5028 103.149 98.8639C103.189 98.9222 103.205 98.9939 103.193 99.0635C103.18 99.1331 103.141 99.1951 103.084 99.2362C103.037 99.2641 102.984 99.2792 102.93 99.28Z" fill="#263238"/>
<path d="M88.2938 108.558C88.2938 108.558 91.7832 104.989 90.075 96.2286C90.075 96.2286 92.8855 98.6157 99.4117 96.8491C99.4117 96.8491 95.55 97.2287 93.7834 95.3891C93.7834 95.3891 97.3823 97.0608 103.2 95.3891C103.2 95.3891 102.164 89.498 95.9004 89.1987C95.9004 89.1987 97.9225 87.4978 99.8716 87.8263C99.8716 87.8263 97.8787 86.1108 92.8198 89.4469L90.8196 90.2645C90.8196 90.2645 85.184 88.2351 82.0596 93.0093C79.5703 96.7834 80.8186 108.668 88.2938 108.558Z" fill="#263238"/>
<path d="M101.091 106.945C101.091 106.945 99.3243 106.5 94.3457 106.39C94.9005 107.901 95.959 109.15 98.514 109.179C98.8324 109.214 99.1546 109.183 99.4605 109.088C99.7663 108.993 100.049 108.836 100.291 108.626C100.533 108.416 100.729 108.158 100.867 107.869C101.005 107.58 101.081 107.265 101.091 106.945Z" fill="#263238"/>
<path d="M97.3902 107.974C98.3715 107.938 99.3393 108.212 100.157 108.755C99.6793 109.061 99.1168 109.207 98.5509 109.172C97.5736 109.212 96.609 108.939 95.7988 108.39C96.2723 108.088 96.8292 107.942 97.3902 107.974Z" fill="#A02724"/>
<path d="M100.864 106.901C100.812 107.085 100.71 107.25 100.57 107.379C100.429 107.508 100.256 107.595 100.069 107.631C98.5983 107.597 97.1332 107.441 95.6887 107.164C95.4578 107.144 95.2356 107.066 95.0419 106.939C94.8483 106.811 94.6893 106.638 94.5791 106.434C96.6831 106.427 98.7845 106.583 100.864 106.901Z" fill="white"/>
<path d="M85.5859 103.229V97.3382C85.5855 95.5946 86.148 93.8975 87.1897 92.4993C88.2314 91.1012 89.6967 90.0767 91.3675 89.5783L93.3385 89.2279C91.6253 89.7389 90.1229 90.7895 89.0549 92.2232C87.9868 93.6569 87.4102 95.3971 87.4109 97.1849V103.229H85.5859Z" fill="#F9154A"/>
<path d="M90.163 106.084C90.3601 108.325 89.214 110.135 87.608 110.135C86.002 110.135 84.5347 108.325 84.3449 106.084C84.1551 103.843 85.2939 102.025 86.8999 102.025C88.5059 102.025 89.9659 103.843 90.163 106.084Z" fill="#F9154A"/>
<path opacity="0.5" d="M90.163 106.084C90.3601 108.325 89.214 110.135 87.608 110.135C86.002 110.135 84.5347 108.325 84.3449 106.084C84.1551 103.843 85.2939 102.025 86.8999 102.025C88.5059 102.025 89.9659 103.843 90.163 106.084Z" fill="black"/>
<path d="M89.1922 106.084C89.382 108.325 88.2432 110.135 86.6299 110.135C85.0166 110.135 83.5639 108.325 83.3668 106.084C83.1697 103.843 84.3158 102.025 85.9218 102.025C87.5278 102.025 88.9951 103.843 89.1922 106.084Z" fill="#F9154A"/>
<path opacity="0.3" d="M87.1698 106.675L87.0384 105.492H87.2647C86.9727 104.332 86.1551 103.463 85.2572 103.463C84.3593 103.463 83.7023 104.332 83.6074 105.492H83.7607L83.8921 106.675H83.7169C84.0089 107.836 84.8265 108.697 85.7171 108.697C86.6077 108.697 87.2793 107.836 87.3669 106.675H87.1698Z" fill="white"/>
<path d="M76.6797 106.58L79.8698 100.302L82.4467 106.39C82.4467 106.39 79.8625 109.675 77.198 109.201L76.6797 106.58Z" fill="#DBB178"/>
<path d="M84.8268 97.9879L86.7029 103.207L82.4397 106.39L79.8701 100.295L84.8268 97.9879Z" fill="#DBB178"/>
<path d="M77.5191 113.34L80.5851 108.179L80.2639 106.076L77.5629 105.12L73.7158 111.106L77.5191 113.34Z" fill="#DBB178"/>
<path d="M79.7311 110.128L74.132 122.45C74.132 122.45 76.8549 120.005 78.3587 119.654C80.7531 119.092 87.9801 121.275 80.6582 129.225C80.6582 129.225 66.1604 138.284 63.2039 134.773C60.9044 132.042 70.6718 115.45 75.1467 108.179L79.7311 110.128Z" fill="#F9154A"/>
<path opacity="0.6" d="M79.7311 110.128L74.132 122.45C74.132 122.45 76.8549 120.005 78.3587 119.654C80.7531 119.092 87.9801 121.275 80.6582 129.225C80.6582 129.225 66.1604 138.284 63.2039 134.773C60.9044 132.042 70.6718 115.45 75.1467 108.179L79.7311 110.128Z" fill="white"/>
<path opacity="0.2" d="M74.1315 122.45L72.5693 127.261L77.1537 120.209C76.0845 120.869 75.0735 121.619 74.1315 122.45Z" fill="black"/>
<path d="M95.1049 111.522C94.4919 111.538 93.8787 111.499 93.2726 111.405C91.7104 110.844 90.1987 110.15 88.7539 109.332L89.0459 108.807C90.4489 109.594 91.9138 110.265 93.4259 110.814C94.9806 110.943 96.5432 110.943 98.0979 110.814L98.1417 111.42C98.0249 111.42 96.4919 111.522 95.1049 111.522Z" fill="#F9154A"/>
<path d="M95.7617 111.646L98.6817 111.427C98.6817 111.427 98.6014 110.522 97.2217 110.559C95.842 110.595 95.7617 111.646 95.7617 111.646Z" fill="#F9154A"/>
<g opacity="0.5">
<path d="M95.1049 111.522C94.4919 111.538 93.8787 111.499 93.2726 111.405C91.7104 110.844 90.1987 110.15 88.7539 109.332L89.0459 108.807C90.4489 109.594 91.9138 110.265 93.4259 110.814C94.9806 110.943 96.5432 110.943 98.0979 110.814L98.1417 111.42C98.0249 111.42 96.4919 111.522 95.1049 111.522Z" fill="black"/>
<path d="M95.7617 111.646L98.6817 111.427C98.6817 111.427 98.6014 110.522 97.2217 110.559C95.842 110.595 95.7617 111.646 95.7617 111.646Z" fill="black"/>
</g>
<path d="M212.043 258.084C211.89 258.09 211.737 258.066 211.593 258.012C211.449 257.959 211.317 257.878 211.204 257.773C211.092 257.669 211.001 257.543 210.937 257.404C210.873 257.264 210.837 257.113 210.832 256.96L203.532 172.441C203.519 171.712 203.234 171.014 202.733 170.484C202.232 169.955 201.55 169.632 200.823 169.579H166.338C165.611 169.632 164.93 169.955 164.429 170.484C163.927 171.014 163.642 171.712 163.63 172.441L156.33 256.96C156.329 257.117 156.297 257.271 156.235 257.415C156.173 257.559 156.083 257.689 155.97 257.797C155.857 257.905 155.723 257.99 155.577 258.045C155.43 258.101 155.274 258.127 155.118 258.121C154.802 258.057 154.524 257.874 154.339 257.611C154.154 257.347 154.078 257.023 154.125 256.705L161.425 172.178C161.681 169.221 163.79 166.995 166.338 166.995H200.823C203.371 166.995 205.481 169.221 205.736 172.178L213.036 256.705C213.084 257.023 213.007 257.347 212.822 257.611C212.638 257.874 212.359 258.057 212.043 258.121V258.084Z" fill="#F9154A"/>
<g opacity="0.4">
<path d="M212.043 258.084C211.89 258.09 211.737 258.066 211.593 258.012C211.449 257.959 211.317 257.878 211.204 257.773C211.092 257.669 211.001 257.543 210.937 257.404C210.873 257.264 210.837 257.113 210.832 256.96L203.532 172.441C203.519 171.712 203.234 171.014 202.733 170.484C202.232 169.955 201.55 169.632 200.823 169.579H166.338C165.611 169.632 164.93 169.955 164.429 170.484C163.927 171.014 163.642 171.712 163.63 172.441L156.33 256.96C156.329 257.117 156.297 257.271 156.235 257.415C156.173 257.559 156.083 257.689 155.97 257.797C155.857 257.905 155.723 257.99 155.577 258.045C155.43 258.101 155.274 258.127 155.118 258.121C154.802 258.057 154.524 257.874 154.339 257.611C154.154 257.347 154.078 257.023 154.125 256.705L161.425 172.178C161.681 169.221 163.79 166.995 166.338 166.995H200.823C203.371 166.995 205.481 169.221 205.736 172.178L213.036 256.705C213.084 257.023 213.007 257.347 212.822 257.611C212.638 257.874 212.359 258.057 212.043 258.121V258.084Z" fill="black"/>
</g>
<path d="M211.562 163.337H117.823C117.004 163.337 116.341 164.001 116.341 164.819V169.623C116.341 170.441 117.004 171.105 117.823 171.105H211.562C212.38 171.105 213.044 170.441 213.044 169.623V164.819C213.044 164.001 212.38 163.337 211.562 163.337Z" fill="#263238"/>
<path opacity="0.2" d="M170.609 163.337H211.562C211.95 163.337 212.321 163.491 212.595 163.765C212.869 164.039 213.022 164.41 213.022 164.797V169.601C213.022 169.988 212.869 170.359 212.595 170.633C212.321 170.907 211.95 171.061 211.562 171.061H170.609V163.337Z" fill="white"/>
<path d="M174.273 258.084C174.116 258.091 173.959 258.066 173.812 258.011C173.665 257.956 173.531 257.872 173.417 257.763C173.303 257.655 173.212 257.525 173.15 257.38C173.088 257.236 173.055 257.081 173.054 256.924L165.754 172.404C165.742 171.675 165.457 170.977 164.955 170.448C164.454 169.918 163.773 169.595 163.046 169.543H128.561C127.835 169.597 127.155 169.921 126.656 170.45C126.156 170.979 125.872 171.676 125.86 172.404L118.56 256.96C118.559 257.117 118.527 257.271 118.465 257.415C118.403 257.559 118.313 257.689 118.2 257.797C118.087 257.905 117.953 257.99 117.807 258.045C117.66 258.101 117.504 258.127 117.348 258.121C117.028 258.054 116.746 257.864 116.564 257.593C116.381 257.322 116.311 256.99 116.37 256.668L123.67 172.141C123.925 169.185 126.042 166.958 128.583 166.958H163.068C165.616 166.958 167.725 169.185 167.981 172.141L175.281 256.668C175.328 256.985 175.253 257.309 175.07 257.572C174.886 257.836 174.609 258.019 174.295 258.084H174.273Z" fill="#F9154A"/>
<g opacity="0.4">
<path d="M174.273 258.084C174.116 258.091 173.959 258.066 173.812 258.011C173.665 257.956 173.531 257.872 173.417 257.763C173.303 257.655 173.212 257.525 173.15 257.38C173.088 257.236 173.055 257.081 173.054 256.924L165.754 172.404C165.742 171.675 165.457 170.977 164.955 170.448C164.454 169.918 163.773 169.595 163.046 169.543H128.561C127.835 169.597 127.155 169.921 126.656 170.45C126.156 170.979 125.872 171.676 125.86 172.404L118.56 256.96C118.559 257.117 118.527 257.271 118.465 257.415C118.403 257.559 118.313 257.689 118.2 257.797C118.087 257.905 117.953 257.99 117.807 258.045C117.66 258.101 117.504 258.127 117.348 258.121C117.028 258.054 116.746 257.864 116.564 257.593C116.381 257.322 116.311 256.99 116.37 256.668L123.67 172.141C123.925 169.185 126.042 166.958 128.583 166.958H163.068C165.616 166.958 167.725 169.185 167.981 172.141L175.281 256.668C175.328 256.985 175.253 257.309 175.07 257.572C174.886 257.836 174.609 258.019 174.295 258.084H174.273Z" fill="black"/>
</g>
<path d="M147.271 159.505H174.324V162.023C174.324 162.362 174.19 162.687 173.95 162.927C173.711 163.166 173.386 163.301 173.047 163.301H148.548C148.209 163.301 147.884 163.166 147.645 162.927C147.405 162.687 147.271 162.362 147.271 162.023V159.49V159.505Z" fill="#263238"/>
<path opacity="0.2" d="M147.271 159.505H174.324V162.023C174.324 162.362 174.19 162.687 173.95 162.927C173.711 163.166 173.386 163.301 173.047 163.301H148.548C148.209 163.301 147.884 163.166 147.645 162.927C147.405 162.687 147.271 162.362 147.271 162.023V159.49V159.505Z" fill="white"/>
<path d="M128.138 159.505H155.191V162.023C155.191 162.362 155.057 162.687 154.817 162.927C154.578 163.166 154.253 163.301 153.914 163.301H129.415C129.076 163.301 128.751 163.166 128.512 162.927C128.272 162.687 128.138 162.362 128.138 162.023V159.49V159.505Z" fill="#263238"/>
<path opacity="0.6" d="M128.138 159.505H155.191V162.023C155.191 162.362 155.057 162.687 154.817 162.927C154.578 163.166 154.253 163.301 153.914 163.301H129.415C129.076 163.301 128.751 163.166 128.512 162.927C128.272 162.687 128.138 162.362 128.138 162.023V159.49V159.505Z" fill="white"/>
<path d="M152.06 160.965H149.549V161.87H152.06V160.965Z" fill="#263238"/>
<path d="M148.038 160.965H145.526V161.87H148.038V160.965Z" fill="#263238"/>
<path d="M176.23 163.337H177.522C177.876 163.33 178.215 163.199 178.482 162.967C178.749 162.735 178.926 162.416 178.982 162.067L183.362 135.138C183.397 134.924 183.385 134.705 183.328 134.496C183.271 134.287 183.17 134.093 183.032 133.927C182.893 133.76 182.721 133.625 182.526 133.53C182.331 133.436 182.119 133.384 181.902 133.378L160.9 133.342L155.221 163.272H156.513L176.23 163.337Z" fill="#263238"/>
<path opacity="0.6" d="M176.23 163.337H177.522C177.876 163.33 178.215 163.199 178.482 162.967C178.749 162.735 178.926 162.416 178.982 162.067L183.362 135.138C183.397 134.924 183.385 134.705 183.328 134.496C183.271 134.287 183.17 134.093 183.032 133.927C182.893 133.76 182.721 133.625 182.526 133.53C182.331 133.436 182.119 133.384 181.902 133.378L160.9 133.342L155.221 163.272H156.513L176.23 163.337Z" fill="white"/>
<path opacity="0.2" d="M155.55 161.388L155.185 163.301H156.477L176.187 163.338H177.479C177.832 163.33 178.172 163.199 178.439 162.967C178.706 162.735 178.882 162.416 178.939 162.067L179.041 161.432L155.55 161.388Z" fill="black"/>
<path d="M155.213 163.323H156.52C156.873 163.315 157.213 163.184 157.48 162.952C157.746 162.72 157.923 162.402 157.98 162.053L162.36 135.108C162.394 134.895 162.382 134.677 162.325 134.468C162.268 134.26 162.167 134.066 162.029 133.9C161.89 133.734 161.718 133.599 161.523 133.506C161.328 133.412 161.116 133.361 160.9 133.356L155.213 163.323Z" fill="#263238"/>
<path opacity="0.3" d="M155.213 163.323H156.52C156.873 163.315 157.213 163.184 157.48 162.952C157.746 162.72 157.923 162.402 157.98 162.053L162.36 135.108C162.394 134.895 162.382 134.677 162.325 134.468C162.268 134.26 162.167 134.066 162.029 133.9C161.89 133.734 161.718 133.599 161.523 133.506C161.328 133.412 161.116 133.361 160.9 133.356L155.213 163.323Z" fill="white"/>
<path d="M193.064 103.3L190.332 103.63L191.387 92.7532L199.154 91.8148L198.902 94.2627L193.882 94.8691L193.717 96.5652L198.641 95.9704L198.405 98.4164L193.48 99.0112L193.064 103.3ZM205.318 102.013C203.74 102.204 202.492 102.011 201.574 101.434C200.665 100.846 200.14 99.9741 200.001 98.8198C199.977 98.6186 199.975 98.3824 199.996 98.1113L200.632 91.6363L203.412 91.3005L202.784 97.71C202.761 97.788 202.763 97.9382 202.79 98.1606C202.858 98.6358 203.087 99.0218 203.478 99.3184C203.878 99.6032 204.395 99.7072 205.03 99.6305C206.365 99.4693 207.104 98.6494 207.247 97.1708L207.875 90.7613L210.639 90.4274L210.017 96.8846C209.87 98.3314 209.431 99.5018 208.701 100.396C207.981 101.289 206.854 101.828 205.318 102.013ZM218.479 100.23L211.49 101.074L212.545 90.1971L215.277 89.867L214.459 98.2981L218.716 97.7838L218.479 100.23ZM226.887 99.2141L219.898 100.058L220.953 89.1814L223.685 88.8513L222.866 97.2824L227.123 96.7681L226.887 99.2141ZM235.102 98.2217L232.37 98.5518L233.425 87.6747L241.192 86.7364L240.94 89.1843L235.921 89.7907L235.755 91.4868L240.679 90.8919L240.443 93.3379L235.518 93.9328L235.102 98.2217ZM250.653 96.343L247.635 96.7076L246.221 93.2685L244.696 93.4527L244.347 97.1048L241.615 97.4349L242.67 86.5578L247.499 85.9745C248.441 85.8606 249.281 86.0493 250.017 86.5406C250.764 87.0305 251.193 87.7362 251.304 88.6575C251.416 89.5788 251.243 90.4162 250.786 91.1698C250.328 91.9128 249.709 92.4388 248.93 92.7478L250.653 96.343ZM247.06 90.7495L247.108 90.7438C247.574 90.6875 247.931 90.5315 248.18 90.2759C248.438 90.0084 248.543 89.6787 248.495 89.2869C248.461 89.001 248.321 88.7761 248.076 88.6124C247.83 88.4486 247.554 88.3853 247.247 88.4224L245.166 88.6738L244.932 91.0067L247.06 90.7495ZM259.884 95.2279L252.117 96.1662L253.172 85.2892L260.939 84.3508L260.687 86.7987L255.668 87.4051L255.502 89.1012L260.426 88.5064L260.19 90.9524L255.266 91.5472L255.085 93.3902L260.121 92.7819L259.884 95.2279ZM269.238 94.0979L261.471 95.0362L262.526 84.1592L270.293 83.2208L270.041 85.6687L265.022 86.2751L264.856 87.9712L269.78 87.3764L269.544 89.8224L264.619 90.4172L264.439 92.2602L269.475 91.6519L269.238 94.0979Z" fill="#263238"/>
</svg>
